<svg aria-hidden="true" style="position: absolute; width: 0; height: 0; overflow: hidden;" version="1.1" xmlns="http://www.w3.org/2000/svg" xmlns:xlink="http://www.w3.org/1999/xlink">
<defs>
<symbol id="gsicon-apple" viewBox="0 0 32 32">
<title>apple</title>
<path d="M15.377 9.826c0.855 0 2.444-1.176 4.512-1.176 3.562 0 4.963 2.533 4.963 2.533s-2.739 1.401-2.739 4.8c0 3.831 3.411 5.153 3.411 5.153s-2.386 6.715-5.607 6.715c-1.48 0-2.631-0.997-4.19-0.997-1.589 0-3.166 1.034-4.192 1.034-2.944 0-6.66-6.368-6.66-11.487 0-5.037 3.147-7.677 6.098-7.677 1.915-0.001 3.406 1.104 4.404 1.104zM16.268 4.764c1.662-2.192 3.978-2.204 3.978-2.204s0.344 2.062-1.309 4.049c-1.763 2.121-3.77 1.773-3.77 1.773s-0.377-1.668 1.103-3.619h-0.002z"></path>
</symbol>
<symbol id="gsicon-behance" viewBox="0 0 32 32">
<title>behance</title>
<path d="M14.356 8.268c0.576 0.805 0.866 1.776 0.866 2.905 0 1.162-0.294 2.1-0.874 2.808-0.328 0.395-0.803 0.757-1.434 1.081 0.959 0.357 1.684 0.914 2.174 1.68 0.488 0.772 0.732 1.699 0.732 2.794 0 1.129-0.278 2.14-0.839 3.035-0.355 0.597-0.797 1.095-1.331 1.507-0.599 0.463-1.312 0.778-2.127 0.954-0.818 0.168-1.705 0.254-2.661 0.254h-8.488v-19.051h9.104c2.295 0.032 3.923 0.71 4.877 2.033zM4.133 9.547v4.196h4.578c0.816 0 1.478-0.156 1.993-0.469 0.505-0.319 0.763-0.876 0.763-1.675 0-0.891-0.338-1.471-1.011-1.759-0.58-0.198-1.325-0.294-2.226-0.294h-4.097zM4.133 16.904v5.076h4.57c0.816 0 1.453-0.116 1.907-0.338 0.828-0.416 1.24-1.209 1.24-2.378 0-0.994-0.4-1.673-1.202-2.043-0.446-0.206-1.072-0.313-1.881-0.317h-4.635zM27.982 11.481c0.973 0.443 1.776 1.135 2.411 2.085 0.566 0.843 0.938 1.812 1.11 2.916 0.095 0.645 0.135 1.574 0.118 2.79h-10.143c0.057 1.419 0.546 2.407 1.461 2.977 0.553 0.353 1.223 0.528 2.003 0.528 0.83 0 1.505-0.215 2.020-0.647 0.286-0.233 0.534-0.551 0.753-0.969h3.716c-0.097 0.831-0.549 1.684-1.35 2.55-1.248 1.364-2.995 2.052-5.24 2.052-1.852 0-3.485-0.578-4.904-1.734-1.415-1.158-2.121-3.035-2.121-5.642 0-2.438 0.637-4.313 1.919-5.615 1.276-1.301 2.935-1.955 4.976-1.955 1.211 0 2.302 0.227 3.271 0.662zM22.538 14.665c-0.515 0.54-0.836 1.264-0.969 2.186h6.271c-0.067-0.98-0.391-1.726-0.973-2.23-0.578-0.505-1.297-0.759-2.155-0.759-0.935 0-1.661 0.271-2.174 0.803zM19.906 8.188h9.766v1.953h-9.766v-1.953z"></path>
</symbol>
<symbol id="gsicon-bing" viewBox="0 0 32 32">
<title>bing</title>
<path d="M10.48 32l-7.28-5.106v-26.894l7.328 2.244v18.084l-7.116 6.34 17.366-9.134-4.816-2.18-3.26-7.060 16.098 4.926v7.864l-18.32 10.916z"></path>
</symbol>
<symbol id="gsicon-bitbucket" viewBox="0 0 25 32">
<title>bitbucket</title>
<path d="M14.554 15.339q0.143 1.125-0.902 1.804t-1.991 0.107q-0.696-0.304-0.955-1.036t-0.009-1.464 0.929-1.036q0.643-0.321 1.295-0.214t1.143 0.634 0.491 1.205zM16.536 14.964q-0.25-1.911-2.018-2.929t-3.518-0.232q-1.125 0.5-1.795 1.58t-0.616 2.313q0.071 1.625 1.384 2.768t2.955 1q1.625-0.143 2.714-1.5t0.893-3zM20.804 5.286q-0.357-0.482-1-0.795t-1.036-0.393-1.268-0.223q-5.196-0.839-10.107 0.036-0.768 0.125-1.179 0.214t-0.982 0.393-0.893 0.768q0.536 0.5 1.357 0.813t1.313 0.393 1.563 0.205q4.071 0.518 8 0.018 1.125-0.143 1.598-0.214t1.295-0.384 1.339-0.83zM21.821 23.768q-0.143 0.464-0.277 1.366t-0.25 1.5-0.509 1.25-1.036 1.009q-1.536 0.857-3.384 1.277t-3.607 0.393-3.598-0.33q-0.821-0.143-1.455-0.321t-1.366-0.482-1.304-0.777-0.929-1.098q-0.446-1.714-1.018-5.214l0.107-0.286 0.321-0.161q3.982 2.643 9.045 2.643t9.063-2.643q0.375 0.107 0.429 0.411t-0.089 0.804-0.143 0.661zM25.054 6.607q-0.464 2.982-1.982 11.696-0.089 0.536-0.482 1t-0.777 0.714-0.973 0.554q-4.5 2.25-10.893 1.571-4.429-0.482-7.036-2.482-0.268-0.214-0.455-0.473t-0.304-0.625-0.161-0.607-0.107-0.705-0.098-0.625q-0.161-0.893-0.473-2.679t-0.5-2.884-0.42-2.634-0.393-2.821q0.054-0.464 0.313-0.866t0.563-0.67 0.804-0.536 0.821-0.402 0.857-0.33q2.232-0.821 5.589-1.143 6.768-0.661 12.071 0.893 2.768 0.821 3.839 2.179 0.286 0.357 0.295 0.911t-0.098 0.964z"></path>
</symbol>
<symbol id="gsicon-blogger" viewBox="0 0 32 32">
<title>blogger</title>
<path d="M27.866 12.584h-1.051c0 0-0.187 0-0.217 0-1.724 0-2.022-1.532-2.022-1.532l0.039 0.029c-0.201-4.941-3.956-8.865-9.087-8.897v0.006h-4.101c-5.114 0.033-9.24 4.108-9.24 9.226 0 0.021 0-0.018 0-0.018v0 9.21c0 5.114 4.104 9.174 9.237 9.204v0.003l9.235-0.006c4.618-0.096 9.153-4.087 9.153-9.201v0-6.206c0-0.982-0.962-1.818-1.947-1.818zM10.907 9.053c0.015 0 0.004 0.002 0.004 0.002v0h5.13c1.025 0.022 1.679 0.956 1.679 1.86s-0.654 1.67-1.679 1.67v0h-5.13c0 0-0.051 0-0.064 0-0.92 0-1.855-0.779-1.855-1.697s0.998-1.834 1.915-1.834zM20.388 22.978v0h-9.476v-0.054c0 0-0.051 0-0.064 0-0.92 0-1.839-0.884-1.839-1.803 0-0.917 0.916-1.646 1.836-1.646 0.014 0 0.051 0 0.051 0h9.574c1.028 0 1.571 0.819 1.571 1.725 0 0.902-0.625 1.777-1.652 1.777z"></path>
</symbol>
<symbol id="gsicon-chrome" viewBox="0 0 32 32">
<title>chrome</title>
<path d="M8.071 13.954l-4.579-7.931c2.932-3.671 7.445-6.023 12.508-6.023 5.857 0 10.978 3.148 13.767 7.844h-13.055c-0.235-0.020-0.472-0.031-0.711-0.031-3.809 0-7.018 2.614-7.929 6.142zM21.728 10.156h9.171c0.711 1.81 1.101 3.781 1.101 5.844 0 8.776-7.066 15.9-15.818 15.998l6.544-11.334c0.921-1.324 1.462-2.932 1.462-4.664 0-2.287-0.943-4.357-2.459-5.844zM10.188 16c0-3.205 2.607-5.813 5.813-5.813s5.813 2.607 5.813 5.813c0 3.205-2.608 5.813-5.813 5.813s-5.813-2.608-5.813-5.813zM18.193 23.889l-4.581 7.934c-7.704-1.153-13.613-7.797-13.613-15.822 0-2.851 0.746-5.526 2.053-7.845l6.532 11.314c1.308 2.785 4.14 4.718 7.415 4.718 0.759 0 1.495-0.104 2.193-0.299z"></path>
</symbol>
<symbol id="gsicon-codepen" viewBox="0 0 32 32">
<title>codepen</title>
<path d="M3.857 20.875l10.768 7.179v-6.411l-5.964-3.982zM2.75 18.304l3.446-2.304-3.446-2.304v4.607zM17.375 28.054l10.768-7.179-4.804-3.214-5.964 3.982v6.411zM16 19.25l4.857-3.25-4.857-3.25-4.857 3.25zM8.661 14.339l5.964-3.982v-6.411l-10.768 7.179zM25.804 16l3.446 2.304v-4.607zM23.339 14.339l4.804-3.214-10.768-7.179v6.411zM32 11.125v9.75q0 0.732-0.607 1.143l-14.625 9.75q-0.375 0.232-0.768 0.232t-0.768-0.232l-14.625-9.75q-0.607-0.411-0.607-1.143v-9.75q0-0.732 0.607-1.143l14.625-9.75q0.375-0.232 0.768-0.232t0.768 0.232l14.625 9.75q0.607 0.411 0.607 1.143z"></path>
</symbol>
<symbol id="gsicon-css3" viewBox="0 0 32 32">
<title>css3</title>
<path d="M28.181 6.967l-12.109 5.177h11.684l-1.337 15.368-10.319 3.006-10.356-3.061-0.668-7.739h5.14l0.334 4.008 5.502 1.39 0.048-0.013v0.005l5.698-1.604 0.389-6.458-17.446-0.057-0.39-4.844 12.433-5.177h-12.879l-0.612-4.957h25.388z"></path>
</symbol>
<symbol id="gsicon-css3-box" viewBox="0 0 32 32">
<title>css3-box</title>
<path d="M3.601 2.502l2.326 25.186 10.073 2.71 10.073-2.71 2.327-25.186h-24.798zM23.405 10.665l-7.432 3.177h7.172l-0.821 9.433-6.321 1.845-0.011-0.004v0.004l-6.357-1.88-0.411-4.751h3.156l0.205 2.461 3.377 0.853 0.029-0.009v0.005l3.496-0.985 0.238-3.966-10.707-0.032-0.239-2.975 7.631-3.177h-7.904l-0.375-3.043h15.582l-0.309 3.042z"></path>
</symbol>
<symbol id="gsicon-delicious" viewBox="0 0 32 32">
<title>delicious</title>
<path d="M16.016 16h-16v16h16v-16zM32.016 0h-16v16h16v-16z"></path>
</symbol>
<symbol id="gsicon-digg" viewBox="0 0 37 32">
<title>digg</title>
<path d="M5.857 5.036h3.643v17.554h-9.5v-12.446h5.857v-5.107zM5.857 19.661v-6.589h-2.196v6.589h2.196zM10.964 10.143v12.446h3.661v-12.446h-3.661zM10.964 5.036v3.643h3.661v-3.643h-3.661zM16.089 10.143h9.518v16.821h-9.518v-2.911h5.857v-1.464h-5.857v-12.446zM21.946 19.661v-6.589h-2.196v6.589h2.196zM27.071 10.143h9.5v16.821h-9.5v-2.911h5.839v-1.464h-5.839v-12.446zM32.911 19.661v-6.589h-2.196v6.589h2.196z"></path>
</symbol>
<symbol id="gsicon-disqus" viewBox="0 0 32 32">
<title>disqus</title>
<path d="M16.584 31.54c-3.804 0-7.28-1.39-9.968-3.688l-6.616 0.904 2.556-6.31c-0.89-1.966-1.39-4.146-1.39-6.446 0-8.58 6.9-15.54 15.42-15.54 8.51 0 15.414 6.96 15.414 15.54 0 8.584-6.9 15.54-15.416 15.54zM25.004 15.956v-0.044c0-4.484-3.164-7.68-8.616-7.68h-5.888v15.54h5.8c5.494 0 8.7-3.332 8.7-7.816zM16.45 19.952h-1.72v-7.9h1.72c2.53 0 4.21 1.44 4.21 3.928v0.040c0 2.512-1.68 3.932-4.208 3.932z"></path>
</symbol>
<symbol id="gsicon-deviantart" viewBox="0 0 32 32">
<title>deviantart</title>
<path d="M25.6 6.392l0.304-0.574v-5.818h-5.82l-0.58 0.586-2.744 5.234-0.864 0.58h-9.8v7.99h5.388l0.48 0.58-5.566 10.64-0.304 0.572v5.818h5.82l0.58-0.586 2.746-5.234 0.864-0.58h9.8v-7.99h-5.388l-0.48-0.584 5.566-10.634z"></path>
</symbol>
<symbol id="gsicon-dribbble" viewBox="0 0 32 32">
<title>dribbble</title>
<path d="M20.286 26.786q-0.75-4.304-2.5-8.893h-0.036l-0.036 0.018q-0.286 0.107-0.768 0.295t-1.804 0.875-2.446 1.464-2.339 2.045-1.839 2.643l-0.268-0.196q3.286 2.679 7.464 2.679 2.357 0 4.571-0.929zM16.982 15.946q-0.375-0.875-0.946-1.982-5.554 1.661-12.018 1.661-0.018 0.125-0.018 0.375 0 2.214 0.786 4.223t2.214 3.598q0.893-1.589 2.205-2.973t2.545-2.223 2.33-1.446 1.777-0.857l0.661-0.232q0.071-0.018 0.232-0.063t0.232-0.080zM15.071 12.161q-2.143-3.804-4.357-6.75-2.464 1.161-4.179 3.321t-2.286 4.857q5.393 0 10.821-1.429zM27.286 17.857q-3.75-1.071-7.304-0.518 1.554 4.268 2.286 8.375 1.982-1.339 3.304-3.384t1.714-4.473zM12.911 4.625q-0.018 0-0.036 0.018 0.018-0.018 0.036-0.018zM23.446 7.214q-3.304-2.929-7.732-2.929-1.357 0-2.768 0.339 2.339 3.036 4.393 6.821 1.232-0.464 2.321-1.080t1.723-1.098 1.17-1.018 0.67-0.723zM27.429 15.875q-0.054-4.143-2.661-7.321l-0.018 0.018q-0.161 0.214-0.339 0.438t-0.777 0.795-1.268 1.080-1.786 1.161-2.348 1.152q0.446 0.946 0.786 1.696 0.036 0.107 0.116 0.313t0.134 0.295q0.643-0.089 1.33-0.125t1.313-0.036 1.232 0.027 1.143 0.071 1.009 0.098 0.857 0.116 0.652 0.107 0.446 0.080zM29.429 16q0 3.732-1.839 6.884t-4.991 4.991-6.884 1.839-6.884-1.839-4.991-4.991-1.839-6.884 1.839-6.884 4.991-4.991 6.884-1.839 6.884 1.839 4.991 4.991 1.839 6.884z"></path>
</symbol>
<symbol id="gsicon-dropbox" viewBox="0 0 32 32">
<title>dropbox</title>
<path d="M7.179 12.625l8.821 5.446-6.107 5.089-8.75-5.696zM24.786 22.536v1.929l-8.75 5.232v0.018l-0.018-0.018-0.018 0.018v-0.018l-8.732-5.232v-1.929l2.625 1.714 6.107-5.071v-0.036l0.018 0.018 0.018-0.018v0.036l6.125 5.071zM9.893 2.107l6.107 5.089-8.821 5.429-6.036-4.821zM24.821 12.625l6.036 4.839-8.732 5.696-6.125-5.089zM22.125 2.107l8.732 5.696-6.036 4.821-8.821-5.429z"></path>
</symbol>
<symbol id="gsicon-drupal" viewBox="0 0 32 32">
<title>drupal</title>
<path d="M22.839 28.321q-0.089-0.339-0.429-0.089-0.536 0.393-1.554 0.696t-2.339 0.304q-2.304 0-3.446-0.875-0.089-0.071-0.232-0.071-0.196 0-0.464 0.214-0.125 0.107-0.134 0.286t0.134 0.357q0.607 0.571 1.563 0.821t1.83 0.223 1.768-0.080q0.732-0.071 1.509-0.366t1.161-0.536 0.509-0.366q0.214-0.214 0.125-0.518zM22.143 26.268q-0.339-0.839-0.696-1.089-0.411-0.268-1.357-0.268-0.839 0-1.268 0.179-0.518 0.214-1.393 1-0.464 0.429-0.214 0.786 0.161 0.143 0.313 0.080t0.563-0.42q0.054-0.036 0.188-0.152t0.188-0.152 0.179-0.125 0.205-0.125 0.223-0.089 0.268-0.080 0.295-0.045 0.366-0.018q0.482 0 0.795 0.134t0.411 0.259 0.241 0.393q0.179 0.304 0.223 0.357t0.223-0.018q0.411-0.214 0.25-0.607zM28.482 21.25q0-0.393-0.089-0.795t-0.295-0.804-0.607-0.652-0.938-0.25q-0.589 0-1.732 0.741t-2.304 1.491-1.804 0.75q-0.482 0.018-1.134-0.339t-1.357-0.875-1.491-1.036-1.786-0.875-1.982-0.339q-2.054 0.018-3.518 1.402t-1.5 3.188q-0.036 2 1.321 2.929 0.518 0.357 1.116 0.509t1.848 0.152q1.018 0 2.357-0.58t2.393-1.268 2.143-1.259 1.661-0.554q0.464 0.018 1.161 0.563t1.277 1.196 1.214 1.205 0.991 0.571q0.625 0.054 1.045-0.25t0.991-1.125q0.5-0.732 0.759-1.804t0.259-1.893zM29.429 18.393q0 2.929-1.107 5.438t-2.964 4.214-4.33 2.67-5.188 0.964-5.232-1.027-4.42-2.804-3.045-4.313-1.143-5.393q0-1.589 0.348-3.080t0.875-2.598 1.259-2.116 1.402-1.679 1.402-1.241 1.152-0.83 0.759-0.438q0.25-0.143 0.911-0.473t0.973-0.509 0.857-0.536 1.080-0.786q0.643-0.5 1.036-1.295t0.536-2.241q2.304 2.768 3.321 3.446 0.786 0.518 2.321 1.214t2.304 1.179q0.375 0.232 0.696 0.446t1.080 0.83 1.357 1.259 1.339 1.696 1.232 2.179 0.839 2.652 0.348 3.17z"></path>
</symbol>
<symbol id="gsicon-edge" viewBox="0 0 32 32">
<title>edge</title>
<path d="M10.244 18.906c0 0.742 0.112 1.427 0.339 2.044 0.242 0.595 0.56 1.12 0.953 1.604 0.409 0.454 0.878 0.875 1.424 1.211 0.54 0.333 1.119 0.606 1.739 0.833 0.617 0.227 1.257 0.379 1.905 0.499 0.665 0.091 1.323 0.152 1.961 0.152 0.825 0 1.604-0.061 2.331-0.182 0.726-0.152 1.423-0.333 2.119-0.545 0.696-0.242 1.364-0.515 2.056-0.817 0.669-0.302 1.364-0.639 2.060-1.030v6.57c-0.787 0.393-1.568 0.723-2.331 0.999-0.787 0.272-1.547 0.515-2.342 0.696s-1.591 0.332-2.409 0.423-1.664 0.136-2.528 0.136c-1.157 0-2.287-0.136-3.368-0.409-1.075-0.265-2.089-0.636-3.042-1.15-0.95-0.499-1.817-1.12-2.604-1.817-0.795-0.726-1.468-1.544-2.032-2.422-0.571-0.908-1.011-1.883-1.319-2.936-0.311-1.060-0.463-2.18-0.463-3.39 0-1.271 0.182-2.482 0.53-3.633 0.348-1.158 0.848-2.218 1.508-3.186 0.657-0.969 1.453-1.831 2.397-2.584 0.939-0.745 2.001-1.366 3.185-1.836-0.643 0.638-1.143 1.406-1.506 2.285-0.363 0.881-0.59 1.771-0.688 2.658h11.033c0-1.115-0.106-2.084-0.348-2.916-0.211-0.833-0.576-1.529-1.089-2.074-0.515-0.554-1.15-0.969-1.953-1.241-0.807-0.272-1.763-0.416-2.893-0.416-1.333 0-2.664 0.189-3.996 0.598-1.332 0.384-2.594 0.939-3.793 1.651-1.207 0.712-2.312 1.544-3.311 2.501-1.014 0.968-1.862 2.009-2.543 3.144 0.136-1.315 0.432-2.573 0.833-3.769 0.407-1.196 0.939-2.308 1.574-3.346 0.635-1.014 1.393-1.938 2.25-2.77 0.854-0.834 1.807-1.559 2.852-2.135 1.060-0.585 2.166-1.056 3.377-1.363 1.21-0.285 2.502-0.445 3.857-0.445 0.798 0 1.591 0.069 2.384 0.216 0.787 0.139 1.544 0.337 2.301 0.592 1.484 0.51 2.815 1.227 3.996 2.136 1.18 0.923 2.149 1.967 2.965 3.163 0.789 1.196 1.395 2.515 1.819 3.956 0.413 1.44 0.629 2.933 0.629 4.487v3.855l-19.82 0.001z"></path>
</symbol>
<symbol id="gsicon-ello" viewBox="0 0 32 32">
<title>ello</title>
<path d="M16 0c-8.837 0-16 7.163-16 16s7.163 16 16 16 16-7.163 16-16-7.163-16-16-16zM25.77 18.425c-1.15 4.46-5.167 7.575-9.77 7.575s-8.62-3.115-9.77-7.576c-0.195-0.755 0.261-1.528 1.016-1.723 0.116-0.030 0.235-0.045 0.354-0.045 0.644 0 1.207 0.437 1.368 1.062 0.829 3.211 3.72 5.453 7.032 5.453s6.203-2.242 7.031-5.453c0.161-0.625 0.723-1.062 1.368-1.062 0.119 0 0.239 0.015 0.355 0.046 0.365 0.094 0.673 0.326 0.865 0.651s0.245 0.706 0.151 1.072z"></path>
</symbol>
<symbol id="gsicon-etsy" viewBox="0 0 32 32">
<title>etsy</title>
<path d="M11.456 3.26c0-0.434 0.044-0.694 0.784-0.694h9.956c1.74 0 2.696 1.48 3.39 4.26l0.566 2.22h1.696c0.304-6.306 0.566-9.046 0.566-9.046s-4.26 0.48-6.784 0.48h-12.74l-6.822-0.22v1.826l2.304 0.436c1.608 0.306 2 0.654 2.13 2.132 0 0 0.13 4.348 0.13 11.52 0 7.176-0.13 11.48-0.13 11.48 0 1.304-0.52 1.78-2.13 2.088l-2.304 0.434v1.824l6.826-0.22h11.39c2.568 0 8.524 0.22 8.524 0.22 0.13-1.566 1-8.652 1.13-9.434h-1.608l-1.696 3.868c-1.348 3.044-3.304 3.26-5.48 3.26h-6.478c-2.174 0-3.22-0.868-3.22-2.74v-9.908s4.828 0 6.394 0.13c1.22 0.086 1.956 0.434 2.348 2.13l0.52 2.26h1.87l-0.13-5.694 0.26-5.74h-1.868l-0.608 2.52c-0.392 1.654-0.654 1.96-2.348 2.132-2.22 0.22-6.436 0.176-6.436 0.176v-11.7z"></path>
</symbol>
<symbol id="gsicon-evernote" viewBox="0 0 32 32">
<title>evernote</title>
<path d="M10.15 8.191c-0.008-0.030 0-1.955 0-1.955v-5.861l-7.799 7.816h5.85c0 0 1.959 0.027 1.949 0zM27.894 4.296c-0.587-0.975-3.656-1.632-5.248-1.632s-4.105 0-4.105 0-1.371-1.921-4.458-2.223c-2.49-0.245-1.981 0.749-1.981 1.888v7.816h-7.801c0 0-1.973-0.524-1.973 0.836 0 2.523 0.336 10.738 5.783 11.554 6.444 0.965 7.414-0.625 7.414-0.977 0-1.463 0.25-3.174 0.25-3.174s2.499 2.939 5.345 2.832c2.793-0.107 3.381 1.732 3.381 3.356 0 1.625 0 3.016 0 3.016s-0.011 1.107-1.688 1.107c-1.675 0-3.099 0-3.099 0s-1.173-0.123-1.173-1.344c0-1.219 0.739-1.545 1.41-1.545 0.669 0 1.173 0.082 1.173 0.082v-2.197c0 0-5.265-0.735-5.265 3.256 0 3.984 2.094 4.68 4.357 4.68s3.687 0 3.687 0 5.77-0.059 5.77-12.752c0-12.695-1.193-13.6-1.778-14.578zM21.18 15.294c0 0 0.418-1.629 1.675-1.629s2.464 2.559 2.464 2.559-2.633-0.93-4.139-0.93z"></path>
</symbol>
<symbol id="gsicon-facebook" viewBox="0 0 18 32">
<title>facebook</title>
<path d="M17.125 1.714v4.714h-2.804q-1.536 0-2.071 0.643t-0.536 1.929v3.375h5.232l-0.696 5.286h-4.536v13.554h-5.464v-13.554h-4.554v-5.286h4.554v-3.893q0-3.321 1.857-5.152t4.946-1.83q2.625 0 4.071 0.214z"></path>
</symbol>
<symbol id="gsicon-facebook-messanger" viewBox="0 0 32 32">
<title>facebook-messanger</title>
<path d="M16.026 2.459c-7.493 0-13.567 5.659-13.567 12.64 0 3.978 1.973 7.526 5.056 9.843v4.819l4.619-2.551c1.233 0.343 2.539 0.529 3.892 0.529 7.493 0 13.567-5.659 13.567-12.64s-6.074-12.64-13.567-12.64zM17.375 19.481l-3.455-3.708-6.741 3.708 7.415-7.921 3.539 3.708 6.657-3.708-7.415 7.921z"></path>
</symbol>
<symbol id="gsicon-firefox" viewBox="0 0 32 32">
<title>firefox</title>
<path d="M31.954 10.442l-0.371 2.377c0 0-0.53-4.402-1.179-6.047-0.995-2.521-1.438-2.501-1.441-2.498 0.667 1.694 0.546 2.604 0.546 2.604s-1.181-3.219-4.303-4.243c-3.459-1.134-5.33-0.824-5.547-0.765-0.033-0-0.064-0-0.095-0 0.026 0.002 0.050 0.005 0.076 0.007-0.001 0.001-0.003 0.001-0.003 0.002 0.014 0.017 3.822 0.666 4.497 1.594 0 0-1.617 0-3.227 0.464-0.073 0.021 5.923 0.749 7.148 6.74 0 0-0.657-1.371-1.47-1.604 0.535 1.626 0.397 4.712-0.112 6.245-0.066 0.197-0.133-0.853-1.135-1.305 0.321 2.301-0.019 5.952-1.616 6.957-0.124 0.078 1.001-3.603 0.226-2.18-4.46 6.838-9.731 3.155-12.101 1.535 1.215 0.264 3.52-0.041 4.541-0.8 0.001-0.001 0.002-0.002 0.004-0.003 1.108-0.758 1.765-1.311 2.354-1.18s0.982-0.46 0.524-0.985c-0.459-0.526-1.572-1.249-3.079-0.855-1.063 0.278-2.379 1.454-4.389 0.264-1.543-0.914-1.688-1.673-1.702-2.199 0.038-0.186 0.086-0.361 0.143-0.52 0.178-0.496 0.716-0.646 1.015-0.764 0.508 0.087 0.946 0.246 1.405 0.481 0.006-0.153 0.008-0.356-0.001-0.586 0.044-0.088 0.017-0.352-0.054-0.674-0.041-0.322-0.107-0.655-0.211-0.959 0-0 0.001-0 0.001-0 0.002-0.001 0.003-0.001 0.005-0.002s0.005-0.004 0.007-0.006c0-0.001 0.001-0.001 0.001-0.002 0.003-0.004 0.005-0.008 0.006-0.015 0.032-0.144 0.376-0.423 0.804-0.722 0.383-0.268 0.834-0.553 1.19-0.774 0.314-0.195 0.554-0.34 0.605-0.378 0.019-0.015 0.042-0.032 0.068-0.051 0.005-0.004 0.009-0.007 0.014-0.011 0.003-0.002 0.006-0.005 0.009-0.007 0.169-0.135 0.421-0.389 0.474-0.924 0-0.001 0-0.002 0-0.004 0.002-0.016 0.003-0.032 0.004-0.048 0.001-0.011 0.002-0.023 0.002-0.034 0-0.009 0.001-0.018 0.001-0.027 0.001-0.021 0.002-0.043 0.002-0.065 0-0.001 0-0.002 0-0.004 0.001-0.052-0-0.106-0.003-0.163-0.002-0.032-0.004-0.060-0.009-0.086-0-0.001-0.001-0.003-0.001-0.004-0.001-0.003-0.001-0.005-0.002-0.008-0.001-0.005-0.002-0.009-0.004-0.013-0-0.001-0-0.001-0.001-0.001-0.002-0.005-0.004-0.010-0.005-0.014-0-0-0-0-0-0.001-0.055-0.128-0.26-0.177-1.108-0.191-0.001-0-0.002-0-0.002-0v0c-0.346-0.006-0.798-0.006-1.391-0.004-1.039 0.004-1.613-1.016-1.797-1.41 0.251-1.389 0.977-2.379 2.17-3.051 0.023-0.013 0.018-0.023-0.009-0.031 0.233-0.141-2.82-0.004-4.225 1.782-1.247-0.31-2.333-0.289-3.269-0.069-0.18-0.005-0.404-0.027-0.67-0.083-0.623-0.564-1.514-1.606-1.562-2.85 0 0-0.003 0.002-0.008 0.006-0.001-0.012-0.002-0.024-0.002-0.036 0 0-1.897 1.458-1.613 5.434-0.001 0.064-0.002 0.125-0.004 0.184-0.514 0.696-0.768 1.282-0.787 1.411-0.455 0.926-0.917 2.32-1.292 4.437 0 0 0.263-0.833 0.79-1.777-0.388 1.188-0.693 3.036-0.514 5.808 0 0 0.047-0.615 0.215-1.5 0.131 1.719 0.704 3.841 2.152 6.337 2.78 4.791 7.052 7.211 11.775 7.582 0.839 0.069 1.689 0.071 2.544 0.006 0.079-0.006 0.157-0.011 0.236-0.018 0.968-0.068 1.942-0.214 2.914-0.449 13.287-3.212 11.842-19.256 11.842-19.256z"></path>
</symbol>
<symbol id="gsicon-flickr" viewBox="0 0 32 32">
<title>flickr</title>
<path d="M7.877 22.4c-3.467 0-6.277-2.862-6.277-6.4s2.81-6.4 6.277-6.4c3.467 0 6.278 2.864 6.278 6.4s-2.811 6.4-6.278 6.4zM24.122 22.4c-3.469 0-6.282-2.862-6.282-6.4s2.813-6.4 6.282-6.4c3.466 0 6.278 2.864 6.278 6.4s-2.813 6.4-6.278 6.4z"></path>
</symbol>
<symbol id="gsicon-flipboard" viewBox="0 0 32 32">
<title>flipboard</title>
<path d="M0.016 0h10.32v32h-10.32v-32zM11.37 11.354h10.32v10.32h-10.32v-10.32zM11.37 0h20.646v10.32h-20.646v-10.32z"></path>
</symbol>
<symbol id="gsicon-foursquare" viewBox="0 0 23 32">
<title>foursquare</title>
<path d="M17.857 8.75l0.661-3.464q0.089-0.411-0.161-0.714t-0.625-0.304h-12.714q-0.411 0-0.688 0.304t-0.277 0.661v19.661q0 0.125 0.107 0.018l5.196-6.286q0.411-0.464 0.679-0.598t0.857-0.134h4.268q0.393 0 0.661-0.259t0.321-0.527q0.429-2.321 0.661-3.411 0.071-0.375-0.205-0.714t-0.652-0.339h-5.25q-0.518 0-0.857-0.339t-0.339-0.857v-0.75q0-0.518 0.339-0.848t0.857-0.33h6.179q0.321 0 0.625-0.241t0.357-0.527zM21.911 4.786q-0.268 1.304-0.955 4.759t-1.241 6.25-0.625 3.098q-0.107 0.393-0.161 0.58t-0.25 0.58-0.438 0.589-0.688 0.375-1.036 0.179h-4.839q-0.232 0-0.393 0.179-0.143 0.161-7.607 8.821-0.393 0.446-1.045 0.509t-0.866-0.098q-0.982-0.393-0.982-1.75v-25.179q0-0.982 0.679-1.83t2.143-0.848h15.857q1.696 0 2.268 0.946t0.179 2.839zM21.911 4.786l-2.821 14.107q0.071-0.304 0.625-3.098t1.241-6.25 0.955-4.759z"></path>
</symbol>
<symbol id="gsicon-github" viewBox="0 0 32 32">
<title>github</title>
<path d="M0 15.968q0-3.264 1.28-6.208 2.528-5.952 8.48-8.48 2.944-1.28 6.208-1.28t6.208 1.28q5.888 2.496 8.48 8.48 1.28 3.040 1.28 6.208t-1.28 6.208q-2.592 6.016-8.48 8.544-2.944 1.28-6.208 1.28t-6.208-1.28q-5.952-2.56-8.48-8.544-1.28-2.944-1.28-6.208zM2.496 15.968q0 4.512 2.688 8.064 2.656 3.488 6.944 4.96v-2.56q0-1.92 1.28-2.784-0.64-0.032-1.504-0.224-1.632-0.288-2.784-1.024-2.912-1.76-2.912-6.368 0-2.4 1.6-4.096-0.736-1.888 0.16-4.096h0.64q0.32 0 0.8 0.16 1.248 0.384 2.784 1.408 1.952-0.512 3.84-0.512t3.872 0.512q1.248-0.832 2.336-1.28 1.024-0.384 1.472-0.32l0.384 0.032q0.864 2.208 0.16 4.096 1.6 1.696 1.6 4.096 0 3.584-1.76 5.408-0.96 1.024-2.528 1.6-1.312 0.48-2.912 0.608 1.312 0.928 1.312 2.784v2.56q4.128-1.472 6.816-5.024 2.624-3.52 2.624-8 0-2.72-1.056-5.248-1.024-2.432-2.88-4.288-1.792-1.792-4.288-2.848-2.56-1.088-5.216-1.088-2.624 0-5.248 1.088-2.4 1.024-4.288 2.848-1.792 1.856-2.88 4.288-1.056 2.528-1.056 5.248z"></path>
</symbol>
<symbol id="gsicon-gitlab" viewBox="0 0 32 32">
<title>gitlab</title>
<path d="M15.994 30.015v0l5.605-17.247h-11.21l5.605 17.247zM2.535 12.768v0l-1.706 5.24c-0.154 0.476 0.012 1.001 0.42 1.298l14.738 10.709-13.453-17.247zM2.535 12.768h7.854l-3.374-10.388c-0.173-0.531-0.927-0.531-1.106 0l-3.374 10.388zM29.447 12.768v0l1.706 5.24c0.154 0.476-0.012 1.001-0.42 1.298l-14.738 10.709 13.453-17.247zM29.447 12.768h-7.854l3.374-10.388c0.173-0.531 0.927-0.531 1.106 0l3.374 10.388z"></path>
</symbol>
<symbol id="gsicon-google" viewBox="0 0 32 32">
<title>google</title>
<path d="M16.32 13.714v5.486h9.074c-0.366 2.354-2.74 6.9-9.074 6.9-5.46 0-9.92-4.52-9.92-10.1s4.46-10.1 9.92-10.1c3.108 0 5.188 1.32 6.38 2.466l4.34-4.184c-2.788-2.602-6.4-4.182-10.72-4.182-8.846 0-16 7.154-16 16s7.154 16 16 16c9.234 0 15.36-6.492 15.36-15.634 0-1.052-0.114-1.852-0.252-2.652h-15.108z"></path>
</symbol>
<symbol id="gsicon-google-plus" viewBox="0 0 32 32">
<title>google-plus</title>
<path d="M10.18 14.546v3.49h5.78c-0.232 1.5-1.746 4.394-5.774 4.394-3.474 0-6.31-2.88-6.31-6.43s2.83-6.43 6.304-6.43c1.98 0 3.304 0.844 4.060 1.572l2.764-2.66c-1.774-1.66-4.074-2.66-6.82-2.66-5.634-0.002-10.184 4.546-10.184 10.178s4.552 10.18 10.18 10.18c5.88 0 9.776-4.13 9.776-9.948 0-0.668-0.072-1.18-0.16-1.686h-9.616zM32 14.546h-2.91v-2.91h-2.91v2.91h-2.908v2.908h2.91v2.91h2.91v-2.91h2.908z"></path>
</symbol>
<symbol id="gsicon-google-drive" viewBox="0 0 32 32">
<title>google-drive</title>
<path d="M14.354 20.62l-5.333 9.24h17.645l5.333-9.24zM30.488 18l-9.154-15.859h-10.667l9.155 15.859zM9.151 4.766l-9.151 15.854 5.334 9.24 9.151-15.854z"></path>
</symbol>
<symbol id="gsicon-grooveshark" viewBox="0 0 32 32">
<title>grooveshark</title>
<path d="M14.337 2.5c-3.874 0.412-6.743 2.318-8.674 4.555-1.913 2.212-3.576 5.423-3.505 9.435 0.071 3.978 1.676 6.992 3.721 9.218 2.488 2.712 6.399 4.724 11.385 4.339 7.122-0.55 12.734-6.456 12.577-14.207-0.075-3.686-2.031-7.191-3.793-9.111-2.648-2.885-6.598-4.776-11.711-4.228zM21.602 16.815c-2.934-3.742-5.16-7.163-10.517-8.677 0.122 3.11 0.47 6.577-1.409 8.786-0.844 0.99-2.531 2.088-3.796 1.517-1.281-0.579-0.919-3.101-0.541-4.771 1.031-4.574 4.823-8.117 9.866-8.46 4.495-0.308 8.367 2.285 10.084 5.097 0.881 1.447 1.684 3.921 1.627 5.966-0.128 4.438-3.471 2.895-5.315 0.541z"></path>
</symbol>
<symbol id="gsicon-houzz" viewBox="0 0 32 32">
<title>houzz</title>
<path d="M25.24 16v10.666l-9.24 5.334v-10.668l-9.24 5.336v-21.336l9.24-5.332v10.668l-9.236 5.332 9.236 5.332v-10.664l9.24-5.336v10.668z"></path>
</symbol>
<symbol id="gsicon-html5" viewBox="0 0 32 32">
<title>html5</title>
<path d="M4.462 3.209l1.262 13.986 0.053-0.105h15.773l-0.526 5.941-5.048 1.42-5.1-1.472-0.315-3.575h-4.627l0.631 7.151 9.411 2.681 9.412-2.681 1.314-14.038h-16.773l-0.421-4.68h17.614l0.421-4.627z"></path>
</symbol>
<symbol id="gsicon-html5-box" viewBox="0 0 25 32">
<title>html5-box</title>
<path d="M20.179 10.661l0.286-3.125h-15.786l0.839 9.536h10.929l-0.393 4.071-3.518 0.946-3.5-0.946-0.232-2.5h-3.125l0.393 4.964 6.464 1.786h0.071v-0.018l6.411-1.768 0.893-9.714h-11.5l-0.268-3.232h12.036zM0 2.286h25.143l-2.286 25.679-10.321 2.893-10.25-2.893z"></path>
</symbol>
<symbol id="gsicon-icloud" viewBox="0 0 32 32">
<title>icloud</title>
<path d="M26.703 14.732l-0.474-0.118v-0.474c0-4.261-3.433-7.694-7.575-7.694-3.078 0-5.918 1.894-7.102 4.735l-0.355 0.829-0.592-0.592c-0.592-0.592-1.421-0.947-2.249-0.947-1.775 0-3.196 1.42-3.196 3.196l0.118 0.71-0.473 0.118c-2.249 0.71-3.788 2.722-3.788 4.971 0 2.841 2.367 5.208 5.208 5.208h19.649c2.722 0 5.090-2.249 5.090-5.090-0.118-2.367-1.775-4.38-4.261-4.853z"></path>
</symbol>
<symbol id="gsicon-instagram" viewBox="0 0 32 32">
<title>instagram</title>
<path d="M16 4.108c3.869 0 4.33 0.015 5.857 0.085 1.413 0.065 2.183 0.299 2.692 0.498 0.633 0.234 1.2 0.604 1.668 1.088 0.48 0.468 0.852 1.036 1.086 1.667 0.2 0.511 0.435 1.281 0.497 2.692 0.073 1.528 0.086 1.987 0.086 5.859 0 3.87-0.013 4.33-0.086 5.857-0.061 1.413-0.297 2.183-0.497 2.692-0.488 1.265-1.489 2.265-2.754 2.754-0.509 0.2-1.281 0.435-2.692 0.497-1.526 0.073-1.987 0.086-5.857 0.086-3.872 0-4.329-0.013-5.859-0.086-1.413-0.061-2.181-0.297-2.692-0.497-0.631-0.233-1.198-0.604-1.668-1.086-0.481-0.465-0.851-1.036-1.087-1.668-0.198-0.509-0.433-1.281-0.497-2.692-0.071-1.526-0.085-1.987-0.085-5.857 0-3.872 0.014-4.329 0.085-5.859 0.065-1.412 0.298-2.181 0.497-2.692 0.234-0.63 0.604-1.198 1.088-1.667 0.468-0.482 1.036-0.853 1.667-1.088 0.511-0.198 1.28-0.433 2.692-0.498 1.53-0.069 1.986-0.085 5.859-0.085zM16 1.496c-3.939 0-4.431 0.018-5.979 0.088-1.543 0.071-2.595 0.315-3.517 0.673-0.97 0.365-1.845 0.935-2.57 1.673-0.74 0.725-1.308 1.6-1.675 2.569-0.356 0.922-0.602 1.976-0.673 3.519-0.069 1.545-0.087 2.039-0.087 5.977 0 3.936 0.018 4.432 0.088 5.977 0.071 1.543 0.316 2.595 0.673 3.521 0.365 0.968 0.935 1.845 1.673 2.568 0.725 0.739 1.6 1.308 2.569 1.673 0.922 0.356 1.976 0.604 3.517 0.671 1.55 0.076 2.040 0.090 5.98 0.090s4.432-0.015 5.98-0.090c1.541-0.066 2.593-0.314 3.52-0.671 1.947-0.754 3.486-2.294 4.24-4.241 0.356-0.926 0.604-1.978 0.671-3.52 0.076-1.546 0.090-2.041 0.090-5.977 0-3.938-0.015-4.431-0.090-5.977-0.066-1.544-0.314-2.596-0.671-3.519-0.364-0.97-0.935-1.845-1.673-2.57-0.724-0.738-1.601-1.307-2.568-1.673-0.926-0.357-1.978-0.602-3.52-0.673-1.546-0.071-2.041-0.088-5.977-0.088v0 0zM15.896 8.419c-4.083 0-7.394 3.309-7.394 7.395 0 4.083 3.311 7.39 7.394 7.39s7.397-3.308 7.397-7.39v0c0-4.087-3.314-7.395-7.397-7.395zM15.896 20.613c-2.649 0-4.8-2.149-4.8-4.8 0-2.652 2.151-4.8 4.8-4.8 2.652 0 4.801 2.149 4.801 4.8 0 2.652-2.149 4.8-4.801 4.8zM23.583 6.401c0.956 0 1.725 0.771 1.725 1.726s-0.769 1.727-1.725 1.727c-0.952 0-1.73-0.774-1.73-1.727 0-0.956 0.777-1.726 1.73-1.726z"></path>
</symbol>
<symbol id="gsicon-ie" viewBox="0 0 32 32">
<title>ie</title>
<path d="M23.444 19.151h7.377c0.057-0.512 0.080-1.034 0.080-1.569 0-2.507-0.673-4.858-1.848-6.883 1.215-3.228 1.172-5.968-0.455-7.606-1.547-1.54-5.697-1.29-10.388 0.787-0.347-0.026-0.697-0.040-1.051-0.040-6.439 0-11.841 4.431-13.335 10.402 2.020-2.586 4.145-4.461 6.984-5.827-0.258 0.242-1.764 1.739-2.018 1.993-7.486 7.484-9.847 17.26-7.306 19.8 1.931 1.93 5.43 1.604 9.449-0.364 1.869 0.952 3.984 1.488 6.226 1.488 6.035 0 11.15-3.885 13.003-9.295h-7.433c-1.023 1.887-3.023 3.171-5.319 3.171s-4.296-1.284-5.319-3.171c-0.455-0.852-0.716-1.83-0.716-2.864v-0.023h12.071zM11.384 15.525c0.171-3.035 2.694-5.456 5.774-5.456s5.604 2.421 5.774 5.456h-11.548zM28.53 4.619c1.048 1.059 1.021 3.007 0.125 5.438-1.535-2.341-3.766-4.186-6.4-5.239 2.816-1.207 5.106-1.367 6.274-0.199zM3.421 29.727c-1.337-1.337-0.934-4.144 0.788-7.526 1.072 3.008 3.161 5.534 5.854 7.161-2.982 1.354-5.423 1.584-6.643 0.365z"></path>
</symbol>
<symbol id="gsicon-joomla" viewBox="0 0 32 32">
<title>joomla</title>
<path d="M21.607 19.161l-2.857 2.857-2.696 2.714-0.536 0.536q-1.161 1.143-2.705 1.554t-3.063 0.036q-0.286 1.25-1.286 2.054t-2.304 0.804q-1.518 0-2.589-1.080t-1.071-2.598q0-1.286 0.795-2.286t2.027-1.286q-0.393-1.536 0.018-3.089t1.571-2.714l0.214-0.214 2.696 2.714-0.196 0.196q-0.661 0.661-0.661 1.589t0.661 1.607q0.661 0.661 1.589 0.661t1.589-0.661l0.536-0.536 2.696-2.714 2.875-2.857zM15.518 6.982l0.214 0.214-2.714 2.714-0.214-0.214q-0.661-0.661-1.589-0.661t-1.589 0.661-0.661 1.598 0.661 1.598l6.089 6.089-2.696 2.714-2.875-2.857-2.696-2.714-0.536-0.536q-1.214-1.196-1.607-2.848t0.089-3.205q-1.25-0.268-2.054-1.268t-0.804-2.304q0-1.518 1.071-2.598t2.589-1.080q1.357 0 2.384 0.875t1.241 2.196q1.5-0.357 3.027 0.063t2.67 1.563zM29.929 26.036q0 1.518-1.071 2.598t-2.589 1.080q-1.321 0-2.339-0.839t-1.268-2.107q-1.536 0.5-3.205 0.107t-2.884-1.607l-0.196-0.214 2.696-2.714 0.214 0.214q0.661 0.661 1.589 0.661t1.589-0.661 0.661-1.589-0.661-1.589l-6.107-6.107 2.714-2.714 5.571 5.571 0.518 0.536q1.143 1.143 1.563 2.688t0.045 3.063q1.357 0.196 2.259 1.223t0.902 2.402zM29.893 5.964q0 1.375-0.911 2.411t-2.268 1.232q0.464 1.518 0.054 3.152t-1.607 2.83l-0.214 0.214-2.696-2.714 0.214-0.214q0.661-0.661 0.661-1.589t-0.661-1.589-1.589-0.661-1.589 0.661l-6.107 6.107-2.714-2.714 2.875-2.857 2.714-2.714 0.518-0.536q1.196-1.196 2.839-1.598t3.179 0.063q0.196-1.339 1.223-2.25t2.42-0.911q1.518 0 2.589 1.080t1.071 2.598z"></path>
</symbol>
<symbol id="gsicon-lastfm" viewBox="0 0 32 32">
<title>lastfm</title>
<path d="M23.071 12.571q0 0.107 0.179 0.732 0.179 0.518 0.446 0.884t0.732 0.607 0.786 0.357 0.982 0.295q5.804 1.625 5.804 5.929 0 2.607-1.884 4.33t-4.545 1.723q-1.054 0-1.991-0.33t-1.634-0.813-1.375-1.33-1.125-1.563-0.955-1.848-0.777-1.839-0.705-1.902-0.634-1.696q-0.571-1.446-1.098-2.384t-1.313-1.723-1.857-1.143-2.536-0.357q-1.714 0-3.268 0.991t-2.464 2.58-0.911 3.304q0 2.857 1.902 4.991t4.705 2.134q3.161 0 4.607-1.696 1-1.125 1.482-2.071l1.5 2.714q-0.268 0.607-0.786 1.25l0.018 0.018q-2.339 2.714-6.929 2.714-2.625 0-4.813-1.411t-3.402-3.705-1.214-4.902q0-1.875 0.777-3.679t2.071-3.152 3.071-2.17 3.652-0.821q1.554 0 2.839 0.339t2.205 0.893 1.696 1.429 1.295 1.768 1.045 2.089 0.902 2.223 0.893 2.33 0.982 2.268q1.714 3.571 4.161 3.571 1.446 0 2.473-0.866t1.027-2.295q0-0.75-0.339-1.286t-0.902-0.821-1.295-0.563-1.509-0.482-1.563-0.607-1.446-0.929-1.161-1.464-0.696-2.188q-0.054-0.286-0.054-0.589 0-1.964 1.563-3.429t3.545-1.393q1.393 0.054 2.152 0.259t1.616 0.955h-0.018q0.214 0.196 0.411 0.438t0.464 0.643 0.339 0.491l-2.304 1.768q-0.464-0.875-0.964-1.25v-0.018q-0.411-0.375-1.732-0.375-0.875 0-1.5 0.589t-0.625 1.482z"></path>
</symbol>
<symbol id="gsicon-linkedin" viewBox="0 0 32 32">
<title>linkedin</title>
<path d="M8.732 11.161v17.696h-5.893v-17.696h5.893zM9.107 5.696q0.018 1.304-0.902 2.179t-2.42 0.875h-0.036q-1.464 0-2.357-0.875t-0.893-2.179q0-1.321 0.92-2.188t2.402-0.866 2.375 0.866 0.911 2.188zM29.929 18.714v10.143h-5.875v-9.464q0-1.875-0.723-2.938t-2.259-1.063q-1.125 0-1.884 0.616t-1.134 1.527q-0.196 0.536-0.196 1.446v9.875h-5.875q0.036-7.125 0.036-11.554t-0.018-5.286l-0.018-0.857h5.875v2.571h-0.036q0.357-0.571 0.732-1t1.009-0.929 1.554-0.777 2.045-0.277q3.054 0 4.911 2.027t1.857 5.938z"></path>
</symbol>
<symbol id="gsicon-mailchimp" viewBox="0 0 32 32">
<title>mailchimp</title>
<path d="M26.349 27.44c-0.127 0 0.059 0.313-0.127 0.251 0-0.127 0-0.251 0-0.38 0.056 0 0.111 0 0.167 0 0.021 0.076 0.021 0.176 0.085 0.215 0.088-0.072 0.036-0.281 0.255-0.215 0 0.128 0 0.252 0 0.38-0.153 0.044-0.060-0.162-0.086-0.251-0.101 0.024-0.093 0.157-0.127 0.251-0.153 0.017-0.095-0.184-0.166-0.251zM26.012 27.69c-0.151-0.052-0.064-0.333-0.216-0.38 0.125 0 0.252 0 0.381 0-0.113 0.067-0.116 0.249-0.165 0.38zM23.471 15.114c0.003 0.315-0.014 0.612-0.34 0.591-0.534-0.15 0.010-1.161 0.34-0.591zM23.213 14.265c-0.249-0.108-0.528-0.177-0.887-0.172-0.1-0.413-0.226-1.039 0.084-1.311 0.596 0.168 0.7 0.828 0.803 1.484zM22.282 16.042c-0.335 0.212-0.9 0.020-0.804-0.462 0.292-0.283 0.862-0.046 0.847 0.38-0.043 0-0.038 0.051-0.044 0.082zM22.154 7.697h0.001c0 0-0.001 0-0.001 0zM19.785 15.284c-0.535 0.064-0.928-0.376-1.654-0.257-0.491 0.050-0.78 0.296-1.27 0.34 0.367-1.037 2.484-1.094 2.924-0.083zM19.658 15.96c-0.722-0.071-1.183 0.124-1.7 0.256 0.145-0.594 1.365-0.813 1.7-0.256zM20.883 6.852c-0.363-0.302-0.853-0.478-1.4-0.594-0.084 0.118 0.379 0.271 0.258 0.425-0.415-0.178-1.265-0.334-1.782-0.128 0.207 0.052 0.571 0.163 0.555 0.297-0.925-0.101-1.967-0.001-2.499 0.424 0.342-0.006 0.685-0.009 0.89 0.125-0.78 0.143-1.448 0.389-1.952 0.804 0.26 0.050 0.571-0.075 0.717 0-1.613 0.915-2.864 2.19-3.811 3.773 2.068-2.299 4.44-4.292 8.393-4.702 0.778-0.006 1.412 0.131 1.901 0.42 0 0 0.001 0 0.001 0h-0.001c-0.236-0.638-0.784-0.963-1.437-1.183-0.093 0.065 0.27 0.26 0.167 0.338zM14.359 5.961c-1.885 1.728-3.547 3.681-4.828 6.017 3.259-3.687 6.133-7.763 11.305-9.534-1.516 0.142-2.548 0.778-3.637 1.355-0.54-0.394-1.022-0.842-1.528-1.269-0.207 0.061-0.382 0.153-0.59 0.212-0.179-0.047-0.402-0.049-0.635-0.042-3.043 0.726-4.839 2.7-6.651 4.659-1.717 2.068-3.33 4.237-3.938 7.415 0 0.238 0 0.475 0 0.718 0.064 0.205 0.097 0.439 0.169 0.639 0.031 0.007 0.048 0.031 0.040 0.084 0.351 0.413 0.817 0.706 1.231 1.060 0.45-0.431 0.805-0.948 1.396-1.234 1.396-4.492 4.254-7.746 7.667-10.081zM17.791 11.302c-2.123 0.092-3.082 1.763-2.67 4.104-0.153-0.045-0.478-0.494-0.465-0.292 0.169 0.947 0.727 1.499 1.31 2.034-0.128 0.026-0.364-0.053-0.419 0.036 0.377 0.257 0.729 0.541 1.228 0.675-0.924 0.934-1.67 2.037-1.526 4.029 0.115 0.135 0.336-0.505 0.298-0.252-0.012 0.744-0.009 1.471 0.291 1.902 0.104-0.276 0.232-0.527 0.385-0.759 0.027 0.819 0.168 1.529 0.552 1.989 0-0.244 0.012-0.461 0.085-0.635 0.255 0.577 0.574 1.089 0.976 1.526 0.738 0.601 1.796 0.885 3.092 0.934 3.957-0.306 6.253-2.275 7.282-5.509 0.217-0.222 0.377-0.501 0.338-0.974-0.13-0.3-0.589-0.419-1.015-0.295-0.043-0.647-0.196-1.186-0.425-1.653-1.856 1.687-4.334 2.754-7.789 2.835-0.227 0.149-0.364 0.38-0.383 0.721 1.994 0.488 4.076-0.18 5.631-0.677-1.3 0.892-3.395 1.379-5.586 1.099 0.028 0.2 0.161 0.287 0.209 0.468 0.334 0.304 0.816 0.456 1.398 0.511 0.348 0 0.705 0 1.056 0 1.336-0.151 2.434-0.534 3.434-1.015 0.978-0.464 1.88-1.221 2.667-1.739-1.626 1.919-3.793 3.296-7.376 3.261-1.107-0.172-1.926-0.639-1.985-1.861 0.076-0.692 0.379-1.144 0.968-1.316 0.434 0.021 0.748-0.076 1.189-0.046 1.622-0.159 3.012-0.549 4.151-1.18 0.604-0.285 1.088-0.696 1.609-1.060 0.389-0.497 1.036-0.747 1.189-1.48-0.1-0.303-0.311-0.484-0.723-0.467-0.595-0.834-1.725-1.127-2.585-1.696-0.008-0.062-0.066-0.074-0.084-0.129-0.49-1.502 0.078-4.061-1.564-4.404-1.35 0.060-1.527 1.294-2.879 1.356-0.638-0.004-1.297 0.024-1.867-0.041zM25.966 26.548c-1.641 1.646-3.812 2.767-7.029 2.838-5.226-0.215-8.088-2.788-10.252-6.058-0.388 0.022-0.713-0.023-1.018-0.083-2.053-0.493-3.448-2.566-2.754-5.129-0.521-0.549-1.266-0.877-1.692-1.527-0.188-0.4-0.299-0.88-0.34-1.435 0.42-3.775 2.373-6.016 4.194-8.388 2.061-2.117 3.88-4.478 7.5-5.041 0.351 0.032 0.667 0.091 0.974 0.172 0.59 0.325 1.058 0.768 1.567 1.184 1.229-0.701 2.514-1.357 4.316-1.481 1.7 0.041 2.668 0.81 2.844 2.372 0.001 1.907-0.716 3.1-1.444 4.28 0.433 0.679 0.886 1.34 1.398 1.948 0.518 0.936 0.46 2.452 0.677 3.684 1.172 0.533 2.118 1.3 3.18 1.947 0.149 0.267 0.326 0.52 0.34 0.934-0.040 0.487-0.269 0.778-0.513 1.060 0.201 0.264 0.291 0.639 0.384 1.015 0.432 0.214 0.859 0.438 1.060 0.885 0.034 0.123 0.008 0.304 0.082 0.386-0.276 1.375-0.851 2.459-1.353 3.602-0.607 1.043-1.258 2.049-2.12 2.836zM6.227 21.427c1.484 2.008 5.199 0.808 5.043-1.951-0.030-0.154-0.061-0.306-0.044-0.508-0.219 0.086-0.186 0.438-0.382 0.548 0.071-0.604-0.047-1.39-0.297-1.819-0.082 0.21-0.069 0.522-0.253 0.632-0.058-0.687-0.306-1.194-0.679-1.564-0.426-0.18-0.914-0.303-1.566-0.256-1.4 0.3-2.215 1.171-2.458 2.622 0 0.229 0 0.458 0 0.685 0.082 0.663 0.354 1.147 0.636 1.611zM16.649 4.099c-0.014 0.188-0.251 0.148-0.299 0.296-0.149-0.162-0.123-0.5-0.254-0.679 0.151-0.006 0.329 0.32 0.553 0.383zM16.014 4.564c-0.098 0.134-0.219 0.233-0.386 0.298-0.296-0.16-0.493-0.409-0.761-0.595 0.309 0 0.747 0.244 1.147 0.296zM15.38 3.8c-0.045 0.080-0.217-0.064-0.344-0.041-0.12-0.271-0.085-0.653 0.044-0.889 0.133 0.276 0.17 0.649 0.299 0.929zM15.080 5.285c-0.1 0.156-0.299 0.208-0.384 0.381-0.504-0.414-0.952-0.88-1.482-1.271 0-0.251-0.070-0.436-0.080-0.679 0.676 0.494 1.272 1.071 1.946 1.569zM10.039 19.937c0.043 0.895-0.337 1.364-1.228 1.316-0.096-0.104-0.279-0.111-0.34-0.255 0.604 0.043 1.218-0.162 1.144-0.932-0.152-0.524-0.904-0.446-0.889-1.143 0.049-0.233 0.169-0.394 0.467-0.376 0.12 0.159-0.235 0.139-0.169 0.376 0.233 0.443 0.9 0.459 1.016 1.015zM9.32 17.742c0.238 0.189 0.758 0.861 0.252 1.143-0.291-1.476-2.793-0.9-2.498 0.713 0.012 0.305 0.136 0.486 0.169 0.767-0.524-0.052-0.543-0.616-0.636-1.105 0.013-0.441 0.164-0.737 0.298-1.056 0.402-0.405 0.818-0.793 1.694-0.717 0.282 0.038 0.489 0.158 0.721 0.255z"></path>
</symbol>
<symbol id="gsicon-meerkat" viewBox="0 0 32 32">
<title>meerkat</title>
<path d="M10.17 3.594c2.102-0.631 4.351-0.993 6.523-0.524 1.471 0.316 2.818 1.078 3.943 2.056 1.363 1.147 2.665 2.372 3.912 3.635 0.293 0.277 0.57 0.57 0.893 0.801 0.639 0.454 1.271 0.94 2.002 1.224 0.454 0.2 0.947 0.223 1.409 0.377 0.97 0.293 1.987 0.716 2.564 1.594 0.447 0.631 0.331 1.456 0.254 2.172-0.154 1.209-0.678 2.449-1.717 3.142-0.94 0.701-1.91 1.363-2.965 1.871-1.224 0.601-2.541 1.009-3.889 1.224-1.694 0.277-3.435 0.162-5.121 0.493-0.308 0.046-0.593 0.254-0.685 0.554-0.616 1.918-0.493 3.966-0.37 5.945h-2.064c-0.093-1.532-0.177-3.080 0.039-4.605 0.146-0.932 0.308-1.902 0.816-2.711 0.454-0.739 1.317-1.078 2.133-1.248 1.941-0.37 3.958-0.154 5.883-0.639 0.069-0.023 0.169 0 0.2-0.092-1.070-0.346-2.095-0.824-3.050-1.409-0.362-0.192-0.331-0.785 0.054-0.924 0.27-0.131 0.524 0.054 0.732 0.2 1.24 0.701 2.58 1.247 3.974 1.54 1.14-0.439 2.148-1.178 3.134-1.894-0.701-1.086-1.394-2.241-1.709-3.519-1.209-0.447-2.302-1.194-3.304-2.002-0.801-0.732-1.548-1.525-2.349-2.264-0.747-0.716-1.525-1.402-2.318-2.072-0.878-0.739-1.941-1.278-3.073-1.509-1.286-0.27-2.618-0.139-3.897 0.146-1.448 0.331-2.842 0.855-4.205 1.432-0.947 0.416-1.894 0.832-2.764 1.394-0.785 0.501-1.509 1.14-1.979 1.956-0.508 0.87-0.662 1.894-0.662 2.896 0.077 1.925 0.67 3.781 0.932 5.691 0.501 3.181 0.578 6.415 0.524 9.634h-2.064c-0.023-0.947 0.092-1.895 0-2.842 0.008-3.088-0.347-6.161-1.001-9.172-0.239-1.194-0.454-2.403-0.431-3.619-0.015-1.232 0.308-2.464 0.932-3.527 0.732-1.255 1.848-2.241 3.073-3.003 1.086-0.662 2.264-1.147 3.442-1.625 0.74-0.285 1.486-0.562 2.249-0.778zM8.661 8.892c0.986-0.108 1.979 0.239 2.78 0.809 0.762 0.562 1.394 1.325 1.756 2.202 0.085 0.316 0.3 0.716 0.046 1.009-0.193 0.231-0.601 0.154-0.716-0.123-0.185-0.608-0.639-1.093-1.093-1.532-0.639-0.57-1.471-1.009-2.349-0.978-0.809 0.015-1.532 0.454-2.126 0.97-0.601 0.539-1.032 1.301-1.032 2.118-0.031 1.332 0.816 2.533 1.864 3.273 0.354 0.277 0.046 0.893-0.393 0.77-1.787-0.747-3.042-2.711-2.803-4.659 0.192-1.494 1.278-2.757 2.595-3.427 0.462-0.223 0.963-0.377 1.471-0.431zM19.203 10.24c0.608-0.493 1.533-0.508 2.172-0.069 0.57 0.354 0.863 1.094 0.678 1.74-0.246 0.963-1.417 1.502-2.326 1.147-0.169-0.046-0.308-0.162-0.462-0.216-0.377 0.031-0.755-0.008-1.132-0.054-0.223-0.038-0.262-0.385-0.038-0.462 0.223-0.015 0.447 0.008 0.67 0.015 0.038-0.116-0.085-0.208-0.1-0.323-0.239-0.624 0.008-1.378 0.539-1.779z"></path>
</symbol>
<symbol id="gsicon-medium" viewBox="0 0 32 32">
<title>medium</title>
<path d="M10.682 28.472c0 0.908-0.664 1.32-1.476 0.914l-8.304-4.152c-0.486-0.244-0.886-0.89-0.886-1.434v-20.356c0-0.726 0.532-1.054 1.18-0.73l9.45 4.726c0.026 0.010 0.046 0.030 0.060 0.054l3.672 5.96 6.454-10.486c0.252-0.41 0.774-0.6 1.226-0.47 0.048 0.010 0.094 0.028 0.144 0.050l0.036 0.016 9.662 4.836c0.010 0.004 0.020 0.010 0.026 0.020 0.056 0.040 0.090 0.108 0.090 0.18v20.872c0 0.912-0.794 1.254-1.772 0.766l-19.562-9.784v9.018z"></path>
</symbol>
<symbol id="gsicon-mix" viewBox="0 0 32 32">
<title>mix</title>
<path d="M2.285 17.573v9.619c0 1.481 1.23 2.683 2.746 2.683 1.515 0 2.745-1.203 2.745-2.683v-14.711c-0.159 2.832-2.556 5.092-5.491 5.092z"></path>
<path d="M29.552 2.875c-5.991 0-10.845 4.741-10.845 10.59v3.291c0-1.48 1.233-2.685 2.755-2.685s2.753 1.205 2.753 2.685v1.368c0 1.488 1.233 2.693 2.746 2.693 1.521 0 2.755-1.205 2.755-2.694v-15.246c-0.055-0.001-0.109-0.002-0.164-0.002z"></path>
<path d="M2.285 17.654c2.932 0 5.327-2.262 5.481-5.096v-2.522c0-0.073 0.007-0.14 0.011-0.208 0.107-1.392 1.288-2.484 2.732-2.484 1.514 0 2.743 1.205 2.743 2.691v10.523c0 1.493 1.224 2.696 2.738 2.696 1.515 0 2.742-1.203 2.743-2.695v-7.079c0-5.855 4.841-10.605 10.799-10.605h-27.247v14.779z"></path>
</symbol>
<symbol id="gsicon-myspace" viewBox="0 0 32 32">
<title>myspace</title>
<path d="M26.547 16h-21.094v-3.516h-3.516v7.031h28.125v-7.031h-3.516z"></path>
</symbol>
<symbol id="gsicon-opera" viewBox="0 0 32 32">
<title>opera</title>
<path d="M10.734 6.984c-1.77 2.088-2.914 5.176-2.994 8.64v0.752c0.080 3.464 1.224 6.552 2.994 8.64 2.294 2.98 5.706 4.87 9.52 4.87 2.34 0 4.534-0.714 6.408-1.96-2.828 2.534-6.562 4.074-10.662 4.074-0.256 0-0.51-0.006-0.76-0.020-8.486-0.394-15.24-7.4-15.24-15.98 0-8.84 7.164-16 16-16h0.060c4.074 0.016 7.788 1.554 10.604 4.072-1.876-1.24-4.068-1.96-6.412-1.96-3.812 0-7.224 1.892-9.52 4.872zM32 16c0 4.74-2.060 8.996-5.336 11.926-4.104 2-7.928 0.6-9.194-0.274 4.030-0.884 7.076-5.76 7.076-11.652 0-5.896-3.046-10.768-7.076-11.654 1.264-0.872 5.090-2.272 9.194-0.274 3.276 2.928 5.336 7.188 5.336 11.928z"></path>
</symbol>
<symbol id="gsicon-patreon" viewBox="0 0 32 32">
<title>patreon</title>
<path d="M0.016 15.56c0-7.454 6.054-14.44 14.036-15.44 5.72-0.666 10.046 1.53 13.040 4.392 2.792 2.66 4.456 6.056 4.856 10.050 0.332 3.994-0.532 7.456-2.86 10.72-2.328 3.192-6.92 6.72-12.64 6.72h-7.784v-15.376c0.068-3.394 1.2-6.324 5.32-7.72 3.594-1.066 7.786 0.93 9.050 4.724 1.328 4.060-0.6 6.79-2.86 8.454-2.264 1.664-5.79 1.664-8.12 0.066v5.26c1.532 0.73 3.46 0.93 4.86 0.86 5.052-0.73 8.98-3.592 10.64-7.92 1.732-4.59 0.534-9.914-3.060-13.24-4.32-3.53-9.046-4.394-14.1-1.932-3.526 1.796-5.988 5.456-6.588 9.448v17.374h-3.724l-0.066-16.44z"></path>
</symbol>
<symbol id="gsicon-paypal" viewBox="0 0 32 32">
<title>paypal</title>
<path d="M19.857 8.964q0-2.839-4.232-2.839h-1.25q-0.571 0-1.063 0.384t-0.616 0.938l-1.125 4.929q-0.036 0.089-0.036 0.286 0 0.429 0.304 0.705t0.732 0.277h0.946q1.232 0 2.295-0.232t2.009-0.732 1.491-1.455 0.545-2.259zM30.643 11.679q0 4.732-3.929 7.643-3.911 2.875-10.929 2.875h-1.089q-0.571 0-1.054 0.384t-0.607 0.938l-1.304 5.643q-0.143 0.643-0.723 1.098t-1.241 0.455h-3.804q-0.554 0-0.946-0.357t-0.393-0.911q0-0.179 0.232-1.161h2.696q0.607 0 1.143-0.42t0.679-1.009l1.304-5.643q0.143-0.589 0.67-1.018t1.134-0.429h1.089q6.964 0 10.839-2.857t3.875-7.518q0-2.304-0.911-3.696 3.268 1.643 3.268 5.982zM27.375 8.375q0 4.714-3.946 7.643-3.893 2.875-10.929 2.875h-1.071q-0.571 0-1.063 0.393t-0.616 0.946l-1.304 5.625q-0.143 0.643-0.714 1.098t-1.232 0.455h-3.821q-0.554 0-0.938-0.348t-0.384-0.92q0-0.143 0.036-0.357l5.357-23.232q0.143-0.643 0.723-1.098t1.241-0.455h7.929q1.214 0 2.232 0.071t2.152 0.268 2.027 0.536 1.723 0.902 1.384 1.321 0.884 1.848 0.33 2.429z"></path>
</symbol>
<symbol id="gsicon-periscope" viewBox="0 0 32 32">
<title>periscope</title>
<path d="M16.18 32c2.5 0 12.42-11.252 12.42-18.794 0-7.22-5.64-13.206-12.42-13.206-7.14 0-12.78 5.984-12.78 13.206 0 7.54 9.92 18.794 12.78 18.794zM14.186 5.128c0.646-0.16 1.326-0.246 2.032-0.246 4.016 0 7.45 3.4 7.45 7.812 0 3.976-3.434 7.376-7.45 7.376-4.456 0-7.89-3.4-7.89-7.376 0-1.856 0.608-3.532 1.644-4.852v0.024c0 1.648 1.348 2.984 3.012 2.984s3.016-1.338 3.016-2.986c0-1.224-0.746-2.276-1.812-2.736z"></path>
</symbol>
<symbol id="gsicon-pinterest" viewBox="0 0 32 32">
<title>pinterest</title>
<path d="M14.286 21.165c-0.84 4.405-1.866 8.629-4.906 10.835-0.938-6.659 1.378-11.659 2.453-16.968-1.834-3.088 0.221-9.299 4.090-7.768 4.76 1.883-4.122 11.477 1.84 12.675 6.226 1.251 8.766-10.8 4.907-14.718-5.578-5.661-16.237-0.131-14.925 7.97 0.318 1.981 2.365 2.582 0.818 5.315-3.57-0.79-4.635-3.606-4.498-7.36 0.221-6.142 5.52-10.443 10.835-11.038 6.723-0.754 13.032 2.467 13.901 8.79 0.981 7.136-3.032 14.866-10.222 14.309-1.947-0.149-2.765-1.114-4.293-2.042z"></path>
</symbol>
<symbol id="gsicon-pocket" viewBox="0 0 32 32">
<title>pocket</title>
<path d="M25.066 14.18l-7.526 7.22c-0.426 0.408-0.972 0.612-1.52 0.612-0.546 0-1.094-0.204-1.52-0.612l-7.524-7.22c-0.874-0.836-0.9-2.226-0.064-3.1 0.84-0.876 2.228-0.904 3.1-0.066l6.010 5.76 6.010-5.76c0.872-0.84 2.26-0.81 3.1 0.064s0.81 2.26-0.064 3.1zM31.842 4.124c-0.414-1.144-1.51-1.912-2.726-1.912h-26.216c-1.2 0-2.288 0.752-2.714 1.872-0.126 0.332-0.19 0.68-0.19 1.030v9.656l0.11 1.92c0.464 4.368 2.73 8.184 6.24 10.846 0.060 0.048 0.126 0.094 0.19 0.14l0.040 0.030c1.88 1.374 3.984 2.304 6.256 2.764 1.048 0.21 2.12 0.32 3.184 0.32 0.984 0 1.972-0.092 2.944-0.272 0.116-0.026 0.232-0.046 0.35-0.074 0.032-0.004 0.066-0.020 0.1-0.036 2.176-0.474 4.196-1.38 6.008-2.704l0.040-0.028 0.192-0.144c3.508-2.66 5.774-6.48 6.24-10.846l0.108-1.92v-9.652c0-0.334-0.040-0.666-0.16-0.99z"></path>
</symbol>
<symbol id="gsicon-quora" viewBox="0 0 32 32">
<title>quora</title>
<path d="M16.996 24.952c-1.108-2.18-2.408-4.386-4.946-4.386-0.484 0-0.97 0.080-1.414 0.28l-0.86-1.72c1.048-0.904 2.746-1.62 4.928-1.62 3.394 0 5.136 1.64 6.52 3.724 0.82-1.78 1.208-4.188 1.208-7.17 0-7.448-2.328-11.272-7.768-11.272-5.36 0-7.68 3.824-7.68 11.272 0 7.408 2.32 11.192 7.68 11.192 0.852 0 1.624-0.092 2.332-0.3v0zM18.326 27.552c-1.176 0.314-2.424 0.488-3.66 0.488-7.14 0-14.13-5.696-14.13-13.98 0-8.36 6.988-14.060 14.128-14.060 7.26 0 14.18 5.656 14.18 14.060 0 4.674-2.18 8.472-5.35 10.928 1.020 1.534 2.076 2.554 3.544 2.554 1.6 0 2.248-1.236 2.356-2.208h2.088c0.12 1.294-0.526 6.668-6.36 6.668-3.53 0-5.4-2.048-6.8-4.448l0.004-0.002z"></path>
</symbol>
<symbol id="gsicon-reddit" viewBox="0 0 35 32">
<title>reddit</title>
<path d="M14.839 17.214q0 1-0.723 1.714t-1.723 0.714q-1.018 0-1.75-0.714t-0.732-1.714q0-1.018 0.741-1.75t1.741-0.732 1.723 0.732 0.723 1.75zM23.071 14.732q1 0 1.723 0.732t0.723 1.75q0 1-0.723 1.714t-1.723 0.714q-1.018 0-1.75-0.714t-0.732-1.714q0-1.018 0.741-1.75t1.741-0.732zM35.429 14.536q0 1.107-0.554 2.036t-1.482 1.464q0.089 0.589 0.089 1.089 0 2.161-1.223 4.116t-3.527 3.455q-2.232 1.464-5.098 2.241t-5.991 0.777q-3.143 0-6.009-0.777t-5.080-2.241q-2.304-1.5-3.527-3.446t-1.223-4.125q0-0.518 0.089-1.179-0.857-0.554-1.375-1.455t-0.518-1.955q0-1.679 1.179-2.857t2.857-1.179q1.482 0 2.643 0.982 4.429-2.821 10.571-2.929l2.393-7.554q0.071-0.25 0.313-0.384t0.509-0.080l6.196 1.464q0.393-0.893 1.223-1.446t1.83-0.554q1.375 0 2.348 0.973t0.973 2.348-0.973 2.357-2.348 0.982q-1.357 0-2.33-0.964t-0.991-2.339l-5.625-1.321-2.071 6.536q5.839 0.25 10 2.964 1.143-1.036 2.696-1.036 1.679 0 2.857 1.179t1.179 2.857zM29.714 1.375q-0.804 0-1.375 0.571t-0.571 1.375 0.571 1.375 1.375 0.571 1.375-0.571 0.571-1.375-0.571-1.375-1.375-0.571zM1.375 14.536q0 1.196 0.911 1.982 0.875-2.339 3.214-4.196-0.643-0.446-1.464-0.446-1.107 0-1.884 0.777t-0.777 1.884zM27.982 25.554q2-1.304 3.063-2.964t1.063-3.464-1.063-3.455-3.063-2.955q-2.071-1.339-4.741-2.063t-5.598-0.723-5.598 0.723-4.741 2.063q-2 1.304-3.063 2.955t-1.063 3.455 1.063 3.464 3.063 2.964q2.071 1.339 4.741 2.063t5.598 0.723 5.598-0.723 4.741-2.063zM33.036 16.625q1.018-0.821 1.018-2.089 0-1.107-0.777-1.884t-1.884-0.777q-0.875 0-1.536 0.5 2.339 1.875 3.179 4.25zM22.464 23.196q0.196-0.196 0.482-0.196t0.482 0.196 0.196 0.491-0.196 0.491q-1.768 1.768-5.696 1.768h-0.036q-3.929 0-5.696-1.768-0.196-0.196-0.196-0.491t0.196-0.491 0.482-0.196 0.482 0.196q1.375 1.375 4.732 1.375h0.036q3.357 0 4.732-1.375z"></path>
</symbol>
<symbol id="gsicon-rss" viewBox="0 0 32 32">
<title>rss</title>
<path d="M4.259 23.467c-2.35 0-4.259 1.917-4.259 4.252 0 2.349 1.909 4.244 4.259 4.244 2.358 0 4.265-1.895 4.265-4.244-0-2.336-1.907-4.252-4.265-4.252zM0.005 10.873v6.133c3.993 0 7.749 1.562 10.577 4.391 2.825 2.822 4.384 6.595 4.384 10.603h6.16c-0-11.651-9.478-21.127-21.121-21.127zM0.012 0v6.136c14.243 0 25.836 11.604 25.836 25.864h6.152c0-17.64-14.352-32-31.988-32z"></path>
</symbol>
<symbol id="gsicon-safari" viewBox="0 0 32 32">
<title>safari</title>
<path d="M16 2c-0.752 0-1.491 0.056-2.213 0.163-0.009-0.024-0.020-0.048-0.031-0.072 0.401-0.313 0.611-0.745 0.52-1.173-0.117-0.549-0.7-0.918-1.451-0.918-0.162 0-0.327 0.018-0.49 0.052-0.943 0.2-1.567 0.894-1.421 1.58 0.089 0.417 0.447 0.729 0.943 0.856-0.001 0.030-0.001 0.061 0.001 0.092-6.269 1.798-10.857 7.573-10.857 14.42 0 8.284 6.716 15 15 15s15-6.716 15-15c0-8.284-6.716-15-15-15zM11.403 1.528c-0.085-0.398 0.39-0.85 1.036-0.987 0.129-0.027 0.259-0.041 0.386-0.041 0.501 0 0.897 0.215 0.962 0.522 0.050 0.235-0.096 0.488-0.356 0.684-0.22-0.155-0.501-0.223-0.784-0.162-0.283 0.060-0.511 0.235-0.649 0.464-0.318-0.077-0.547-0.253-0.595-0.48zM24.043 25.043c-1.374 1.374-3.038 2.352-4.853 2.88l-1.325-2.149-0.336 2.499c-0.503 0.067-1.013 0.102-1.529 0.102-3.038 0-5.895-1.183-8.043-3.332-1.374-1.374-2.352-3.038-2.88-4.853l2.149-1.325-2.499-0.336c-0.067-0.503-0.102-1.013-0.102-1.529 0-3.038 1.183-5.895 3.332-8.043 1.374-1.374 3.038-2.352 4.853-2.88l1.325 2.149 0.336-2.499c0.503-0.067 1.013-0.102 1.529-0.102 3.038 0 5.895 1.183 8.043 3.332 1.374 1.374 2.352 3.038 2.88 4.853l-2.149 1.325 2.499 0.336c0.067 0.503 0.102 1.013 0.102 1.529 0 3.038-1.183 5.895-3.332 8.043zM23.778 9.222l-6.156 4.678c-0.458-0.239-0.965-0.377-1.482-0.398l-1.596-3.349-0.096 3.708c-0.415 0.204-0.784 0.489-1.090 0.842l-1.972-0.699 1.44 1.517c-0.198 0.422-0.308 0.876-0.326 1.338l-3.349 1.596 3.711 0.096c0.012 0.024 0.024 0.048 0.037 0.071l-4.678 6.156 6.156-4.678c0.458 0.239 0.965 0.377 1.482 0.398l1.596 3.349 0.096-3.708c0.415-0.204 0.785-0.489 1.090-0.842l1.972 0.699-1.44-1.517c0.198-0.422 0.308-0.876 0.326-1.338l3.349-1.596-3.71-0.096c-0.012-0.024-0.024-0.048-0.037-0.071l4.678-6.156zM16.003 13.892v0zM15.376 14.066c0.21-0.045 0.42-0.066 0.627-0.066 0.13 0 0.258 0.008 0.384 0.025l0.003 0.001-0-0.001c0.273 0.036 0.537 0.109 0.785 0.216l-2.236 1.699-1.699 2.236c-0.074-0.175-0.133-0.359-0.174-0.552-0.345-1.621 0.69-3.214 2.311-3.558zM17.566 19.559v0 0c-0.283 0.173-0.599 0.303-0.942 0.376-0.21 0.045-0.42 0.066-0.627 0.066-0.13 0-0.258-0.009-0.385-0.025l-0.002-0c-0.273-0.036-0.537-0.109-0.785-0.215l2.236-1.699 1.699-2.236c0.074 0.175 0.133 0.359 0.174 0.552 0.272 1.278-0.314 2.538-1.368 3.183z"></path>
</symbol>
<symbol id="gsicon-skype" viewBox="0 0 32 32">
<title>skype</title>
<path d="M28.166 16.033c0-6.923-5.613-12.536-12.538-12.536-0.647 0-1.279 0.063-1.899 0.158-1.251-1.068-2.87-1.717-4.642-1.717-3.947 0-7.15 3.202-7.15 7.15 0 1.612 0.539 3.095 1.44 4.29-0.184 0.857-0.287 1.744-0.287 2.656 0 6.927 5.612 12.54 12.536 12.54 0.889 0 1.758-0.096 2.594-0.273 1.257 1.095 2.894 1.763 4.692 1.763 3.948 0 7.15-3.201 7.15-7.15 0-1.952-0.783-3.718-2.053-5.007 0.093-0.615 0.156-1.236 0.156-1.873zM21.478 21.493c-0.493 0.702-1.217 1.251-2.168 1.648-0.951 0.4-2.079 0.597-3.382 0.597-1.566 0-2.856-0.271-3.873-0.815-0.719-0.39-1.305-0.912-1.756-1.566-0.45-0.651-0.676-1.286-0.676-1.902 0-0.359 0.136-0.664 0.405-0.918 0.271-0.256 0.616-0.383 1.033-0.383 0.338 0 0.627 0.098 0.86 0.299 0.233 0.197 0.434 0.493 0.599 0.882 0.203 0.465 0.421 0.851 0.654 1.162 0.233 0.312 0.565 0.57 0.989 0.771 0.426 0.203 0.985 0.304 1.675 0.304 0.953 0 1.725-0.203 2.319-0.611 0.594-0.407 0.893-0.915 0.893-1.526 0-0.482-0.16-0.875-0.481-1.176-0.321-0.302-0.735-0.532-1.245-0.692-0.508-0.158-1.184-0.328-2.038-0.506-1.138-0.245-2.091-0.532-2.858-0.858-0.767-0.33-1.378-0.776-1.826-1.342-0.451-0.568-0.676-1.272-0.676-2.111 0-0.803 0.237-1.514 0.714-2.137 0.474-0.621 1.162-1.102 2.065-1.435 0.901-0.335 1.959-0.501 3.177-0.501 0.972 0 1.815 0.11 2.523 0.331 0.711 0.221 1.299 0.517 1.768 0.884 0.467 0.369 0.81 0.755 1.027 1.159s0.324 0.798 0.324 1.181c0 0.352-0.136 0.669-0.403 0.951-0.271 0.28-0.609 0.422-1.013 0.422-0.368 0-0.647-0.086-0.838-0.254s-0.398-0.445-0.621-0.829c-0.288-0.549-0.634-0.98-1.038-1.287-0.403-0.307-1.052-0.462-1.947-0.462-0.827 0-1.495 0.167-2.003 0.501-0.51 0.333-0.762 0.736-0.762 1.207 0 0.292 0.086 0.544 0.259 0.755 0.172 0.213 0.41 0.393 0.714 0.546 0.3 0.153 0.608 0.271 0.918 0.361 0.309 0.084 0.821 0.211 1.535 0.376 0.893 0.192 1.701 0.405 2.426 0.637s1.341 0.513 1.849 0.843c0.51 0.333 0.906 0.752 1.19 1.258 0.285 0.506 0.427 1.128 0.427 1.864 0 0.878-0.247 1.672-0.74 2.374z"></path>
</symbol>
<symbol id="gsicon-slack" viewBox="0 0 32 32">
<title>slack</title>
<path d="M30.944 17.088c-0.354-1.124-1.323-1.905-2.656-1.888-0.505 0.006-0.961 0.124-1.401 0.277-0.709 0.248-2.119 0.715-2.119 0.715s-0.972-3.072-1.476-4.589c-0.116-0.348-0.348-1.043-0.348-1.043s0.775-0.294 1.19-0.408c0.742-0.204 1.512-0.384 2.138-0.776 0.886-0.555 1.56-1.744 1.152-3.104-0.337-1.121-1.305-1.916-2.592-1.92-0.7-0.003-1.308 0.212-1.9 0.448-0.534 0.212-1.62 0.544-1.62 0.544s-0.318-0.736-0.435-1.143c-0.213-0.741-0.383-1.529-0.781-2.153-0.568-0.89-1.717-1.569-3.104-1.152-1.124 0.338-1.92 1.3-1.92 2.592 0 0.627 0.174 1.179 0.381 1.713 0.231 0.598 0.611 1.807 0.611 1.807l-5.6 1.856c0 0-0.441-1.199-0.62-1.844-0.146-0.527-0.312-1.045-0.596-1.484-0.56-0.864-1.776-1.553-3.136-1.12-1.088 0.346-1.899 1.348-1.888 2.624 0.005 0.645 0.258 1.248 0.448 1.824 0.188 0.567 0.383 1.123 0.576 1.664-1.776 0.773-4.26 0.839-4.576 3.072v0.864c0.345 1.408 1.416 2.598 3.2 2.272 1.013-0.185 3.040-0.992 3.040-0.992l1.856 5.632c0 0-2.357 0.594-3.328 1.216-0.887 0.568-1.566 1.73-1.12 3.136 0.353 1.113 1.315 1.933 2.656 1.888 1.236-0.041 2.333-0.813 3.488-1.024 0.454 1.064 0.544 2.389 1.184 3.36 0.565 0.857 1.781 1.561 3.168 1.088 1.062-0.362 1.9-1.357 1.856-2.656-0.041-1.218-0.848-2.33-1.024-3.488 1.901-0.595 3.761-1.231 5.664-1.824 0.624 1.753 0.757 3.771 2.496 4.416 1.984 0.737 3.916-0.8 3.68-2.912-0.061-0.545-0.341-1.083-0.512-1.6-0.175-0.528-0.293-1.059-0.512-1.568 1.011-0.518 2.369-0.551 3.36-1.184 0.86-0.549 1.54-1.801 1.12-3.136zM13.952 19.712l-1.824-5.664 5.632-1.792 1.856 5.6-5.664 1.856z"></path>
</symbol>
<symbol id="gsicon-snapchat" viewBox="0 0 32 32">
<title>snapchat</title>
<path d="M16.151 26.999c-0.066 0-0.13-0.002-0.178-0.005-0.038 0.003-0.078 0.005-0.117 0.005-1.395 0-2.328-0.66-3.151-1.242-0.59-0.417-1.146-0.81-1.798-0.919-0.32-0.053-0.639-0.080-0.946-0.080-0.554 0-0.993 0.086-1.313 0.149-0.197 0.038-0.367 0.071-0.498 0.071-0.137 0-0.304-0.030-0.374-0.268-0.055-0.187-0.095-0.369-0.133-0.544-0.095-0.437-0.165-0.703-0.328-0.729-1.75-0.27-2.784-0.668-2.99-1.149-0.022-0.050-0.034-0.102-0.036-0.152-0.008-0.144 0.093-0.27 0.235-0.293 1.39-0.229 2.625-0.963 3.673-2.184 0.811-0.945 1.21-1.848 1.253-1.947 0.002-0.004 0.004-0.009 0.006-0.014 0.202-0.41 0.242-0.764 0.12-1.052-0.225-0.532-0.972-0.769-1.466-0.925-0.123-0.039-0.239-0.076-0.332-0.113-0.438-0.173-1.158-0.538-1.062-1.043 0.070-0.368 0.556-0.624 0.95-0.624 0.109 0 0.206 0.019 0.287 0.057 0.444 0.208 0.844 0.314 1.188 0.314 0.428 0 0.634-0.163 0.684-0.209-0.012-0.228-0.027-0.469-0.042-0.697 0-0-0-0.003-0-0.003-0.1-1.596-0.226-3.583 0.283-4.723 1.521-3.411 4.747-3.676 5.699-3.676 0.025 0 0.415-0.004 0.415-0.004 0.018-0 0.037-0.001 0.056-0.001 0.955 0 4.187 0.266 5.709 3.678 0.508 1.14 0.383 3.129 0.282 4.727l-0.005 0.076c-0.014 0.217-0.026 0.422-0.037 0.621 0.047 0.043 0.236 0.193 0.62 0.208 0.328-0.013 0.704-0.118 1.119-0.312 0.128-0.060 0.27-0.073 0.367-0.073 0.146 0 0.294 0.028 0.417 0.080l0.007 0.003c0.352 0.125 0.582 0.374 0.587 0.637 0.004 0.245-0.177 0.61-1.071 0.963-0.091 0.036-0.208 0.073-0.332 0.113-0.494 0.157-1.24 0.394-1.466 0.925-0.123 0.288-0.082 0.642 0.12 1.052 0.002 0.004 0.004 0.009 0.006 0.014 0.062 0.146 1.567 3.578 4.925 4.131 0.141 0.024 0.243 0.15 0.235 0.293-0.003 0.052-0.015 0.103-0.037 0.153-0.204 0.479-1.238 0.876-2.989 1.146-0.164 0.025-0.234 0.291-0.328 0.726-0.039 0.18-0.079 0.356-0.133 0.54-0.051 0.174-0.164 0.259-0.346 0.259h-0.027c-0.118 0-0.286-0.021-0.498-0.063-0.37-0.072-0.785-0.139-1.313-0.139-0.308 0-0.626 0.027-0.947 0.080-0.651 0.108-1.208 0.501-1.797 0.918-0.825 0.583-1.758 1.243-3.153 1.243z"></path>
</symbol>
<symbol id="gsicon-spotify" viewBox="0 0 32 32">
<title>spotify</title>
<path d="M16 0.64c-8.483 0-15.36 6.877-15.36 15.36 0 3.878 1.437 7.421 3.808 10.122 2.403-2.403 5.694-3.752 9.472-3.63 4.819 0.157 8.624 2.438 10.805 6.15 4.008-2.771 6.635-7.398 6.635-12.642 0-8.483-6.877-15.36-15.36-15.36zM23.509 21.475c-0.27 0.448-0.85 0.586-1.296 0.315-3.558-2.173-8.032-2.664-13.302-1.461-0.506 0.117-1.014-0.2-1.128-0.71-0.117-0.504 0.198-1.013 0.707-1.128 5.768-1.318 10.715-0.749 14.706 1.686 0.445 0.272 0.587 0.853 0.314 1.298zM25.363 17.118c-0.341 0.557-1.069 0.73-1.622 0.387-4.070-2.501-10.275-3.226-15.090-1.765-0.626 0.189-1.285-0.165-1.472-0.786-0.189-0.626 0.163-1.285 0.786-1.472 5.499-1.672 12.336-0.862 17.011 2.010 0.555 0.346 0.73 1.069 0.387 1.626zM25.522 12.605c-4.88-2.901-12.93-3.165-17.589-1.752-0.749 0.229-1.539-0.194-1.766-0.942-0.226-0.749 0.197-1.542 0.942-1.766 5.35-1.624 14.24-1.31 19.858 2.026 0.674 0.4 0.896 1.269 0.498 1.942-0.402 0.67-1.269 0.891-1.942 0.493zM13.822 27.085c-2.162-0.069-3.96 0.773-5.274 2.349 2.206 1.227 4.747 1.926 7.451 1.926 1.304 0 2.57-0.163 3.779-0.469-1.158-2.379-3.179-3.717-5.957-3.806z"></path>
</symbol>
<symbol id="gsicon-stack-overflow" viewBox="0 0 25 32">
<title>stack-overflow</title>
<path d="M16.571 25.018v2.696l-12.625 0.018v-2.696zM20.875 18.839v12.518l-0.018 0.625v0.018l-20.857-0.018v-13.143h2.161v11.036h16.571v-11.036h2.143zM4.304 20.411l12.571 1.161-0.232 2.679-12.589-1.161zM5.518 14.768l12.196 3.268-0.696 2.607-12.196-3.268zM8.429 8.536l10.875 6.429-1.375 2.321-10.875-6.429zM14.857 2.625l7.107 10.446-2.214 1.518-7.125-10.429zM22.946 0l2.161 12.446-2.661 0.464-2.161-12.446z"></path>
</symbol>
<symbol id="gsicon-soundcloud" viewBox="0 0 32 32">
<title>soundcloud</title>
<path d="M27.874 16.069c-0.565 0-1.105 0.11-1.596 0.308-0.328-3.574-3.447-6.377-7.25-6.377-0.931 0-1.834 0.176-2.635 0.474-0.311 0.116-0.393 0.235-0.393 0.466v12.585c0 0.243 0.195 0.445 0.441 0.469 0.011 0.001 11.36 0.007 11.434 0.007 2.278 0 4.125-1.776 4.125-3.965s-1.848-3.966-4.126-3.966zM12.5 24h1l0.5-7.007-0.5-6.993h-1l-0.5 6.993zM9.5 24h-1l-0.5-5.086 0.5-4.914h1l0.5 5zM4.5 24h1l0.5-4-0.5-4h-1l-0.5 4zM0.5 22h1l0.5-2-0.5-2h-1l-0.5 2z"></path>
</symbol>
<symbol id="gsicon-tumblr" viewBox="0 0 32 32">
<title>tumblr</title>
<path d="M17.879 24.676c-0.528-0.307-0.89-0.716-1.084-1.232-0.195-0.512-0.612-1.674-0.612-3.483v-5.073h7.59v-5.453h-7.59v-7.731h-3.186c-0.204 1.611-0.251 2.141-0.786 3.185-0.537 1.042-1.249 2.413-2.137 3.156-0.884 0.744-2.111 1.472-3.355 1.871v4.973h3.66v8.015c0 1.428 0.151 2.516 0.454 3.267 0.303 0.753 0.848 1.462 1.634 2.128 0.784 0.665 2.523 1.541 2.523 1.541s1.397 0.54 2.842 0.54c1.274 0 2.462-0.126 3.559-0.379s2.725-0.853 4.078-1.483v-4.92c-1.586 1.026-3.587 1.698-5.185 1.698-0.904 0-1.704-0.207-2.404-0.621z"></path>
</symbol>
<symbol id="gsicon-twitch" viewBox="0 0 32 32">
<title>twitch</title>
<path d="M3.421 0.75l-1.988 5.305v21.217h7.29v3.978h3.98l3.975-3.98h5.967l7.955-7.953v-18.567h-27.177zM6.070 3.4h21.878v14.589l-4.642 4.642h-7.291l-3.975 3.975v-3.975h-5.97v-19.23zM13.366 16.663h2.65v-7.955h-2.65v7.955zM20.655 16.663h2.65v-7.955h-2.65v7.955z"></path>
</symbol>
<symbol id="gsicon-twitter" viewBox="0 0 30 32">
<title>twitter</title>
<path d="M28.929 7.786q-1.196 1.75-2.893 2.982 0.018 0.25 0.018 0.75 0 2.321-0.679 4.634t-2.063 4.438-3.295 3.759-4.607 2.607-5.768 0.973q-4.839 0-8.857-2.589 0.625 0.071 1.393 0.071 4.018 0 7.161-2.464-1.875-0.036-3.357-1.152t-2.036-2.848q0.589 0.089 1.089 0.089 0.768 0 1.518-0.196-2-0.411-3.313-1.991t-1.313-3.67v-0.071q1.214 0.679 2.607 0.732-1.179-0.786-1.875-2.054t-0.696-2.75q0-1.571 0.786-2.911 2.161 2.661 5.259 4.259t6.634 1.777q-0.143-0.679-0.143-1.321 0-2.393 1.688-4.080t4.080-1.688q2.5 0 4.214 1.821 1.946-0.375 3.661-1.393-0.661 2.054-2.536 3.179 1.661-0.179 3.321-0.893z"></path>
</symbol>
<symbol id="gsicon-ubuntu" viewBox="0 0 32 32">
<title>ubuntu</title>
<path d="M8.104 15.999c0 1.268-1.030 2.3-2.301 2.3-1.268 0-2.298-1.032-2.298-2.3s1.029-2.297 2.298-2.297c1.271 0 2.301 1.028 2.301 2.297zM21.185 27.178c0.629 1.098 2.039 1.475 3.134 0.844 1.105-0.64 1.48-2.042 0.841-3.145-0.63-1.095-2.040-1.474-3.134-0.84-1.104 0.636-1.48 2.040-0.841 3.141zM25.16 7.122c0.639-1.1 0.264-2.505-0.841-3.14-1.094-0.635-2.505-0.257-3.134 0.842-0.64 1.098-0.264 2.505 0.84 3.141 1.094 0.633 2.505 0.256 3.134-0.842zM17.383 9.444c3.421 0 6.237 2.626 6.526 5.974l3.329-0.052c-0.157-2.488-1.235-4.728-2.898-6.377-0.883 0.339-1.902 0.294-2.787-0.216-0.878-0.507-1.429-1.371-1.574-2.303-0.831-0.227-1.704-0.346-2.597-0.346-1.571 0-3.062 0.369-4.381 1.022l1.619 2.907c0.838-0.39 1.776-0.609 2.763-0.609zM10.828 15.999c0-2.218 1.101-4.18 2.786-5.363l-1.707-2.855c-1.981 1.32-3.452 3.337-4.076 5.698 0.736 0.593 1.209 1.501 1.209 2.52 0 1.022-0.473 1.927-1.209 2.519 0.624 2.365 2.096 4.381 4.076 5.705l1.707-2.862c-1.685-1.183-2.786-3.14-2.786-5.362zM17.383 22.559c-0.987 0-1.925-0.222-2.763-0.611l-1.618 2.903c1.319 0.655 2.81 1.025 4.381 1.025 0.893 0 1.766-0.118 2.597-0.348 0.145-0.931 0.696-1.791 1.574-2.3 0.885-0.511 1.904-0.557 2.787-0.214 1.662-1.657 2.741-3.895 2.898-6.381l-3.329-0.052c-0.29 3.352-3.105 5.977-6.527 5.977z"></path>
</symbol>
<symbol id="gsicon-vimeo" viewBox="0 0 32 32">
<title>vimeo</title>
<path d="M30.256 9.846c-1.61 9.235-10.6 17.056-13.304 18.842-2.706 1.786-5.171-0.715-6.067-2.608-1.024-2.155-4.094-13.851-4.899-14.818-0.803-0.971-3.216 0.966-3.216 0.966l-1.17-1.562c0 0 4.899-5.96 8.627-6.704 3.952-0.789 3.946 6.182 4.896 10.053 0.92 3.746 1.538 5.89 2.339 5.89 0.805 0 2.339-2.090 4.021-5.291 1.685-3.205-0.072-6.034-3.363-4.022 1.315-8.045 13.746-9.979 12.136-0.746z"></path>
</symbol>
<symbol id="gsicon-vk" viewBox="0 0 32 32">
<title>vk</title>
<path d="M15.656 25.052h1.914s0.576-0.064 0.872-0.38c0.274-0.294 0.266-0.84 0.266-0.84s-0.040-2.568 1.152-2.946c1.174-0.374 2.68 2.48 4.28 3.576 1.208 0.832 2.126 0.652 2.126 0.652l4.274-0.060s2.234-0.14 1.174-1.896c-0.086-0.144-0.616-1.3-3.176-3.676-2.68-2.488-2.324-2.086 0.904-6.388 1.966-2.62 2.752-4.22 2.506-4.904-0.234-0.652-1.68-0.48-1.68-0.48l-4.812 0.030s-0.36-0.050-0.62 0.108c-0.26 0.154-0.426 0.516-0.426 0.516s-0.76 2.026-1.78 3.752c-2.14 3.64-3 3.83-3.348 3.604-0.814-0.528-0.61-2.116-0.61-3.244 0-3.526 0.534-4.996-1.040-5.376-0.526-0.126-0.91-0.21-2.248-0.224-1.72-0.020-3.17 0.006-3.992 0.408-0.548 0.268-0.97 0.866-0.714 0.9 0.32 0.040 1.040 0.194 1.42 0.714 0.496 0.67 0.48 2.176 0.48 2.176s0.28 4.15-0.66 4.666c-0.652 0.354-1.54-0.368-3.452-3.668-0.98-1.69-1.716-3.56-1.716-3.56s-0.144-0.348-0.4-0.536c-0.306-0.226-0.736-0.3-0.736-0.3l-4.574 0.034s-0.684 0.020-0.936 0.32c-0.224 0.264-0.020 0.812-0.020 0.812s3.58 8.374 7.636 12.596c3.716 3.87 7.936 3.616 7.936 3.616z"></path>
</symbol>
<symbol id="gsicon-whatsapp" viewBox="0 0 32 32">
<title>whatsapp</title>
<path d="M23.33 19.176c-0.4-0.2-2.354-1.156-2.72-1.288-0.364-0.134-0.63-0.2-0.896 0.2-0.264 0.394-1.028 1.286-1.26 1.55s-0.464 0.296-0.86 0.1c-0.4-0.2-1.684-0.62-3.204-1.968-1.184-1.050-1.98-2.348-2.214-2.746-0.232-0.396-0.026-0.61 0.174-0.808 0.18-0.18 0.4-0.464 0.6-0.696 0.196-0.232 0.26-0.396 0.396-0.66 0.132-0.266 0.066-0.496-0.034-0.696s-0.896-2.148-1.228-2.94c-0.32-0.774-0.65-0.668-0.896-0.68-0.23-0.012-0.496-0.014-0.76-0.014-0.268 0-0.7 0.1-1.064 0.494-0.364 0.4-1.392 1.356-1.392 3.306s1.426 3.834 1.624 4.1c0.2 0.264 2.808 4.266 6.8 5.98 0.952 0.41 1.692 0.654 2.272 0.836 0.952 0.3 1.82 0.26 2.506 0.16 0.766-0.116 2.356-0.96 2.688-1.886 0.334-0.926 0.334-1.72 0.234-1.886s-0.364-0.266-0.764-0.464zM16.068 29.040h-0.008c-2.374 0-4.706-0.636-6.74-1.836l-0.48-0.286-5.014 1.308 1.34-4.86-0.32-0.5c-1.324-2.1-2.024-4.526-2.020-7.016 0-7.266 5.94-13.18 13.246-13.18 3.54 0.004 6.86 1.376 9.36 3.868 2.504 2.49 3.88 5.8 3.88 9.324-0.006 7.266-5.946 13.18-13.246 13.18zM27.338 4.642c-3.010-2.986-7.010-4.638-11.274-4.642-8.778 0-15.924 7.112-15.93 15.856 0 2.794 0.732 5.52 2.126 7.928l-2.26 8.216 8.446-2.204c2.328 1.26 4.948 1.928 7.614 1.93h0.008c8.78 0 15.928-7.114 15.932-15.86 0-4.234-1.654-8.22-4.66-11.216z"></path>
</symbol>
<symbol id="gsicon-wikipedia" viewBox="0 0 32 32">
<title>wikipedia</title>
<path d="M16.088 17.996c-1.246 2.57-2.95 6.052-3.796 7.62-0.82 1.43-1.5 1.24-2.040 0.040-1.87-4.42-5.712-12.168-7.52-16.512-0.334-0.8-0.586-1.314-0.824-1.516-0.24-0.2-0.736-0.32-1.492-0.36-0.28-0.034-0.416-0.102-0.416-0.212v-0.606l0.068-0.060c1.23-0.006 7.188 0 7.188 0l0.068 0.060v0.576c0 0.16-0.1 0.236-0.3 0.236l-0.75 0.030c-0.644 0.028-0.966 0.22-0.966 0.576 0 0.166 0.068 0.44 0.22 0.8 1.44 3.51 6.412 14 6.412 14l0.18 0.046 3.208-6.4c-0.392-0.864-0.64-1.42-0.64-1.42l-2.208-4.322s-0.424-0.866-0.57-1.154c-0.968-1.92-0.946-2.020-1.926-2.152-0.274-0.036-0.416-0.070-0.416-0.206v-0.61l0.080-0.060h5.712l0.15 0.048v0.604c0 0.14-0.1 0.208-0.3 0.208l-0.412 0.060c-1.046 0.080-0.876 0.508-0.18 1.892l2.114 4.326 2.34-4.666c0.39-0.852 0.31-1.066 0.148-1.264-0.092-0.11-0.404-0.29-1.080-0.316l-0.266-0.030c-0.068 0-0.13-0.020-0.192-0.068-0.060-0.040-0.092-0.1-0.092-0.17v-0.574l0.080-0.060c1.66-0.010 5.38 0 5.38 0l0.064 0.060v0.58c0 0.16-0.090 0.236-0.266 0.236-0.866 0.040-1.044 0.126-1.36 0.584-0.174 0.248-0.516 0.784-0.87 1.384l-3.040 5.686-0.086 0.18 3.716 7.6 0.226 0.064 5.852-13.89c0.204-0.56 0.172-0.96-0.088-1.19-0.26-0.228-0.448-0.364-1.126-0.392l-0.55-0.024c-0.066 0-0.13-0.024-0.192-0.070-0.060-0.044-0.092-0.1-0.092-0.17v-0.58l0.084-0.056h6.612l0.068 0.060v0.576c0 0.16-0.090 0.236-0.266 0.236-0.866 0.040-1.508 0.228-1.924 0.56-0.42 0.34-0.74 0.806-0.976 1.412 0 0-5.38 12.32-7.224 16.416-0.706 1.34-1.4 1.22-2.008-0.040-0.76-1.572-2.348-5.040-3.512-7.604z"></path>
</symbol>
<symbol id="gsicon-wordpress" viewBox="0 0 32 32">
<title>wordpress</title>
<path d="M2.268 16q0-2.911 1.196-5.589l6.554 17.946q-3.5-1.696-5.625-5.018t-2.125-7.339zM25.268 15.304q0 0.339-0.045 0.688t-0.179 0.884-0.205 0.786-0.313 1.054-0.313 1.036l-1.357 4.571-4.964-14.75q0.821-0.054 1.571-0.143 0.339-0.036 0.464-0.33t-0.045-0.554-0.509-0.241l-3.661 0.179q-1.339-0.018-3.607-0.179-0.214-0.018-0.366 0.089t-0.205 0.268-0.027 0.33 0.161 0.295 0.348 0.143l1.429 0.143 2.143 5.857-3 9-5-14.857q0.821-0.054 1.571-0.143 0.339-0.036 0.464-0.33t-0.045-0.554-0.509-0.241l-3.661 0.179q-0.125 0-0.411-0.009t-0.464-0.009q1.875-2.857 4.902-4.527t6.563-1.67q2.625 0 5.009 0.946t4.259 2.661h-0.179q-0.982 0-1.643 0.723t-0.661 1.705q0 0.214 0.036 0.429t0.071 0.384 0.143 0.411 0.161 0.375 0.214 0.402 0.223 0.375 0.259 0.429 0.25 0.411q1.125 1.911 1.125 3.786zM16.232 17.196l4.232 11.554q0.018 0.107 0.089 0.196-2.25 0.786-4.554 0.786-2 0-3.875-0.571zM28.036 9.411q1.696 3.107 1.696 6.589 0 3.732-1.857 6.884t-4.982 4.973l4.196-12.107q1.054-3.018 1.054-4.929 0-0.75-0.107-1.411zM16 0q3.25 0 6.214 1.268t5.107 3.411 3.411 5.107 1.268 6.214-1.268 6.214-3.411 5.107-5.107 3.411-6.214 1.268-6.214-1.268-5.107-3.411-3.411-5.107-1.268-6.214 1.268-6.214 3.411-5.107 5.107-3.411 6.214-1.268zM16 31.268q3.089 0 5.92-1.214t4.875-3.259 3.259-4.875 1.214-5.92-1.214-5.92-3.259-4.875-4.875-3.259-5.92-1.214-5.92 1.214-4.875 3.259-3.259 4.875-1.214 5.92 1.214 5.92 3.259 4.875 4.875 3.259 5.92 1.214z"></path>
</symbol>
<symbol id="gsicon-yelp" viewBox="0 0 32 32">
<title>yelp</title>
<path d="M15.804 23.554v2.268q-0.018 5.214-0.107 5.446-0.214 0.571-0.911 0.714-0.964 0.161-3.241-0.679t-2.902-1.589q-0.232-0.268-0.304-0.643-0.018-0.214 0.071-0.464 0.071-0.179 0.607-0.839t3.232-3.857q0.018 0 1.071-1.25 0.268-0.339 0.705-0.438t0.884 0.063q0.429 0.179 0.67 0.518t0.223 0.75zM13.143 19.071q-0.054 0.982-0.929 1.25l-2.143 0.696q-4.911 1.571-5.214 1.571-0.625-0.036-0.964-0.643-0.214-0.446-0.304-1.339-0.143-1.357 0.018-2.973t0.536-2.223 1-0.571q0.232 0 3.607 1.375 1.25 0.518 2.054 0.839l1.5 0.607q0.411 0.161 0.634 0.545t0.205 0.866zM27.893 24.375q-0.125 0.964-1.634 2.875t-2.42 2.268q-0.661 0.25-1.125-0.125-0.25-0.179-3.286-5.125l-0.839-1.375q-0.25-0.375-0.205-0.821t0.348-0.821q0.625-0.768 1.482-0.464 0.018 0.018 2.125 0.714 3.625 1.179 4.321 1.42t0.839 0.366q0.5 0.393 0.393 1.089zM15.893 13.089q0.089 1.821-0.964 2.179-1.036 0.304-2.036-1.268l-6.75-10.679q-0.143-0.625 0.339-1.107 0.732-0.768 3.705-1.598t4.009-0.563q0.714 0.179 0.875 0.804 0.054 0.321 0.393 5.455t0.429 6.777zM27.714 15.018q0.054 0.696-0.464 1.054-0.268 0.179-5.875 1.536-1.196 0.268-1.625 0.411l0.018-0.036q-0.411 0.107-0.821-0.071t-0.661-0.571q-0.536-0.839 0-1.554 0.018-0.018 1.339-1.821 2.232-3.054 2.679-3.643t0.607-0.696q0.5-0.339 1.161-0.036 0.857 0.411 2.196 2.384t1.446 2.991v0.054z"></path>
</symbol>
<symbol id="gsicon-youtube" viewBox="0 0 32 32">
<title>youtube</title>
<path d="M23.2 6.937c1.428 0.144 3.285 0 4.285 1.144 1.143 1.143 1.287 2.999 1.287 4.428 0.142 1.714 0.142 4.144 0.142 5.713-0.142 1.573 0 3.428-0.716 4.859-0.712 1.569-1.999 2.143-3.57 2.284-1.716 0.142-12.286 0.142-15.713 0-1.572-0.142-3.429-0.142-4.572-1.428-1-1.144-1-2.857-1.143-4.285 0-1.715 0-4.144 0-5.857 0-1.572 0-3.428 0.714-4.857 0.715-1.428 2.143-1.714 3.714-1.856 1.714-0.144 12.141-0.286 15.571-0.144zM13.2 11.794v8.57l7.857-4.285-7.857-4.285z"></path>
</symbol>
<symbol id="gsicon-zerply" viewBox="0 0 32 32">
<title>zerply</title>
<path d="M10.903 1.417c0.721 0.182 1.218 0.354 1.816 0.546 0.911 0.183 1.56 0.39 2.386 0.532 3.265 0.714 7.379-0.313 10.129-0.646 0.084 0.24 0.247 0.641 0.246 1.025 0 0.547-0.301 1.2-0.461 1.565-0.68 1.543-1.871 2.327-2.8 3.562-1.992 2.635-4.253 5.23-6.576 7.555-1.398 1.401-3.607 3.199-4.525 4.965 3.826 0.226 5.903 2.644 8.837 3.886 1.155 0.488 3.256 1.346 5.065 0.755 0.667-0.219 1.175-0.733 1.723-1.079 0.135 0.968 0.363 2.147 0 3.13-0.68 1.846-3.108 4.119-6.142 3.13-3.482-1.134-5.495-4.016-8.946-5.287-1.164-0.431-2.485-0.541-3.988-0.541-0.676 0-1.99 0.274-2.261 0.109-1.098-1.622 0.734-4.588 1.399-5.289 2.304-2.426 4.657-4.86 6.683-7.555 1.196-1.592 2.93-2.93 3.879-4.75-0.035 0-0.071 0-0.107 0-0.388 0.253-1.173-0.002-1.725 0.109-2.774 0.548-6.416 0.345-6.359-2.483 0.069-0.614 0.012-0.374 0.431-1.187 0.356-0.685 0.742-1.321 1.296-2.051z"></path>
</symbol>
<symbol id="gsicon-500px" viewBox="0 0 32 32">
<title>500px</title>
<path d="M28.016 26.6c-0.226-0.228-0.42-0.36-0.588-0.408-0.17-0.050-0.32-0.014-0.44 0.106l-0.112 0.108c-1.16 1.16-2.52 2.076-4.024 2.714-1.56 0.66-3.22 0.996-4.928 0.996-1.71 0-3.368-0.334-4.93-0.994-1.506-0.636-2.86-1.548-4.024-2.712-1.212-1.212-2.124-2.566-2.714-4.024-0.574-1.424-0.76-2.494-0.82-2.844l-0.016-0.080c-0.080-0.412-0.46-0.44-1.008-0.36-0.228 0.040-0.92 0.144-0.856 0.64v0.014c0.186 1.154 0.51 2.286 0.966 3.364 0.734 1.73 1.78 3.284 3.12 4.62 1.334 1.336 2.89 2.384 4.62 3.116 1.794 0.76 3.7 1.144 5.664 1.144 1.96 0 3.866-0.384 5.66-1.144 1.732-0.732 3.288-1.78 4.624-3.12 0 0 0.076-0.072 0.116-0.116 0.146-0.16 0.274-0.44-0.308-1.020zM17.904 3.426c-1.876 0-3.872 0.38-5.34 1.014-0.154 0.060-0.248 0.188-0.268 0.366-0.020 0.166 0.026 0.386 0.14 0.674 0.088 0.232 0.33 0.848 0.8 0.67 1.5-0.572 3.16-0.888 4.668-0.888 1.714 0 3.376 0.34 4.94 1 1.24 0.524 2.414 1.284 3.688 2.388 0.092 0.080 0.192 0.12 0.292 0.12 0.25 0 0.488-0.24 0.692-0.472 0.34-0.38 0.574-0.7 0.24-1.016-1.22-1.152-2.552-2.014-4.2-2.71-1.79-0.76-3.692-1.14-5.652-1.14zM15.348 19.292c0 0.214 0.196 0.4 0.312 0.512l0.036 0.036c0.2 0.196 0.388 0.296 0.56 0.296 0.148 0 0.236-0.070 0.268-0.1 0.088-0.080 1.080-1.084 1.172-1.18l1.104 1.1c0.104 0.12 0.214 0.174 0.344 0.18 0.176 0 0.368-0.106 0.572-0.314 0.476-0.488 0.24-0.75 0.12-0.88l-1.12-1.116 1.17-1.176c0.256-0.28 0.030-0.572-0.196-0.8-0.326-0.324-0.64-0.41-0.846-0.22l-1.16 1.16-1.174-1.174c-0.060-0.060-0.14-0.090-0.226-0.090-0.156 0-0.34 0.104-0.55 0.314-0.36 0.36-0.44 0.608-0.25 0.806l1.174 1.172-1.17 1.166c-0.096 0.096-0.144 0.2-0.14 0.306zM7.902 21.024c0.008 0.020 0.174 0.48 0.27 0.704 0.526 1.248 1.28 2.368 2.244 3.33 0.96 0.96 2.080 1.716 3.326 2.244 1.292 0.546 2.664 0.824 4.080 0.824 1.412 0 2.784-0.28 4.076-0.824 1.25-0.528 2.37-1.284 3.33-2.244s1.72-2.080 2.246-3.33c0.546-1.292 0.82-2.664 0.82-4.080 0-1.412-0.274-2.784-0.82-4.074-0.528-1.248-1.284-2.368-2.246-3.33-0.96-0.96-2.080-1.716-3.328-2.244-1.29-0.544-2.66-0.82-4.076-0.82-1.43 0-2.86 0.28-4.134 0.82-1.020 0.432-2.74 1.54-3.75 2.58l-0.006 0.008v-8.62h14.48c0.528-0.006 0.528-0.74 0.528-0.984 0-0.24 0-0.98-0.526-0.984h-15.66c-0.424 0-0.688 0.354-0.688 0.684v12.132c0 0.392 0.488 0.674 0.94 0.772 0.886 0.188 1.090-0.094 1.306-0.394l0.030-0.040c0.332-0.49 1.366-1.53 1.376-1.54 1.61-1.614 3.766-2.506 6.070-2.506 2.292 0 4.444 0.89 6.060 2.5 1.616 1.62 2.508 3.766 2.508 6.040 0 2.286-0.89 4.432-2.5 6.040-1.59 1.592-3.812 2.504-6.094 2.504-1.546 0-3.040-0.412-4.32-1.192l0.008-7.376c0-0.98 0.428-2.052 1.14-2.86 0.82-0.924 1.946-1.432 3.174-1.432 1.19 0 2.3 0.452 3.13 1.272 0.82 0.814 1.272 1.9 1.272 3.054 0 2.464-1.94 4.396-4.414 4.396-0.48 0-1.346-0.212-1.38-0.22-0.5-0.15-0.714 0.544-0.784 0.774-0.27 0.88 0.136 1.054 0.22 1.080 0.796 0.246 1.32 0.294 2 0.294 3.496 0 6.34-2.844 6.34-6.34 0-3.468-2.84-6.288-6.334-6.288-1.708 0-3.314 0.654-4.52 1.84-1.15 1.13-1.81 2.64-1.81 4.134v0.040c-0.006 0.184-0.008 4.608-0.010 6.060l-0.006-0.008c-0.66-0.726-1.306-1.84-1.736-2.976-0.172-0.446-0.552-0.366-1.072-0.206-0.228 0.068-0.92 0.28-0.766 0.78l0.004 0.006z"></path>
</symbol>
<symbol id="gsicon-tribars" viewBox="0 0 32 32">
<title>tribars</title>
<path d="M29.929 24v2.286q0 0.464-0.339 0.804t-0.804 0.339h-25.143q-0.464 0-0.804-0.339t-0.339-0.804v-2.286q0-0.464 0.339-0.804t0.804-0.339h25.143q0.464 0 0.804 0.339t0.339 0.804zM29.929 14.857v2.286q0 0.464-0.339 0.804t-0.804 0.339h-25.143q-0.464 0-0.804-0.339t-0.339-0.804v-2.286q0-0.464 0.339-0.804t0.804-0.339h25.143q0.464 0 0.804 0.339t0.339 0.804zM29.929 5.714v2.286q0 0.464-0.339 0.804t-0.804 0.339h-25.143q-0.464 0-0.804-0.339t-0.339-0.804v-2.286q0-0.464 0.339-0.804t0.804-0.339h25.143q0.464 0 0.804 0.339t0.339 0.804z"></path>
</symbol>
<symbol id="gsicon-cc-remix" viewBox="0 0 32 32">
<title>cc-remix</title>
<path d="M15.972 0c4.476 0 8.266 1.552 11.371 4.657 3.104 3.086 4.657 6.867 4.657 11.343 0 4.477-1.524 8.229-4.572 11.257-3.218 3.162-7.038 4.743-11.456 4.743-4.325 0-8.076-1.572-11.257-4.715-3.143-3.142-4.715-6.903-4.715-11.284 0-4.361 1.572-8.143 4.715-11.342 3.104-3.106 6.857-4.658 11.257-4.658zM16.029 2.886c-3.637 0-6.714 1.286-9.229 3.857-2.61 2.648-3.914 5.734-3.914 9.256 0 3.563 1.295 6.628 3.885 9.2 2.591 2.591 5.676 3.886 9.257 3.886 3.561 0 6.667-1.304 9.314-3.914 2.514-2.438 3.771-5.494 3.771-9.171 0-3.656-1.276-6.742-3.828-9.257-2.534-2.572-5.62-3.857-9.257-3.857zM26.457 16.286l0.314 0.142v4.514l-0.286 0.142-3.886 1.657-0.172 0.058-0.2-0.056-8.657-3.572-4.143 1.715-4.085-1.771v-4.115l3.829-1.601-0.028-0.028v-4.514l4.343-1.914 9.8 4.057v3.972l3.171 1.315zM21.914 21.542v-2.827h-0.029v-0.115l-7.343-3v2.915l7.343 3.029v-0.029l0.029 0.027zM22.399 17.828l2.573-1.057-2.372-1-2.515 1.057 2.314 1zM25.771 20.286v-2.771l-2.857 1.2v2.8l2.858-1.229z"></path>
</symbol>
<symbol id="gsicon-cc-zero" viewBox="0 0 32 32">
<title>cc-zero</title>
<path d="M16 6.79c-5.282 0-6.611 4.984-6.611 9.21s1.328 9.209 6.611 9.209c5.282 0 6.611-4.983 6.611-9.209s-1.328-9.21-6.611-9.21zM16 10.263c0.215 0 0.41 0.033 0.594 0.079 0.381 0.328 0.567 0.78 0.201 1.412l-3.518 6.465c-0.108-0.817-0.123-1.62-0.123-2.218 0-1.861 0.129-5.736 2.846-5.736zM18.633 13.243c0.186 0.992 0.213 2.028 0.213 2.757 0 1.861-0.129 5.737-2.845 5.737-0.214 0-0.411-0.023-0.594-0.067-0.035-0.011-0.067-0.021-0.101-0.034-0.056-0.015-0.115-0.033-0.168-0.055-0.605-0.258-0.986-0.723-0.437-1.547l3.932-6.79zM15.966 0c-4.439 0-8.18 1.545-11.227 4.65-1.543 1.543-2.721 3.303-3.541 5.266-0.8 1.944-1.198 3.97-1.198 6.084 0 2.134 0.399 4.16 1.198 6.084 0.8 1.925 1.961 3.656 3.485 5.198 1.543 1.524 3.274 2.699 5.199 3.518 1.943 0.802 3.97 1.2 6.085 1.2s4.17-0.413 6.152-1.233c1.981-0.82 3.748-1.997 5.311-3.541 1.506-1.467 2.645-3.148 3.406-5.052 0.78-1.924 1.165-3.983 1.165-6.174 0-2.171-0.385-4.227-1.165-6.152-0.781-1.942-1.924-3.66-3.428-5.165-3.144-3.123-6.964-4.684-11.44-4.684zM16.033 2.88c3.619 0 6.706 1.283 9.277 3.854 1.238 1.239 2.188 2.655 2.835 4.236s0.974 3.259 0.974 5.030c0 3.677-1.258 6.727-3.753 9.165-1.296 1.258-2.751 2.224-4.37 2.89-1.6 0.667-3.249 0.997-4.964 0.997-1.733 0-3.394-0.326-4.974-0.974-1.582-0.667-3.001-1.619-4.258-2.858-1.258-1.257-2.228-2.677-2.913-4.258-0.667-1.599-1.009-3.249-1.009-4.963 0-1.733 0.342-3.393 1.008-4.974 0.686-1.6 1.656-3.037 2.913-4.314 2.495-2.551 5.575-3.831 9.232-3.831z"></path>
</symbol>
<symbol id="gsicon-cc-by" viewBox="0 0 32 32">
<title>cc-by</title>
<path d="M15.972 0c4.494 0 8.285 1.542 11.371 4.628 3.104 3.105 4.657 6.896 4.657 11.372 0 4.495-1.524 8.239-4.572 11.228-3.238 3.181-7.056 4.772-11.456 4.772-4.325 0-8.076-1.573-11.257-4.715-3.143-3.143-4.715-6.904-4.715-11.285s1.572-8.171 4.715-11.371c3.086-3.087 6.837-4.629 11.256-4.629zM16.029 2.886c-3.637 0-6.714 1.276-9.229 3.829-2.61 2.667-3.914 5.763-3.914 9.286 0 3.543 1.295 6.61 3.885 9.198 2.591 2.591 5.676 3.886 9.257 3.886 3.561 0 6.667-1.303 9.314-3.914 2.514-2.419 3.771-5.476 3.771-9.171 0-3.638-1.276-6.732-3.828-9.286-2.552-2.551-5.638-3.828-9.257-3.828zM20.314 12.028v6.542h-1.828v7.77h-4.971v-7.77h-1.828v-6.543c0-0.286 0.1-0.528 0.3-0.729s0.444-0.3 0.729-0.3h6.572c0.266 0 0.505 0.1 0.714 0.3 0.207 0.2 0.313 0.443 0.313 0.729zM13.771 7.915c0-1.504 0.742-2.257 2.229-2.257s2.229 0.752 2.229 2.257c0 1.486-0.743 2.229-2.229 2.229s-2.229-0.743-2.229-2.229z"></path>
</symbol>
<symbol id="gsicon-cc-cc" viewBox="0 0 32 32">
<title>cc-cc</title>
<path d="M15.971 0c4.476 0 8.286 1.563 11.428 4.686 1.505 1.505 2.648 3.224 3.428 5.157 0.782 1.934 1.173 3.986 1.173 6.157 0 2.191-0.386 4.243-1.157 6.156-0.771 1.914-1.91 3.605-3.414 5.072-1.561 1.543-3.333 2.724-5.314 3.543-1.98 0.819-4.029 1.229-6.143 1.229s-4.138-0.404-6.072-1.215c-1.933-0.809-3.667-1.98-5.2-3.514s-2.7-3.261-3.5-5.186c-0.8-1.924-1.2-3.951-1.2-6.085 0-2.114 0.405-4.148 1.214-6.1s1.986-3.7 3.529-5.243c3.048-3.104 6.79-4.657 11.228-4.657zM16.029 2.886c-3.656 0-6.733 1.276-9.229 3.829-1.258 1.276-2.224 2.709-2.9 4.3-0.677 1.591-1.014 3.252-1.014 4.986 0 1.715 0.337 3.366 1.014 4.957 0.677 1.592 1.642 3.011 2.9 4.258s2.675 2.2 4.258 2.857c1.581 0.657 3.238 0.986 4.971 0.986 1.714 0 3.375-0.332 4.986-1 1.61-0.668 3.061-1.629 4.357-2.886 2.494-2.438 3.741-5.495 3.741-9.172 0-1.771-0.323-3.447-0.971-5.029-0.646-1.581-1.59-2.99-2.827-4.229-2.573-2.572-5.668-3.858-9.287-3.858zM15.829 13.344l-2.143 1.114c-0.229-0.476-0.509-0.809-0.842-1s-0.643-0.286-0.929-0.286c-1.428 0-2.143 0.943-2.143 2.828 0 0.857 0.181 1.542 0.543 2.056s0.896 0.772 1.601 0.772c0.934 0 1.591-0.457 1.972-1.372l1.971 1c-0.419 0.781-1 1.395-1.742 1.843s-1.562 0.672-2.457 0.672c-1.428 0-2.582-0.438-3.457-1.314s-1.314-2.095-1.314-3.657c0-1.524 0.443-2.733 1.329-3.628s2.005-1.343 3.357-1.343c1.982-0.002 3.4 0.77 4.258 2.313zM25.057 13.344l-2.114 1.114c-0.229-0.476-0.511-0.809-0.843-1-0.334-0.19-0.654-0.286-0.957-0.286-1.428 0-2.143 0.943-2.143 2.828 0 0.857 0.181 1.542 0.543 2.056s0.895 0.772 1.601 0.772c0.932 0 1.59-0.457 1.97-1.372l2 1c-0.438 0.781-1.029 1.395-1.77 1.843s-1.552 0.672-2.428 0.672c-1.448 0-2.604-0.438-3.47-1.314-0.868-0.876-1.302-2.095-1.302-3.657 0-1.524 0.442-2.733 1.328-3.628s2.005-1.343 3.357-1.343c1.982-0.002 3.392 0.77 4.229 2.313z"></path>
</symbol>
<symbol id="gsicon-cc-nc-eu" viewBox="0 0 32 32">
<title>cc-nc-eu</title>
<path d="M27.352 4.639c-3.096-3.093-6.889-4.639-11.373-4.639-4.432 0-8.184 1.546-11.254 4.639-3.151 3.2-4.726 6.987-4.726 11.361 0 4.372 1.575 8.133 4.726 11.279 3.151 3.148 6.901 4.721 11.254 4.721 4.405 0 8.222-1.587 11.454-4.761 3.044-3.014 4.567-6.76 4.567-11.239s-1.55-8.268-4.648-11.361zM25.349 25.16c-2.643 2.613-5.754 3.918-9.33 3.918-3.578 0-6.662-1.294-9.252-3.881s-3.885-5.654-3.885-9.198c0-1.5 0.237-2.918 0.705-4.255l4.239 1.877h-0.306v1.902h1.501c0 0.269-0.027 0.537-0.027 0.804v0.456h-1.473v1.901h1.74c0.242 1.42 0.777 2.573 1.5 3.482 1.5 1.983 3.911 3.053 6.536 3.053 1.715 0 3.266-0.509 4.178-1.017l-0.643-2.972c-0.563 0.294-1.821 0.696-3.052 0.696-1.34 0-2.598-0.401-3.455-1.366-0.402-0.455-0.697-1.072-0.884-1.875h5.823l8.274 3.663c-0.572 1.014-1.299 1.953-2.189 2.812zM14.944 16.782l-0.035-0.027 0.060 0.027h-0.025zM19.926 15.523h0.239v-1.902h-4.535l-1.842-0.815c0.159-0.357 0.346-0.675 0.566-0.925 0.831-1.020 2.008-1.447 3.295-1.447 1.178 0 2.276 0.348 2.973 0.643l0.75-3.054c-0.965-0.428-2.384-0.803-4.017-0.803-2.518 0-4.66 1.018-6.188 2.732-0.339 0.392-0.633 0.831-0.899 1.296l-5.261-2.329c0.51-0.764 1.109-1.498 1.804-2.199 2.511-2.56 5.58-3.841 9.212-3.841 3.63 0 6.715 1.28 9.251 3.841 2.561 2.533 3.843 5.626 3.843 9.281 0 1.203-0.136 2.339-0.406 3.41l-8.783-3.887z"></path>
</symbol>
<symbol id="gsicon-cc-nc-jp" viewBox="0 0 32 32">
<title>cc-nc-jp</title>
<path d="M27.354 4.639c-3.098-3.093-6.888-4.639-11.375-4.639-4.431 0-8.183 1.546-11.252 4.639-3.151 3.2-4.726 6.987-4.726 11.361s1.575 8.134 4.726 11.28c3.149 3.146 6.901 4.72 11.252 4.72 4.406 0 8.224-1.587 11.454-4.76 3.044-3.013 4.567-6.761 4.567-11.24s-1.549-8.267-4.646-11.361zM25.351 25.16c-2.643 2.613-5.754 3.919-9.331 3.919-3.578 0-6.662-1.294-9.252-3.881-2.59-2.585-3.885-5.652-3.885-9.199 0-1.364 0.196-2.659 0.582-3.889l8.191 3.647h-1.803v2.491h3.748l0.367 0.761v1.207h-4.114v2.49h4.114v3.617h3.981v-3.617h4.14v-2.302l5.224 2.326c-0.535 0.87-1.189 1.68-1.965 2.429zM21.669 20.217h-3.716v-1.207l0.188-0.364 3.529 1.571zM22.092 16.904v-1.146h-2.489l4.063-7.484h-4.246l-2.797 6.194-1.485-0.661-2.556-5.533h-4.245l1.762 3.289-5.283-2.353c0.549-0.87 1.212-1.702 1.994-2.492 2.51-2.56 5.58-3.84 9.212-3.84 3.63 0 6.715 1.28 9.251 3.84 2.563 2.534 3.844 5.627 3.844 9.28 0 1.353-0.171 2.621-0.511 3.804l-6.512-2.899z"></path>
</symbol>
<symbol id="gsicon-cc-nc" viewBox="0 0 32 32">
<title>cc-nc</title>
<path d="M15.97 0c4.495 0 8.286 1.542 11.372 4.628 3.104 3.086 4.657 6.877 4.657 11.372s-1.524 8.239-4.572 11.229c-3.238 3.181-7.057 4.771-11.457 4.771-4.343 0-8.095-1.581-11.256-4.742-3.143-3.143-4.715-6.896-4.715-11.258 0-4.381 1.572-8.171 4.715-11.371 3.085-3.086 6.838-4.628 11.256-4.628zM3.6 11.686c-0.476 1.314-0.715 2.752-0.715 4.314 0 3.543 1.295 6.61 3.885 9.2 2.61 2.573 5.696 3.858 9.257 3.858 3.601 0 6.704-1.304 9.316-3.915 0.933-0.895 1.666-1.829 2.198-2.801l-6.028-2.686c-0.211 1.010-0.72 1.833-1.529 2.471-0.811 0.638-1.767 1.006-2.872 1.1v2.457h-1.857v-2.457c-1.771-0.018-3.391-0.656-4.857-1.913l2.2-2.229c1.047 0.971 2.238 1.456 3.572 1.456 0.552 0 1.024-0.123 1.415-0.372 0.39-0.247 0.586-0.656 0.586-1.229 0-0.401-0.143-0.724-0.429-0.971l-1.542-0.657-1.886-0.858-2.543-1.114-8.171-3.655zM16.029 2.857c-3.637 0-6.714 1.285-9.229 3.857-0.629 0.629-1.22 1.344-1.771 2.143l6.114 2.742c0.267-0.838 0.771-1.51 1.514-2.014 0.742-0.505 1.609-0.786 2.601-0.843v-2.457h1.857v2.457c1.467 0.076 2.8 0.572 4 1.486l-2.086 2.143c-0.896-0.629-1.809-0.943-2.743-0.943-0.495 0-0.938 0.095-1.328 0.286s-0.586 0.514-0.586 0.972c0 0.133 0.047 0.267 0.143 0.4l3.429 1.543 2.572 1.143 8.198 3.657c0.267-1.124 0.401-2.266 0.401-3.428 0-3.677-1.276-6.771-3.828-9.287-2.535-2.572-5.622-3.857-9.259-3.857z"></path>
</symbol>
<symbol id="gsicon-cc-nd" viewBox="0 0 32 32">
<title>cc-nd</title>
<path d="M15.972 0c4.476 0 8.266 1.552 11.371 4.657 3.104 3.086 4.657 6.867 4.657 11.343 0 4.477-1.524 8.229-4.572 11.257-3.218 3.162-7.038 4.743-11.456 4.743-4.325 0-8.076-1.572-11.257-4.715-3.143-3.142-4.715-6.903-4.715-11.284 0-4.361 1.572-8.143 4.715-11.342 3.104-3.106 6.857-4.658 11.257-4.658zM16.029 2.886c-3.637 0-6.714 1.286-9.229 3.857-2.61 2.648-3.914 5.734-3.914 9.256 0 3.563 1.295 6.628 3.885 9.2 2.591 2.591 5.676 3.886 9.257 3.886 3.561 0 6.667-1.304 9.314-3.914 2.514-2.438 3.771-5.494 3.771-9.171 0-3.656-1.276-6.742-3.828-9.257-2.534-2.572-5.62-3.857-9.257-3.857zM22.058 12.228v2.743h-11.629v-2.743h11.629zM22.058 17.372v2.741h-11.629v-2.741h11.629z"></path>
</symbol>
<symbol id="gsicon-cc-pd" viewBox="0 0 32 32">
<title>cc-pd</title>
<path d="M15.972 0c4.494 0 8.29 1.548 11.385 4.643s4.643 6.88 4.643 11.357c0 4.477-1.524 8.219-4.572 11.228-3.218 3.181-7.038 4.772-11.456 4.772-4.344 0-8.091-1.573-11.243-4.715s-4.729-6.904-4.729-11.285c0-4.38 1.572-8.171 4.715-11.371 3.086-3.087 6.838-4.629 11.257-4.629zM16.015 2.886c-3.628 0-6.7 1.276-9.214 3.829-2.61 2.648-3.914 5.743-3.914 9.286s1.295 6.61 3.885 9.198c2.591 2.591 5.676 3.886 9.257 3.886s6.686-1.303 9.315-3.914c2.514-2.439 3.771-5.495 3.771-9.171 0-3.657-1.276-6.752-3.828-9.286-2.553-2.551-5.645-3.828-9.273-3.828zM8.486 20.343v-8.857h4.4c2.171 0 3.257 0.999 3.257 3 0 0.343-0.052 0.671-0.157 0.986s-0.286 0.628-0.543 0.943c-0.257 0.314-0.643 0.572-1.157 0.771s-1.123 0.3-1.828 0.3h-1.743v2.857l-2.229-0.001zM10.685 13.143v2.686h1.886c0.457 0 0.8-0.129 1.029-0.386s0.344-0.576 0.344-0.957c0-0.895-0.476-1.343-1.429-1.343l-1.829 0.001zM16.742 20.343v-8.857h3.429c1.409 0 2.514 0.362 3.315 1.085 0.799 0.724 1.198 1.838 1.198 3.343s-0.401 2.619-1.198 3.343c-0.802 0.723-1.906 1.085-3.315 1.085h-3.429zM18.944 13.343v5.143h1.285c0.781 0 1.348-0.233 1.7-0.7s0.529-1.090 0.529-1.871c0-0.781-0.176-1.405-0.529-1.871s-0.928-0.7-1.729-0.7l-1.256-0.001z"></path>
</symbol>
<symbol id="gsicon-cc-sa" viewBox="0 0 32 32">
<title>cc-sa</title>
<path d="M15.972 0c4.476 0 8.266 1.552 11.371 4.657 3.104 3.086 4.657 6.867 4.657 11.343 0 4.477-1.524 8.229-4.572 11.257-3.218 3.162-7.038 4.743-11.456 4.743-4.325 0-8.076-1.572-11.257-4.715-3.143-3.142-4.715-6.903-4.715-11.284 0-4.361 1.572-8.143 4.715-11.342 3.104-3.106 6.857-4.658 11.257-4.658zM16.029 2.886c-3.637 0-6.714 1.286-9.229 3.857-2.61 2.648-3.914 5.734-3.914 9.256 0 3.563 1.295 6.628 3.885 9.2 2.591 2.591 5.676 3.886 9.257 3.886 3.561 0 6.667-1.304 9.314-3.914 2.514-2.438 3.771-5.494 3.771-9.171 0-3.656-1.276-6.742-3.828-9.257-2.534-2.572-5.62-3.857-9.257-3.857zM8.886 13.742c0.305-1.962 1.095-3.481 2.371-4.557s2.828-1.614 4.657-1.614c2.513 0 4.514 0.81 6 2.428s2.229 3.696 2.229 6.229c0 2.457-0.771 4.5-2.314 6.128-1.544 1.628-3.544 2.443-6.002 2.443-1.809 0-3.371-0.542-4.685-1.628s-2.104-2.628-2.372-4.628h4.029c0.095 1.944 1.267 2.915 3.514 2.915 1.123 0 2.029-0.486 2.714-1.457 0.686-0.971 1.030-2.267 1.030-3.886 0-1.695-0.315-2.986-0.943-3.872-0.629-0.886-1.532-1.329-2.715-1.329-2.134 0-3.334 0.943-3.6 2.828h1.171l-3.171 3.171-3.171-3.171 1.256 0.001z"></path>
</symbol>
<symbol id="gsicon-cc-sampling-plus" viewBox="0 0 32 32">
<title>cc-sampling-plus</title>
<path d="M15.98 0c-4.432 0-8.184 1.546-11.255 4.64-3.151 3.2-4.726 6.987-4.726 11.36s1.575 8.135 4.726 11.28c3.151 3.147 6.902 4.72 11.255 4.72 4.406 0 8.223-1.587 11.454-4.76 3.043-3.014 4.566-6.761 4.566-11.24s-1.549-8.267-4.645-11.36c-3.098-3.094-6.889-4.64-11.374-4.64zM16.020 2.88c3.631 0 6.715 1.28 9.252 3.841 2.563 2.533 3.843 5.626 3.843 9.28 0 3.68-1.254 6.734-3.764 9.16-2.643 2.614-5.755 3.921-9.332 3.921-3.578 0-6.662-1.296-9.251-3.881-2.591-2.587-3.885-5.654-3.885-9.2 0-3.547 1.308-6.64 3.925-9.28 2.51-2.561 5.58-3.841 9.211-3.841zM22.93 16.145c-0.303 0-0.577 0.183-0.692 0.462l-0.256 0.614-0.712-5.989c-0.047-0.382-0.373-0.668-0.761-0.662-0.384 0.008-0.701 0.305-0.733 0.689l-0.275 3.319-0.335-4.441c-0.030-0.389-0.355-0.693-0.746-0.693-0.392-0.001-0.718 0.301-0.749 0.691l-0.226 2.898-0.383-6.081c-0.025-0.396-0.352-0.704-0.749-0.704-0.396 0.001-0.723 0.309-0.747 0.705l-0.33 5.4-0.278-4.276c-0.025-0.396-0.351-0.702-0.747-0.702s-0.723 0.305-0.749 0.701l-0.339 5.173-0.267-3.675c-0.030-0.39-0.351-0.693-0.742-0.696s-0.72 0.296-0.753 0.686l-0.499 5.795-0.115-0.788c-0.049-0.326-0.303-0.583-0.63-0.633s-0.647 0.12-0.789 0.419l-0.849 1.786h-2.833v1.499h3.308c0.282 0 0.541-0.159 0.668-0.41l0.693 4.718c0.056 0.375 0.385 0.651 0.764 0.64 0.38-0.011 0.691-0.306 0.726-0.683l0.242-2.811 0.366 5.053c0.030 0.393 0.357 0.698 0.751 0.696s0.72-0.308 0.745-0.7l0.3-4.544 0.308 4.732c0.025 0.395 0.354 0.701 0.749 0.7 0.396 0 0.723-0.309 0.747-0.703l0.317-5.192 0.291 4.631c0.024 0.392 0.349 0.699 0.742 0.702s0.722-0.302 0.753-0.692l0.294-3.782 0.316 4.156c0.029 0.391 0.352 0.692 0.742 0.694 0.392 0.003 0.719-0.298 0.75-0.688l0.442-5.352 0.172 1.44c0.040 0.34 0.302 0.607 0.642 0.655 0.339 0.046 0.665-0.14 0.794-0.456l1.162-2.801h3.258v-1.5l-3.759-0.002zM17.898 16.483h-1.416v1.416c0 0.267-0.216 0.483-0.482 0.483-0.267 0-0.484-0.216-0.484-0.483v-1.416h-1.415c-0.267 0-0.483-0.216-0.483-0.482 0-0.267 0.217-0.483 0.483-0.483h1.415v-1.416c0-0.267 0.217-0.483 0.484-0.483s0.482 0.216 0.482 0.483v1.416h1.416c0.267 0 0.483 0.216 0.483 0.483 0 0.266-0.216 0.482-0.483 0.482z"></path>
</symbol>
<symbol id="gsicon-cc-sampling" viewBox="0 0 32 32">
<title>cc-sampling</title>
<path d="M15.972 0c4.494 0 8.29 1.548 11.385 4.643s4.643 6.88 4.643 11.357c0 4.477-1.524 8.219-4.572 11.228-3.218 3.181-7.038 4.772-11.456 4.772-4.344 0-8.091-1.573-11.243-4.715s-4.729-6.904-4.729-11.285c0-4.38 1.572-8.171 4.715-11.371 3.086-3.087 6.838-4.629 11.257-4.629zM16.015 2.886c-3.628 0-6.7 1.276-9.214 3.829-2.61 2.648-3.914 5.743-3.914 9.286s1.295 6.61 3.885 9.198c2.591 2.591 5.676 3.886 9.257 3.886s6.686-1.303 9.315-3.914c2.514-2.439 3.771-5.495 3.771-9.171 0-3.657-1.276-6.752-3.828-9.286-2.553-2.551-5.645-3.828-9.273-3.828zM16.257 6.314c0.191-0.019 0.358 0.034 0.501 0.157 0.142 0.125 0.223 0.282 0.242 0.471v0.114l0.428 6.914 0.314-3.829c0-0.191 0.067-0.352 0.198-0.486s0.296-0.2 0.486-0.2c0.191 0 0.352 0.067 0.486 0.2 0.133 0.133 0.2 0.295 0.2 0.486v0.114l0.369 5.143 0.372-4.143c0.018-0.171 0.091-0.315 0.215-0.428s0.27-0.171 0.442-0.171 0.323 0.053 0.457 0.157c0.134 0.105 0.21 0.243 0.23 0.415l0.743 6.229 0.343-0.828c0.114-0.286 0.333-0.429 0.656-0.429h3.743v1.372h-3.286l-1.171 2.857c-0.134 0.343-0.383 0.486-0.742 0.428-0.172-0.019-0.309-0.086-0.414-0.2s-0.167-0.258-0.186-0.428l-0.258-2.057-0.485 5.971c-0.020 0.171-0.091 0.314-0.215 0.427-0.124 0.114-0.271 0.172-0.444 0.172-0.171 0-0.323-0.057-0.457-0.172-0.133-0.114-0.209-0.256-0.229-0.427v-0.086l-0.399-4.944-0.343 4.657c-0.039 0.171-0.12 0.314-0.243 0.428-0.124 0.114-0.271 0.172-0.444 0.172-0.171 0-0.324-0.056-0.457-0.172s-0.21-0.258-0.229-0.428v-0.086l-0.372-5.572-0.371 6.114v0.086c0 0.191-0.068 0.357-0.2 0.5s-0.295 0.215-0.486 0.215c-0.191 0-0.352-0.072-0.486-0.215s-0.201-0.308-0.201-0.5v-0.057l-0.371-5.657-0.343 5.457v0.085c-0.039 0.172-0.119 0.315-0.242 0.428-0.124 0.114-0.271 0.171-0.443 0.171s-0.324-0.056-0.457-0.171c-0.133-0.114-0.21-0.258-0.229-0.428v-0.085h-0.028v-0.085l-0.4-5.714-0.315 3.657c-0.019 0.172-0.095 0.315-0.229 0.428-0.133 0.114-0.286 0.172-0.457 0.172s-0.319-0.052-0.444-0.157c-0.124-0.104-0.205-0.242-0.243-0.414l-0.714-4.914-0.085 0.171c-0.114 0.248-0.324 0.372-0.629 0.372h-3.314v-1.372h2.886l0.886-1.8c0.133-0.305 0.366-0.434 0.7-0.386s0.528 0.233 0.585 0.557l0.2 1.314 0.543-6.314c0-0.191 0.066-0.352 0.2-0.486s0.295-0.2 0.486-0.2c0.191 0 0.352 0.067 0.486 0.2s0.2 0.295 0.2 0.486v0.114l0.315 4.457 0.428-5.971v-0.085c0.018-0.171 0.090-0.314 0.214-0.428s0.271-0.171 0.444-0.171c0.172 0 0.323 0.057 0.457 0.171s0.209 0.257 0.229 0.428v0.085l0.343 5.2 0.4-6.314v-0.114c0-0.171 0.062-0.314 0.185-0.428 0.126-0.114 0.273-0.181 0.445-0.2z"></path>
</symbol>
<symbol id="gsicon-cc-share" viewBox="0 0 32 32">
<title>cc-share</title>
<path d="M15.972 0c4.476 0 8.266 1.552 11.371 4.657 3.104 3.086 4.657 6.867 4.657 11.343 0 4.477-1.524 8.229-4.572 11.257-3.218 3.162-7.038 4.743-11.456 4.743-4.325 0-8.076-1.572-11.257-4.715-3.143-3.142-4.715-6.903-4.715-11.284 0-4.361 1.572-8.143 4.715-11.342 3.104-3.106 6.857-4.658 11.257-4.658zM16.029 2.886c-3.637 0-6.714 1.286-9.229 3.857-2.61 2.648-3.914 5.734-3.914 9.256 0 3.563 1.295 6.628 3.885 9.2 2.591 2.591 5.676 3.886 9.257 3.886 3.561 0 6.667-1.304 9.314-3.914 2.514-2.438 3.771-5.494 3.771-9.171 0-3.656-1.276-6.742-3.828-9.257-2.534-2.572-5.62-3.857-9.257-3.857zM22.543 11.428c0.247 0 0.457 0.085 0.628 0.257 0.172 0.171 0.258 0.382 0.258 0.629v11.771c0 0.247-0.086 0.457-0.258 0.628-0.171 0.172-0.381 0.258-0.628 0.258h-8.714c-0.248 0-0.457-0.085-0.629-0.258-0.172-0.172-0.257-0.381-0.257-0.628v-3.486h-3.486c-0.248 0-0.457-0.085-0.629-0.257-0.171-0.171-0.257-0.381-0.257-0.629v-11.77c0-0.229 0.075-0.424 0.229-0.585 0.152-0.162 0.342-0.261 0.571-0.3h8.8c0.247 0 0.457 0.085 0.63 0.257 0.171 0.171 0.257 0.381 0.257 0.629v3.486h3.486zM10.314 18.857h2.628v-6.543c0-0.229 0.075-0.424 0.229-0.585 0.152-0.161 0.334-0.261 0.543-0.3h3.601v-2.6h-7v10.028zM21.686 13.171h-7v10.029h7v-10.029z"></path>
</symbol>
</defs>
</svg>
