<?xml version="1.0" encoding="utf-8"?>
<!-- Generated by IcoMoon.io -->
<!DOCTYPE svg PUBLIC "-//W3C//DTD SVG 1.1//EN" "http://www.w3.org/Graphics/SVG/1.1/DTD/svg11.dtd">
<svg version="1.1" xmlns="http://www.w3.org/2000/svg" xmlns:xlink="http://www.w3.org/1999/xlink" width="64" height="64" viewBox="0 0 64 64">
<path fill="rgb(0, 0, 0)" d="M56.032 53.2c-0.452-0.456-0.84-0.72-1.176-0.816-0.34-0.1-0.64-0.028-0.88 0.212l-0.224 0.216c-2.32 2.32-5.040 4.152-8.048 5.428-3.12 1.32-6.44 1.992-9.856 1.992-3.42 0-6.736-0.668-9.86-1.988-3.012-1.272-5.72-3.096-8.048-5.424-2.424-2.424-4.248-5.132-5.428-8.048-1.148-2.848-1.52-4.988-1.64-5.688l-0.032-0.16c-0.16-0.824-0.92-0.88-2.016-0.72-0.456 0.080-1.84 0.288-1.712 1.28v0.028c0.372 2.308 1.020 4.572 1.932 6.728 1.468 3.46 3.56 6.568 6.24 9.24 2.668 2.672 5.78 4.768 9.24 6.232 3.588 1.52 7.4 2.288 11.328 2.288 3.92 0 7.732-0.768 11.32-2.288 3.464-1.464 6.576-3.56 9.248-6.24 0 0 0.152-0.144 0.232-0.232 0.292-0.32 0.548-0.88-0.616-2.040zM35.808 6.852c-3.752 0-7.744 0.76-10.68 2.028-0.308 0.12-0.496 0.376-0.536 0.732-0.040 0.332 0.052 0.772 0.28 1.348 0.176 0.464 0.66 1.696 1.6 1.34 3-1.144 6.32-1.776 9.336-1.776 3.428 0 6.752 0.68 9.88 2 2.48 1.048 4.828 2.568 7.376 4.776 0.184 0.16 0.384 0.24 0.584 0.24 0.5 0 0.976-0.48 1.384-0.944 0.68-0.76 1.148-1.4 0.48-2.032-2.44-2.304-5.104-4.028-8.4-5.42-3.58-1.52-7.384-2.28-11.304-2.28zM30.696 38.584c0 0.428 0.392 0.8 0.624 1.024l0.072 0.072c0.4 0.392 0.776 0.592 1.12 0.592 0.296 0 0.472-0.14 0.536-0.2 0.176-0.16 2.16-2.168 2.344-2.36l2.208 2.2c0.208 0.24 0.428 0.348 0.688 0.36 0.352 0 0.736-0.212 1.144-0.628 0.952-0.976 0.48-1.5 0.24-1.76l-2.24-2.232 2.34-2.352c0.512-0.56 0.060-1.144-0.392-1.6-0.652-0.648-1.28-0.82-1.692-0.44l-2.32 2.32-2.348-2.348c-0.12-0.12-0.28-0.18-0.452-0.18-0.312 0-0.68 0.208-1.1 0.628-0.72 0.72-0.88 1.216-0.5 1.612l2.348 2.344-2.34 2.332c-0.192 0.192-0.288 0.4-0.28 0.612zM15.804 42.048c0.016 0.040 0.348 0.96 0.54 1.408 1.052 2.496 2.56 4.736 4.488 6.66 1.92 1.92 4.16 3.432 6.652 4.488 2.584 1.092 5.328 1.648 8.16 1.648 2.824 0 5.568-0.56 8.152-1.648 2.5-1.056 4.74-2.568 6.66-4.488s3.44-4.16 4.492-6.66c1.092-2.584 1.64-5.328 1.64-8.16 0-2.824-0.548-5.568-1.64-8.148-1.056-2.496-2.568-4.736-4.492-6.66-1.92-1.92-4.16-3.432-6.656-4.488-2.58-1.088-5.32-1.64-8.152-1.64-2.86 0-5.72 0.56-8.268 1.64-2.040 0.864-5.48 3.080-7.5 5.16l-0.012 0.016v-17.24h28.96c1.056-0.012 1.056-1.48 1.056-1.968 0-0.48 0-1.96-1.052-1.968h-31.32c-0.848 0-1.376 0.708-1.376 1.368v24.264c0 0.784 0.976 1.348 1.88 1.544 1.772 0.376 2.18-0.188 2.612-0.788l0.060-0.080c0.664-0.98 2.732-3.060 2.752-3.080 3.22-3.228 7.532-5.012 12.14-5.012 4.584 0 8.888 1.78 12.12 5 3.232 3.24 5.016 7.532 5.016 12.080 0 4.572-1.78 8.864-5 12.080-3.18 3.184-7.624 5.008-12.188 5.008-3.092 0-6.080-0.824-8.64-2.384l0.016-14.752c0-1.96 0.856-4.104 2.28-5.72 1.64-1.848 3.892-2.864 6.348-2.864 2.38 0 4.6 0.904 6.26 2.544 1.64 1.628 2.544 3.8 2.544 6.108 0 4.928-3.88 8.792-8.828 8.792-0.96 0-2.692-0.424-2.76-0.44-1-0.3-1.428 1.088-1.568 1.548-0.54 1.76 0.272 2.108 0.44 2.16 1.592 0.492 2.64 0.588 4 0.588 6.992 0 12.68-5.688 12.68-12.68 0-6.936-5.68-12.576-12.668-12.576-3.416 0-6.628 1.308-9.040 3.68-2.3 2.26-3.62 5.28-3.62 8.268v0.080c-0.012 0.368-0.016 9.216-0.020 12.12l-0.012-0.016c-1.32-1.452-2.612-3.68-3.472-5.952-0.344-0.892-1.104-0.732-2.144-0.412-0.456 0.136-1.84 0.56-1.532 1.56l0.008 0.012z"></path>
</svg>
