<?xml version="1.0" encoding="utf-8"?>
<!-- Generated by IcoMoon.io -->
<!DOCTYPE svg PUBLIC "-//W3C//DTD SVG 1.1//EN" "http://www.w3.org/Graphics/SVG/1.1/DTD/svg11.dtd">
<svg version="1.1" xmlns="http://www.w3.org/2000/svg" xmlns:xlink="http://www.w3.org/1999/xlink" width="32" height="32" viewBox="0 0 32 32">
<path fill="#444" d="M28.016 26.6c-0.226-0.228-0.42-0.36-0.588-0.408-0.17-0.050-0.32-0.014-0.44 0.106l-0.112 0.108c-1.16 1.16-2.52 2.076-4.024 2.714-1.56 0.66-3.22 0.996-4.928 0.996-1.71 0-3.368-0.334-4.93-0.994-1.506-0.636-2.86-1.548-4.024-2.712-1.212-1.212-2.124-2.566-2.714-4.024-0.574-1.424-0.76-2.494-0.82-2.844l-0.016-0.080c-0.080-0.412-0.46-0.44-1.008-0.36-0.228 0.040-0.92 0.144-0.856 0.64v0.014c0.186 1.154 0.51 2.286 0.966 3.364 0.734 1.73 1.78 3.284 3.12 4.62 1.334 1.336 2.89 2.384 4.62 3.116 1.794 0.76 3.7 1.144 5.664 1.144 1.96 0 3.866-0.384 5.66-1.144 1.732-0.732 3.288-1.78 4.624-3.12 0 0 0.076-0.072 0.116-0.116 0.146-0.16 0.274-0.44-0.308-1.020zM17.904 3.426c-1.876 0-3.872 0.38-5.34 1.014-0.154 0.060-0.248 0.188-0.268 0.366-0.020 0.166 0.026 0.386 0.14 0.674 0.088 0.232 0.33 0.848 0.8 0.67 1.5-0.572 3.16-0.888 4.668-0.888 1.714 0 3.376 0.34 4.94 1 1.24 0.524 2.414 1.284 3.688 2.388 0.092 0.080 0.192 0.12 0.292 0.12 0.25 0 0.488-0.24 0.692-0.472 0.34-0.38 0.574-0.7 0.24-1.016-1.22-1.152-2.552-2.014-4.2-2.71-1.79-0.76-3.692-1.14-5.652-1.14zM15.348 19.292c0 0.214 0.196 0.4 0.312 0.512l0.036 0.036c0.2 0.196 0.388 0.296 0.56 0.296 0.148 0 0.236-0.070 0.268-0.1 0.088-0.080 1.080-1.084 1.172-1.18l1.104 1.1c0.104 0.12 0.214 0.174 0.344 0.18 0.176 0 0.368-0.106 0.572-0.314 0.476-0.488 0.24-0.75 0.12-0.88l-1.12-1.116 1.17-1.176c0.256-0.28 0.030-0.572-0.196-0.8-0.326-0.324-0.64-0.41-0.846-0.22l-1.16 1.16-1.174-1.174c-0.060-0.060-0.14-0.090-0.226-0.090-0.156 0-0.34 0.104-0.55 0.314-0.36 0.36-0.44 0.608-0.25 0.806l1.174 1.172-1.17 1.166c-0.096 0.096-0.144 0.2-0.14 0.306zM7.902 21.024c0.008 0.020 0.174 0.48 0.27 0.704 0.526 1.248 1.28 2.368 2.244 3.33 0.96 0.96 2.080 1.716 3.326 2.244 1.292 0.546 2.664 0.824 4.080 0.824 1.412 0 2.784-0.28 4.076-0.824 1.25-0.528 2.37-1.284 3.33-2.244s1.72-2.080 2.246-3.33c0.546-1.292 0.82-2.664 0.82-4.080 0-1.412-0.274-2.784-0.82-4.074-0.528-1.248-1.284-2.368-2.246-3.33-0.96-0.96-2.080-1.716-3.328-2.244-1.29-0.544-2.66-0.82-4.076-0.82-1.43 0-2.86 0.28-4.134 0.82-1.020 0.432-2.74 1.54-3.75 2.58l-0.006 0.008v-8.62h14.48c0.528-0.006 0.528-0.74 0.528-0.984 0-0.24 0-0.98-0.526-0.984h-15.66c-0.424 0-0.688 0.354-0.688 0.684v12.132c0 0.392 0.488 0.674 0.94 0.772 0.886 0.188 1.090-0.094 1.306-0.394l0.030-0.040c0.332-0.49 1.366-1.53 1.376-1.54 1.61-1.614 3.766-2.506 6.070-2.506 2.292 0 4.444 0.89 6.060 2.5 1.616 1.62 2.508 3.766 2.508 6.040 0 2.286-0.89 4.432-2.5 6.040-1.59 1.592-3.812 2.504-6.094 2.504-1.546 0-3.040-0.412-4.32-1.192l0.008-7.376c0-0.98 0.428-2.052 1.14-2.86 0.82-0.924 1.946-1.432 3.174-1.432 1.19 0 2.3 0.452 3.13 1.272 0.82 0.814 1.272 1.9 1.272 3.054 0 2.464-1.94 4.396-4.414 4.396-0.48 0-1.346-0.212-1.38-0.22-0.5-0.15-0.714 0.544-0.784 0.774-0.27 0.88 0.136 1.054 0.22 1.080 0.796 0.246 1.32 0.294 2 0.294 3.496 0 6.34-2.844 6.34-6.34 0-3.468-2.84-6.288-6.334-6.288-1.708 0-3.314 0.654-4.52 1.84-1.15 1.13-1.81 2.64-1.81 4.134v0.040c-0.006 0.184-0.008 4.608-0.010 6.060l-0.006-0.008c-0.66-0.726-1.306-1.84-1.736-2.976-0.172-0.446-0.552-0.366-1.072-0.206-0.228 0.068-0.92 0.28-0.766 0.78l0.004 0.006z"></path>
</svg>
