<?xml version="1.0" encoding="utf-8"?>
<!-- Generated by IcoMoon.io -->
<!DOCTYPE svg PUBLIC "-//W3C//DTD SVG 1.1//EN" "http://www.w3.org/Graphics/SVG/1.1/DTD/svg11.dtd">
<svg version="1.1" xmlns="http://www.w3.org/2000/svg" xmlns:xlink="http://www.w3.org/1999/xlink" width="32" height="32" viewBox="0 0 32 32">
<path d="M14.356 8.268c0.576 0.805 0.866 1.776 0.866 2.905 0 1.162-0.294 2.1-0.874 2.808-0.328 0.395-0.803 0.757-1.434 1.081 0.959 0.357 1.684 0.914 2.174 1.68 0.488 0.772 0.732 1.699 0.732 2.794 0 1.129-0.278 2.14-0.839 3.035-0.355 0.597-0.797 1.095-1.331 1.507-0.599 0.463-1.312 0.778-2.127 0.954-0.818 0.168-1.705 0.254-2.661 0.254h-8.488v-19.051h9.104c2.295 0.032 3.923 0.71 4.877 2.033zM4.133 9.547v4.196h4.578c0.816 0 1.478-0.156 1.993-0.469 0.505-0.319 0.763-0.876 0.763-1.675 0-0.891-0.338-1.471-1.011-1.759-0.58-0.198-1.325-0.294-2.226-0.294h-4.097zM4.133 16.904v5.076h4.57c0.816 0 1.453-0.116 1.907-0.338 0.828-0.416 1.24-1.209 1.24-2.378 0-0.994-0.4-1.673-1.202-2.043-0.446-0.206-1.072-0.313-1.881-0.317h-4.635zM27.982 11.481c0.973 0.443 1.776 1.135 2.411 2.085 0.566 0.843 0.938 1.812 1.11 2.916 0.095 0.645 0.135 1.574 0.118 2.79h-10.143c0.057 1.419 0.546 2.407 1.461 2.977 0.553 0.353 1.223 0.528 2.003 0.528 0.83 0 1.505-0.215 2.020-0.647 0.286-0.233 0.534-0.551 0.753-0.969h3.716c-0.097 0.831-0.549 1.684-1.35 2.55-1.248 1.364-2.995 2.052-5.24 2.052-1.852 0-3.485-0.578-4.904-1.734-1.415-1.158-2.121-3.035-2.121-5.642 0-2.438 0.637-4.313 1.919-5.615 1.276-1.301 2.935-1.955 4.976-1.955 1.211 0 2.302 0.227 3.271 0.662zM22.538 14.665c-0.515 0.54-0.836 1.264-0.969 2.186h6.271c-0.067-0.98-0.391-1.726-0.973-2.23-0.578-0.505-1.297-0.759-2.155-0.759-0.935 0-1.661 0.271-2.174 0.803zM19.906 8.188h9.766v1.953h-9.766v-1.953z"></path>
</svg>
