<?xml version="1.0" encoding="utf-8"?>
<!-- Generated by IcoMoon.io -->
<!DOCTYPE svg PUBLIC "-//W3C//DTD SVG 1.1//EN" "http://www.w3.org/Graphics/SVG/1.1/DTD/svg11.dtd">
<svg version="1.1" xmlns="http://www.w3.org/2000/svg" xmlns:xlink="http://www.w3.org/1999/xlink" width="64" height="64" viewBox="0 0 64 64">
<path fill="rgb(0, 0, 0)" d="M28.712 16.535c1.152 1.61 1.732 3.552 1.732 5.81 0 2.323-0.587 4.2-1.747 5.615-0.656 0.79-1.606 1.514-2.869 2.163 1.919 0.713 3.369 1.827 4.349 3.361 0.977 1.545 1.465 3.399 1.465 5.589 0 2.258-0.557 4.28-1.678 6.069-0.709 1.194-1.594 2.19-2.663 3.014-1.198 0.927-2.625 1.556-4.253 1.907-1.637 0.336-3.41 0.508-5.322 0.508h-16.975v-38.101h18.207c4.589 0.065 7.847 1.419 9.754 4.066zM8.265 19.095v8.392h9.155c1.633 0 2.956-0.313 3.986-0.939 1.011-0.637 1.526-1.751 1.526-3.349 0-1.782-0.675-2.941-2.022-3.517-1.16-0.397-2.651-0.587-4.452-0.587h-8.194zM8.265 33.808v10.151h9.14c1.633 0 2.907-0.233 3.815-0.675 1.655-0.831 2.479-2.418 2.479-4.757 0-1.988-0.801-3.346-2.403-4.086-0.893-0.412-2.144-0.626-3.761-0.633h-9.27zM55.964 22.963c1.945 0.885 3.551 2.27 4.822 4.169 1.133 1.686 1.877 3.624 2.22 5.833 0.191 1.289 0.271 3.147 0.237 5.581h-20.287c0.114 2.838 1.091 4.814 2.922 5.955 1.106 0.706 2.445 1.057 4.005 1.057 1.659 0 3.010-0.431 4.040-1.293 0.572-0.465 1.068-1.103 1.507-1.938h7.431c-0.195 1.663-1.099 3.368-2.701 5.101-2.495 2.727-5.989 4.105-10.479 4.105-3.704 0-6.969-1.156-9.807-3.468-2.831-2.316-4.242-6.069-4.242-11.284 0-4.875 1.274-8.625 3.837-11.23 2.552-2.602 5.871-3.91 9.953-3.91 2.422 0 4.604 0.454 6.542 1.324zM45.077 29.33c-1.030 1.080-1.671 2.529-1.938 4.372h12.543c-0.133-1.961-0.782-3.452-1.945-4.459-1.156-1.011-2.594-1.518-4.311-1.518-1.869 0-3.323 0.542-4.349 1.606zM39.813 16.375h19.531v3.906h-19.531v-3.906z"></path>
</svg>
