<?xml version="1.0" encoding="utf-8"?>
<!-- Generated by IcoMoon.io -->
<!DOCTYPE svg PUBLIC "-//W3C//DTD SVG 1.1//EN" "http://www.w3.org/Graphics/SVG/1.1/DTD/svg11.dtd">
<svg version="1.1" xmlns="http://www.w3.org/2000/svg" xmlns:xlink="http://www.w3.org/1999/xlink" width="25" height="32" viewBox="0 0 25 32">
<path d="M14.554 15.339q0.143 1.125-0.902 1.804t-1.991 0.107q-0.696-0.304-0.955-1.036t-0.009-1.464 0.929-1.036q0.643-0.321 1.295-0.214t1.143 0.634 0.491 1.205zM16.536 14.964q-0.25-1.911-2.018-2.929t-3.518-0.232q-1.125 0.5-1.795 1.58t-0.616 2.313q0.071 1.625 1.384 2.768t2.955 1q1.625-0.143 2.714-1.5t0.893-3zM20.804 5.286q-0.357-0.482-1-0.795t-1.036-0.393-1.268-0.223q-5.196-0.839-10.107 0.036-0.768 0.125-1.179 0.214t-0.982 0.393-0.893 0.768q0.536 0.5 1.357 0.813t1.313 0.393 1.563 0.205q4.071 0.518 8 0.018 1.125-0.143 1.598-0.214t1.295-0.384 1.339-0.83zM21.821 23.768q-0.143 0.464-0.277 1.366t-0.25 1.5-0.509 1.25-1.036 1.009q-1.536 0.857-3.384 1.277t-3.607 0.393-3.598-0.33q-0.821-0.143-1.455-0.321t-1.366-0.482-1.304-0.777-0.929-1.098q-0.446-1.714-1.018-5.214l0.107-0.286 0.321-0.161q3.982 2.643 9.045 2.643t9.063-2.643q0.375 0.107 0.429 0.411t-0.089 0.804-0.143 0.661zM25.054 6.607q-0.464 2.982-1.982 11.696-0.089 0.536-0.482 1t-0.777 0.714-0.973 0.554q-4.5 2.25-10.893 1.571-4.429-0.482-7.036-2.482-0.268-0.214-0.455-0.473t-0.304-0.625-0.161-0.607-0.107-0.705-0.098-0.625q-0.161-0.893-0.473-2.679t-0.5-2.884-0.42-2.634-0.393-2.821q0.054-0.464 0.313-0.866t0.563-0.67 0.804-0.536 0.821-0.402 0.857-0.33q2.232-0.821 5.589-1.143 6.768-0.661 12.071 0.893 2.768 0.821 3.839 2.179 0.286 0.357 0.295 0.911t-0.098 0.964z"></path>
</svg>
