<?xml version="1.0" encoding="utf-8"?>
<!-- Generated by IcoMoon.io -->
<!DOCTYPE svg PUBLIC "-//W3C//DTD SVG 1.1//EN" "http://www.w3.org/Graphics/SVG/1.1/DTD/svg11.dtd">
<svg version="1.1" xmlns="http://www.w3.org/2000/svg" xmlns:xlink="http://www.w3.org/1999/xlink" width="50" height="64" viewBox="0 0 50 64">
<path fill="rgb(0, 0, 0)" d="M29.107 30.679q0.286 2.25-1.804 3.607t-3.982 0.214q-1.393-0.607-1.911-2.071t-0.018-2.929 1.857-2.071q1.286-0.643 2.589-0.429t2.286 1.268 0.982 2.411zM33.071 29.929q-0.5-3.821-4.036-5.857t-7.036-0.464q-2.25 1-3.589 3.161t-1.232 4.625q0.143 3.25 2.768 5.536t5.911 2q3.25-0.286 5.429-3t1.786-6zM41.607 10.571q-0.714-0.964-2-1.589t-2.071-0.786-2.536-0.446q-10.393-1.679-20.214 0.071-1.536 0.25-2.357 0.429t-1.964 0.786-1.786 1.536q1.071 1 2.714 1.625t2.625 0.786 3.125 0.411q8.143 1.036 16 0.036 2.25-0.286 3.196-0.429t2.589-0.768 2.679-1.661zM43.643 47.536q-0.286 0.929-0.554 2.732t-0.5 3-1.018 2.5-2.071 2.018q-3.071 1.714-6.768 2.554t-7.214 0.786-7.196-0.661q-1.643-0.286-2.911-0.643t-2.732-0.964-2.607-1.554-1.857-2.196q-0.893-3.429-2.036-10.429l0.214-0.571 0.643-0.321q7.964 5.286 18.089 5.286t18.125-5.286q0.75 0.214 0.857 0.821t-0.179 1.607-0.286 1.321zM50.107 13.214q-0.929 5.964-3.964 23.393-0.179 1.071-0.964 2t-1.554 1.429-1.946 1.107q-9 4.5-21.786 3.143-8.857-0.964-14.071-4.964-0.536-0.429-0.911-0.946t-0.607-1.25-0.321-1.214-0.214-1.411-0.196-1.25q-0.321-1.786-0.946-5.357t-1-5.768-0.839-5.268-0.786-5.643q0.107-0.929 0.625-1.732t1.125-1.339 1.607-1.071 1.643-0.804 1.714-0.661q4.464-1.643 11.179-2.286 13.536-1.321 24.143 1.786 5.536 1.643 7.679 4.357 0.571 0.714 0.589 1.821t-0.196 1.929z"></path>
</svg>
