<?xml version="1.0" encoding="utf-8"?>
<!-- Generated by IcoMoon.io -->
<!DOCTYPE svg PUBLIC "-//W3C//DTD SVG 1.1//EN" "http://www.w3.org/Graphics/SVG/1.1/DTD/svg11.dtd">
<svg version="1.1" xmlns="http://www.w3.org/2000/svg" xmlns:xlink="http://www.w3.org/1999/xlink" width="64" height="64" viewBox="0 0 64 64">
<path fill="rgb(0, 0, 0)" d="M55.731 25.169h-2.101c0 0-0.374 0-0.435 0-3.447 0-4.044-3.063-4.044-3.063l0.078 0.057c-0.402-9.883-7.911-17.73-18.174-17.794v0.012h-8.201c-10.227 0.066-18.479 8.216-18.479 18.453 0 0.042 0-0.036 0-0.036v0 18.42c0 10.228 8.207 18.348 18.474 18.408v0.006l18.471-0.012c9.236-0.191 18.306-8.174 18.306-18.402v0-12.413c0-1.963-1.924-3.636-3.894-3.636zM21.815 18.107c0.029 0 0.009 0.003 0.009 0.003v0h10.26c2.050 0.045 3.357 1.912 3.357 3.72s-1.307 3.339-3.357 3.339v0h-10.26c0 0-0.102 0-0.129 0-1.841 0-3.711-1.559-3.711-3.393s1.996-3.669 3.831-3.669zM40.776 45.956v0h-18.953v-0.108c0 0-0.102 0-0.129 0-1.84 0-3.678-1.769-3.678-3.606 0-1.834 1.831-3.291 3.672-3.291 0.027 0 0.102 0 0.102 0h19.148c2.056 0 3.141 1.637 3.141 3.45 0 1.805-1.25 3.555-3.303 3.555z"></path>
</svg>
