<?xml version="1.0" encoding="utf-8"?>
<!-- Generated by IcoMoon.io -->
<!DOCTYPE svg PUBLIC "-//W3C//DTD SVG 1.1//EN" "http://www.w3.org/Graphics/SVG/1.1/DTD/svg11.dtd">
<svg version="1.1" xmlns="http://www.w3.org/2000/svg" xmlns:xlink="http://www.w3.org/1999/xlink" width="32" height="32" viewBox="0 0 32 32">
<path d="M27.866 12.584h-1.051c0 0-0.187 0-0.217 0-1.724 0-2.022-1.532-2.022-1.532l0.039 0.029c-0.201-4.941-3.956-8.865-9.087-8.897v0.006h-4.101c-5.114 0.033-9.24 4.108-9.24 9.226 0 0.021 0-0.018 0-0.018v0 9.21c0 5.114 4.104 9.174 9.237 9.204v0.003l9.235-0.006c4.618-0.096 9.153-4.087 9.153-9.201v0-6.206c0-0.982-0.962-1.818-1.947-1.818zM10.907 9.053c0.015 0 0.004 0.002 0.004 0.002v0h5.13c1.025 0.022 1.679 0.956 1.679 1.86s-0.654 1.67-1.679 1.67v0h-5.13c0 0-0.051 0-0.064 0-0.92 0-1.855-0.779-1.855-1.697s0.998-1.834 1.915-1.834zM20.388 22.978v0h-9.476v-0.054c0 0-0.051 0-0.064 0-0.92 0-1.839-0.884-1.839-1.803 0-0.917 0.916-1.646 1.836-1.646 0.014 0 0.051 0 0.051 0h9.574c1.028 0 1.571 0.819 1.571 1.725 0 0.902-0.625 1.777-1.652 1.777z"></path>
</svg>
