<!-- Generated by IcoMoon.io -->
<svg version="1.1" xmlns="http://www.w3.org/2000/svg" width="32" height="32" viewBox="0 0 32 32">
<title>cc-by</title>
<path d="M15.972 0c4.494 0 8.285 1.542 11.371 4.628 3.104 3.105 4.657 6.896 4.657 11.372 0 4.495-1.524 8.239-4.572 11.228-3.238 3.181-7.056 4.772-11.456 4.772-4.325 0-8.076-1.573-11.257-4.715-3.143-3.143-4.715-6.904-4.715-11.285s1.572-8.171 4.715-11.371c3.086-3.087 6.837-4.629 11.256-4.629zM16.029 2.886c-3.637 0-6.714 1.276-9.229 3.829-2.61 2.667-3.914 5.763-3.914 9.286 0 3.543 1.295 6.61 3.885 9.198 2.591 2.591 5.676 3.886 9.257 3.886 3.561 0 6.667-1.303 9.314-3.914 2.514-2.419 3.771-5.476 3.771-9.171 0-3.638-1.276-6.732-3.828-9.286-2.552-2.551-5.638-3.828-9.257-3.828zM20.314 12.028v6.542h-1.828v7.77h-4.971v-7.77h-1.828v-6.543c0-0.286 0.1-0.528 0.3-0.729s0.444-0.3 0.729-0.3h6.572c0.266 0 0.505 0.1 0.714 0.3 0.207 0.2 0.313 0.443 0.313 0.729zM13.771 7.915c0-1.504 0.742-2.257 2.229-2.257s2.229 0.752 2.229 2.257c0 1.486-0.743 2.229-2.229 2.229s-2.229-0.743-2.229-2.229z"></path>
</svg>
