<?xml version="1.0" encoding="utf-8"?>
<!-- Generated by IcoMoon.io -->
<!DOCTYPE svg PUBLIC "-//W3C//DTD SVG 1.1//EN" "http://www.w3.org/Graphics/SVG/1.1/DTD/svg11.dtd">
<svg version="1.1" xmlns="http://www.w3.org/2000/svg" xmlns:xlink="http://www.w3.org/1999/xlink" width="32" height="32" viewBox="0 0 32 32">
<path d="M15.971 0c4.476 0 8.286 1.563 11.428 4.686 1.505 1.505 2.648 3.224 3.428 5.157 0.782 1.934 1.173 3.986 1.173 6.157 0 2.191-0.386 4.243-1.157 6.156-0.771 1.914-1.91 3.605-3.414 5.072-1.561 1.543-3.333 2.724-5.314 3.543-1.98 0.819-4.029 1.229-6.143 1.229s-4.138-0.404-6.072-1.215c-1.933-0.809-3.667-1.98-5.2-3.514s-2.7-3.261-3.5-5.186c-0.8-1.924-1.2-3.951-1.2-6.085 0-2.114 0.405-4.148 1.214-6.1s1.986-3.7 3.529-5.243c3.048-3.104 6.79-4.657 11.228-4.657zM16.029 2.886c-3.656 0-6.733 1.276-9.229 3.829-1.258 1.276-2.224 2.709-2.9 4.3-0.677 1.591-1.014 3.252-1.014 4.986 0 1.715 0.337 3.366 1.014 4.957 0.677 1.592 1.642 3.011 2.9 4.258s2.675 2.2 4.258 2.857c1.581 0.657 3.238 0.986 4.971 0.986 1.714 0 3.375-0.332 4.986-1 1.61-0.668 3.061-1.629 4.357-2.886 2.494-2.438 3.741-5.495 3.741-9.172 0-1.771-0.323-3.447-0.971-5.029-0.646-1.581-1.59-2.99-2.827-4.229-2.573-2.572-5.668-3.858-9.287-3.858zM15.829 13.344l-2.143 1.114c-0.229-0.476-0.509-0.809-0.842-1s-0.643-0.286-0.929-0.286c-1.428 0-2.143 0.943-2.143 2.828 0 0.857 0.181 1.542 0.543 2.056s0.896 0.772 1.601 0.772c0.934 0 1.591-0.457 1.972-1.372l1.971 1c-0.419 0.781-1 1.395-1.742 1.843s-1.562 0.672-2.457 0.672c-1.428 0-2.582-0.438-3.457-1.314s-1.314-2.095-1.314-3.657c0-1.524 0.443-2.733 1.329-3.628s2.005-1.343 3.357-1.343c1.982-0.002 3.4 0.77 4.258 2.313zM25.057 13.344l-2.114 1.114c-0.229-0.476-0.511-0.809-0.843-1-0.334-0.19-0.654-0.286-0.957-0.286-1.428 0-2.143 0.943-2.143 2.828 0 0.857 0.181 1.542 0.543 2.056s0.895 0.772 1.601 0.772c0.932 0 1.59-0.457 1.97-1.372l2 1c-0.438 0.781-1.029 1.395-1.77 1.843s-1.552 0.672-2.428 0.672c-1.448 0-2.604-0.438-3.47-1.314-0.868-0.876-1.302-2.095-1.302-3.657 0-1.524 0.442-2.733 1.328-3.628s2.005-1.343 3.357-1.343c1.982-0.002 3.392 0.77 4.229 2.313z"></path>
</svg>
