<?xml version="1.0" encoding="utf-8"?>
<!-- Generated by IcoMoon.io -->
<!DOCTYPE svg PUBLIC "-//W3C//DTD SVG 1.1//EN" "http://www.w3.org/Graphics/SVG/1.1/DTD/svg11.dtd">
<svg version="1.1" xmlns="http://www.w3.org/2000/svg" xmlns:xlink="http://www.w3.org/1999/xlink" width="32" height="32" viewBox="0 0 32 32">
<path d="M27.352 4.639c-3.096-3.093-6.889-4.639-11.373-4.639-4.432 0-8.184 1.546-11.254 4.639-3.151 3.2-4.726 6.987-4.726 11.361 0 4.372 1.575 8.133 4.726 11.279 3.151 3.148 6.901 4.721 11.254 4.721 4.405 0 8.222-1.587 11.454-4.761 3.044-3.014 4.567-6.76 4.567-11.239s-1.55-8.268-4.648-11.361zM25.349 25.16c-2.643 2.613-5.754 3.918-9.33 3.918-3.578 0-6.662-1.294-9.252-3.881s-3.885-5.654-3.885-9.198c0-1.5 0.237-2.918 0.705-4.255l4.239 1.877h-0.306v1.902h1.501c0 0.269-0.027 0.537-0.027 0.804v0.456h-1.473v1.901h1.74c0.242 1.42 0.777 2.573 1.5 3.482 1.5 1.983 3.911 3.053 6.536 3.053 1.715 0 3.266-0.509 4.178-1.017l-0.643-2.972c-0.563 0.294-1.821 0.696-3.052 0.696-1.34 0-2.598-0.401-3.455-1.366-0.402-0.455-0.697-1.072-0.884-1.875h5.823l8.274 3.663c-0.572 1.014-1.299 1.953-2.189 2.812zM14.944 16.782l-0.035-0.027 0.060 0.027h-0.025zM19.926 15.523h0.239v-1.902h-4.535l-1.842-0.815c0.159-0.357 0.346-0.675 0.566-0.925 0.831-1.020 2.008-1.447 3.295-1.447 1.178 0 2.276 0.348 2.973 0.643l0.75-3.054c-0.965-0.428-2.384-0.803-4.017-0.803-2.518 0-4.66 1.018-6.188 2.732-0.339 0.392-0.633 0.831-0.899 1.296l-5.261-2.329c0.51-0.764 1.109-1.498 1.804-2.199 2.511-2.56 5.58-3.841 9.212-3.841 3.63 0 6.715 1.28 9.251 3.841 2.561 2.533 3.843 5.626 3.843 9.281 0 1.203-0.136 2.339-0.406 3.41l-8.783-3.887z"></path>
</svg>
