<?xml version="1.0" encoding="utf-8"?>
<!-- Generated by IcoMoon.io -->
<!DOCTYPE svg PUBLIC "-//W3C//DTD SVG 1.1//EN" "http://www.w3.org/Graphics/SVG/1.1/DTD/svg11.dtd">
<svg version="1.1" xmlns="http://www.w3.org/2000/svg" xmlns:xlink="http://www.w3.org/1999/xlink" width="32" height="32" viewBox="0 0 32 32">
<path d="M15.97 0c4.495 0 8.286 1.542 11.372 4.628 3.104 3.086 4.657 6.877 4.657 11.372s-1.524 8.239-4.572 11.229c-3.238 3.181-7.057 4.771-11.457 4.771-4.343 0-8.095-1.581-11.256-4.742-3.143-3.143-4.715-6.896-4.715-11.258 0-4.381 1.572-8.171 4.715-11.371 3.085-3.086 6.838-4.628 11.256-4.628zM3.6 11.686c-0.476 1.314-0.715 2.752-0.715 4.314 0 3.543 1.295 6.61 3.885 9.2 2.61 2.573 5.696 3.858 9.257 3.858 3.601 0 6.704-1.304 9.316-3.915 0.933-0.895 1.666-1.829 2.198-2.801l-6.028-2.686c-0.211 1.010-0.72 1.833-1.529 2.471-0.811 0.638-1.767 1.006-2.872 1.1v2.457h-1.857v-2.457c-1.771-0.018-3.391-0.656-4.857-1.913l2.2-2.229c1.047 0.971 2.238 1.456 3.572 1.456 0.552 0 1.024-0.123 1.415-0.372 0.39-0.247 0.586-0.656 0.586-1.229 0-0.401-0.143-0.724-0.429-0.971l-1.542-0.657-1.886-0.858-2.543-1.114-8.171-3.655zM16.029 2.857c-3.637 0-6.714 1.285-9.229 3.857-0.629 0.629-1.22 1.344-1.771 2.143l6.114 2.742c0.267-0.838 0.771-1.51 1.514-2.014 0.742-0.505 1.609-0.786 2.601-0.843v-2.457h1.857v2.457c1.467 0.076 2.8 0.572 4 1.486l-2.086 2.143c-0.896-0.629-1.809-0.943-2.743-0.943-0.495 0-0.938 0.095-1.328 0.286s-0.586 0.514-0.586 0.972c0 0.133 0.047 0.267 0.143 0.4l3.429 1.543 2.572 1.143 8.198 3.657c0.267-1.124 0.401-2.266 0.401-3.428 0-3.677-1.276-6.771-3.828-9.287-2.535-2.572-5.622-3.857-9.259-3.857z"></path>
</svg>
