<?xml version="1.0" encoding="utf-8"?>
<!-- Generated by IcoMoon.io -->
<!DOCTYPE svg PUBLIC "-//W3C//DTD SVG 1.1//EN" "http://www.w3.org/Graphics/SVG/1.1/DTD/svg11.dtd">
<svg version="1.1" xmlns="http://www.w3.org/2000/svg" xmlns:xlink="http://www.w3.org/1999/xlink" width="32" height="32" viewBox="0 0 32 32">
<path d="M15.972 0c4.476 0 8.266 1.552 11.371 4.657 3.104 3.086 4.657 6.867 4.657 11.343 0 4.477-1.524 8.229-4.572 11.257-3.218 3.162-7.038 4.743-11.456 4.743-4.325 0-8.076-1.572-11.257-4.715-3.143-3.142-4.715-6.903-4.715-11.284 0-4.361 1.572-8.143 4.715-11.342 3.104-3.106 6.857-4.658 11.257-4.658zM16.029 2.886c-3.637 0-6.714 1.286-9.229 3.857-2.61 2.648-3.914 5.734-3.914 9.256 0 3.563 1.295 6.628 3.885 9.2 2.591 2.591 5.676 3.886 9.257 3.886 3.561 0 6.667-1.304 9.314-3.914 2.514-2.438 3.771-5.494 3.771-9.171 0-3.656-1.276-6.742-3.828-9.257-2.534-2.572-5.62-3.857-9.257-3.857zM26.457 16.286l0.314 0.142v4.514l-0.286 0.142-3.886 1.657-0.172 0.058-0.2-0.056-8.657-3.572-4.143 1.715-4.085-1.771v-4.115l3.829-1.601-0.028-0.028v-4.514l4.343-1.914 9.8 4.057v3.972l3.171 1.315zM21.914 21.542v-2.827h-0.029v-0.115l-7.343-3v2.915l7.343 3.029v-0.029l0.029 0.027zM22.399 17.828l2.573-1.057-2.372-1-2.515 1.057 2.314 1zM25.771 20.286v-2.771l-2.857 1.2v2.8l2.858-1.229z"></path>
</svg>
