<!-- Generated by IcoMoon.io -->
<svg version="1.1" xmlns="http://www.w3.org/2000/svg" width="32" height="32" viewBox="0 0 32 32">
<title>cc-sa</title>
<path d="M15.972 0c4.476 0 8.266 1.552 11.371 4.657 3.104 3.086 4.657 6.867 4.657 11.343 0 4.477-1.524 8.229-4.572 11.257-3.218 3.162-7.038 4.743-11.456 4.743-4.325 0-8.076-1.572-11.257-4.715-3.143-3.142-4.715-6.903-4.715-11.284 0-4.361 1.572-8.143 4.715-11.342 3.104-3.106 6.857-4.658 11.257-4.658zM16.029 2.886c-3.637 0-6.714 1.286-9.229 3.857-2.61 2.648-3.914 5.734-3.914 9.256 0 3.563 1.295 6.628 3.885 9.2 2.591 2.591 5.676 3.886 9.257 3.886 3.561 0 6.667-1.304 9.314-3.914 2.514-2.438 3.771-5.494 3.771-9.171 0-3.656-1.276-6.742-3.828-9.257-2.534-2.572-5.62-3.857-9.257-3.857zM8.886 13.742c0.305-1.962 1.095-3.481 2.371-4.557s2.828-1.614 4.657-1.614c2.513 0 4.514 0.81 6 2.428s2.229 3.696 2.229 6.229c0 2.457-0.771 4.5-2.314 6.128-1.544 1.628-3.544 2.443-6.002 2.443-1.809 0-3.371-0.542-4.685-1.628s-2.104-2.628-2.372-4.628h4.029c0.095 1.944 1.267 2.915 3.514 2.915 1.123 0 2.029-0.486 2.714-1.457 0.686-0.971 1.030-2.267 1.030-3.886 0-1.695-0.315-2.986-0.943-3.872-0.629-0.886-1.532-1.329-2.715-1.329-2.134 0-3.334 0.943-3.6 2.828h1.171l-3.171 3.171-3.171-3.171 1.256 0.001z"></path>
</svg>
