<!-- Generated by IcoMoon.io -->
<svg version="1.1" xmlns="http://www.w3.org/2000/svg" width="32" height="32" viewBox="0 0 32 32">
<title>cc-sampling</title>
<path d="M15.972 0c4.494 0 8.29 1.548 11.385 4.643s4.643 6.88 4.643 11.357c0 4.477-1.524 8.219-4.572 11.228-3.218 3.181-7.038 4.772-11.456 4.772-4.344 0-8.091-1.573-11.243-4.715s-4.729-6.904-4.729-11.285c0-4.38 1.572-8.171 4.715-11.371 3.086-3.087 6.838-4.629 11.257-4.629zM16.015 2.886c-3.628 0-6.7 1.276-9.214 3.829-2.61 2.648-3.914 5.743-3.914 9.286s1.295 6.61 3.885 9.198c2.591 2.591 5.676 3.886 9.257 3.886s6.686-1.303 9.315-3.914c2.514-2.439 3.771-5.495 3.771-9.171 0-3.657-1.276-6.752-3.828-9.286-2.553-2.551-5.645-3.828-9.273-3.828zM16.257 6.314c0.191-0.019 0.358 0.034 0.501 0.157 0.142 0.125 0.223 0.282 0.242 0.471v0.114l0.428 6.914 0.314-3.829c0-0.191 0.067-0.352 0.198-0.486s0.296-0.2 0.486-0.2c0.191 0 0.352 0.067 0.486 0.2 0.133 0.133 0.2 0.295 0.2 0.486v0.114l0.369 5.143 0.372-4.143c0.018-0.171 0.091-0.315 0.215-0.428s0.27-0.171 0.442-0.171 0.323 0.053 0.457 0.157c0.134 0.105 0.21 0.243 0.23 0.415l0.743 6.229 0.343-0.828c0.114-0.286 0.333-0.429 0.656-0.429h3.743v1.372h-3.286l-1.171 2.857c-0.134 0.343-0.383 0.486-0.742 0.428-0.172-0.019-0.309-0.086-0.414-0.2s-0.167-0.258-0.186-0.428l-0.258-2.057-0.485 5.971c-0.020 0.171-0.091 0.314-0.215 0.427-0.124 0.114-0.271 0.172-0.444 0.172-0.171 0-0.323-0.057-0.457-0.172-0.133-0.114-0.209-0.256-0.229-0.427v-0.086l-0.399-4.944-0.343 4.657c-0.039 0.171-0.12 0.314-0.243 0.428-0.124 0.114-0.271 0.172-0.444 0.172-0.171 0-0.324-0.056-0.457-0.172s-0.21-0.258-0.229-0.428v-0.086l-0.372-5.572-0.371 6.114v0.086c0 0.191-0.068 0.357-0.2 0.5s-0.295 0.215-0.486 0.215c-0.191 0-0.352-0.072-0.486-0.215s-0.201-0.308-0.201-0.5v-0.057l-0.371-5.657-0.343 5.457v0.085c-0.039 0.172-0.119 0.315-0.242 0.428-0.124 0.114-0.271 0.171-0.443 0.171s-0.324-0.056-0.457-0.171c-0.133-0.114-0.21-0.258-0.229-0.428v-0.085h-0.028v-0.085l-0.4-5.714-0.315 3.657c-0.019 0.172-0.095 0.315-0.229 0.428-0.133 0.114-0.286 0.172-0.457 0.172s-0.319-0.052-0.444-0.157c-0.124-0.104-0.205-0.242-0.243-0.414l-0.714-4.914-0.085 0.171c-0.114 0.248-0.324 0.372-0.629 0.372h-3.314v-1.372h2.886l0.886-1.8c0.133-0.305 0.366-0.434 0.7-0.386s0.528 0.233 0.585 0.557l0.2 1.314 0.543-6.314c0-0.191 0.066-0.352 0.2-0.486s0.295-0.2 0.486-0.2c0.191 0 0.352 0.067 0.486 0.2s0.2 0.295 0.2 0.486v0.114l0.315 4.457 0.428-5.971v-0.085c0.018-0.171 0.090-0.314 0.214-0.428s0.271-0.171 0.444-0.171c0.172 0 0.323 0.057 0.457 0.171s0.209 0.257 0.229 0.428v0.085l0.343 5.2 0.4-6.314v-0.114c0-0.171 0.062-0.314 0.185-0.428 0.126-0.114 0.273-0.181 0.445-0.2z"></path>
</svg>
