<?xml version="1.0" encoding="utf-8"?>
<!-- Generated by IcoMoon.io -->
<!DOCTYPE svg PUBLIC "-//W3C//DTD SVG 1.1//EN" "http://www.w3.org/Graphics/SVG/1.1/DTD/svg11.dtd">
<svg version="1.1" xmlns="http://www.w3.org/2000/svg" xmlns:xlink="http://www.w3.org/1999/xlink" width="32" height="32" viewBox="0 0 32 32">
<path d="M16 6.79c-5.282 0-6.611 4.984-6.611 9.21s1.328 9.209 6.611 9.209c5.282 0 6.611-4.983 6.611-9.209s-1.328-9.21-6.611-9.21zM16 10.263c0.215 0 0.41 0.033 0.594 0.079 0.381 0.328 0.567 0.78 0.201 1.412l-3.518 6.465c-0.108-0.817-0.123-1.62-0.123-2.218 0-1.861 0.129-5.736 2.846-5.736zM18.633 13.243c0.186 0.992 0.213 2.028 0.213 2.757 0 1.861-0.129 5.737-2.845 5.737-0.214 0-0.411-0.023-0.594-0.067-0.035-0.011-0.067-0.021-0.101-0.034-0.056-0.015-0.115-0.033-0.168-0.055-0.605-0.258-0.986-0.723-0.437-1.547l3.932-6.79z"></path>
<path d="M15.966 0c-4.439 0-8.18 1.545-11.227 4.65-1.543 1.543-2.721 3.303-3.541 5.266-0.8 1.944-1.198 3.97-1.198 6.084 0 2.134 0.399 4.16 1.198 6.084 0.8 1.925 1.961 3.656 3.485 5.198 1.543 1.524 3.274 2.699 5.199 3.518 1.943 0.802 3.97 1.2 6.085 1.2s4.17-0.413 6.152-1.233c1.981-0.82 3.748-1.997 5.311-3.541 1.506-1.467 2.645-3.148 3.406-5.052 0.78-1.924 1.165-3.983 1.165-6.174 0-2.171-0.385-4.227-1.165-6.152-0.781-1.942-1.924-3.66-3.428-5.165-3.144-3.123-6.964-4.684-11.44-4.684zM16.033 2.88c3.619 0 6.706 1.283 9.277 3.854 1.238 1.239 2.188 2.655 2.835 4.236s0.974 3.259 0.974 5.030c0 3.677-1.258 6.727-3.753 9.165-1.296 1.258-2.751 2.224-4.37 2.89-1.6 0.667-3.249 0.997-4.964 0.997-1.733 0-3.394-0.326-4.974-0.974-1.582-0.667-3.001-1.619-4.258-2.858-1.258-1.257-2.228-2.677-2.913-4.258-0.667-1.599-1.009-3.249-1.009-4.963 0-1.733 0.342-3.393 1.008-4.974 0.686-1.6 1.656-3.037 2.913-4.314 2.495-2.551 5.575-3.831 9.232-3.831z"></path>
</svg>
