<?xml version="1.0" encoding="utf-8"?>
<!-- Generated by IcoMoon.io -->
<!DOCTYPE svg PUBLIC "-//W3C//DTD SVG 1.1//EN" "http://www.w3.org/Graphics/SVG/1.1/DTD/svg11.dtd">
<svg version="1.1" xmlns="http://www.w3.org/2000/svg" xmlns:xlink="http://www.w3.org/1999/xlink" width="64" height="64" viewBox="0 0 64 64">
<path fill="rgb(0, 0, 0)" d="M7.714 41.75l21.536 14.357v-12.821l-11.929-7.964zM5.5 36.607l6.893-4.607-6.893-4.607v9.214zM34.75 56.107l21.536-14.357-9.607-6.429-11.929 7.964v12.821zM32 38.5l9.714-6.5-9.714-6.5-9.714 6.5zM17.321 28.679l11.929-7.964v-12.821l-21.536 14.357zM51.607 32l6.893 4.607v-9.214zM46.679 28.679l9.607-6.429-21.536-14.357v12.821zM64 22.25v19.5q0 1.464-1.214 2.286l-29.25 19.5q-0.75 0.464-1.536 0.464t-1.536-0.464l-29.25-19.5q-1.214-0.821-1.214-2.286v-19.5q0-1.464 1.214-2.286l29.25-19.5q0.75-0.464 1.536-0.464t1.536 0.464l29.25 19.5q1.214 0.821 1.214 2.286z"></path>
</svg>
