<?xml version="1.0" encoding="utf-8"?>
<!-- Generated by IcoMoon.io -->
<!DOCTYPE svg PUBLIC "-//W3C//DTD SVG 1.1//EN" "http://www.w3.org/Graphics/SVG/1.1/DTD/svg11.dtd">
<svg version="1.1" xmlns="http://www.w3.org/2000/svg" xmlns:xlink="http://www.w3.org/1999/xlink" width="73" height="64" viewBox="0 0 73 64">
<path fill="rgb(0, 0, 0)" d="M11.714 10.071h7.286v35.107h-19v-24.893h11.714v-10.214zM11.714 39.321v-13.179h-4.393v13.179h4.393zM21.929 20.286v24.893h7.321v-24.893h-7.321zM21.929 10.071v7.286h7.321v-7.286h-7.321zM32.179 20.286h19.036v33.643h-19.036v-5.821h11.714v-2.929h-11.714v-24.893zM43.893 39.321v-13.179h-4.393v13.179h4.393zM54.143 20.286h19v33.643h-19v-5.821h11.679v-2.929h-11.679v-24.893zM65.821 39.321v-13.179h-4.393v13.179h4.393z"></path>
</svg>
