<?xml version="1.0" encoding="utf-8"?>
<!-- Generated by IcoMoon.io -->
<!DOCTYPE svg PUBLIC "-//W3C//DTD SVG 1.1//EN" "http://www.w3.org/Graphics/SVG/1.1/DTD/svg11.dtd">
<svg version="1.1" xmlns="http://www.w3.org/2000/svg" xmlns:xlink="http://www.w3.org/1999/xlink" width="32" height="32" viewBox="0 0 32 32">
<path fill="#444" d="M16.584 31.54c-3.804 0-7.28-1.39-9.968-3.688l-6.616 0.904 2.556-6.31c-0.89-1.966-1.39-4.146-1.39-6.446 0-8.58 6.9-15.54 15.42-15.54 8.51 0 15.414 6.96 15.414 15.54 0 8.584-6.9 15.54-15.416 15.54zM25.004 15.956v-0.044c0-4.484-3.164-7.68-8.616-7.68h-5.888v15.54h5.8c5.494 0 8.7-3.332 8.7-7.816zM16.45 19.952h-1.72v-7.9h1.72c2.53 0 4.21 1.44 4.21 3.928v0.040c0 2.512-1.68 3.932-4.208 3.932z"></path>
</svg>
