<?xml version="1.0" encoding="utf-8"?>
<!-- Generated by IcoMoon.io -->
<!DOCTYPE svg PUBLIC "-//W3C//DTD SVG 1.1//EN" "http://www.w3.org/Graphics/SVG/1.1/DTD/svg11.dtd">
<svg version="1.1" xmlns="http://www.w3.org/2000/svg" xmlns:xlink="http://www.w3.org/1999/xlink" width="64" height="64" viewBox="0 0 64 64">
<path fill="rgb(0, 0, 0)" d="M33.168 63.080c-7.608 0-14.56-2.78-19.936-7.376l-13.232 1.808 5.112-12.62c-1.78-3.932-2.78-8.292-2.78-12.892 0-17.16 13.8-31.080 30.84-31.080 17.020 0 30.828 13.92 30.828 31.080 0 17.168-13.8 31.080-30.832 31.080zM50.008 31.912v-0.088c0-8.968-6.328-15.36-17.232-15.36h-11.776v31.080h11.6c10.988 0 17.4-6.664 17.4-15.632zM32.9 39.904h-3.44v-15.8h3.44c5.060 0 8.42 2.88 8.42 7.856v0.080c0 5.024-3.36 7.864-8.416 7.864z"></path>
</svg>
