<?xml version="1.0" encoding="utf-8"?>
<!-- Generated by IcoMoon.io -->
<!DOCTYPE svg PUBLIC "-//W3C//DTD SVG 1.1//EN" "http://www.w3.org/Graphics/SVG/1.1/DTD/svg11.dtd">
<svg version="1.1" xmlns="http://www.w3.org/2000/svg" xmlns:xlink="http://www.w3.org/1999/xlink" width="64" height="64" viewBox="0 0 64 64">
<path fill="rgb(0, 0, 0)" d="M40.571 53.571q-1.5-8.607-5-17.786h-0.071l-0.071 0.036q-0.571 0.214-1.536 0.589t-3.607 1.75-4.893 2.929-4.679 4.089-3.679 5.286l-0.536-0.393q6.571 5.357 14.929 5.357 4.714 0 9.143-1.857zM33.964 31.893q-0.75-1.75-1.893-3.964-11.107 3.321-24.036 3.321-0.036 0.25-0.036 0.75 0 4.429 1.571 8.446t4.429 7.196q1.786-3.179 4.411-5.946t5.089-4.446 4.661-2.893 3.554-1.714l1.321-0.464q0.143-0.036 0.464-0.125t0.464-0.161zM30.143 24.321q-4.286-7.607-8.714-13.5-4.929 2.321-8.357 6.643t-4.571 9.714q10.786 0 21.643-2.857zM54.571 35.714q-7.5-2.143-14.607-1.036 3.107 8.536 4.571 16.75 3.964-2.679 6.607-6.768t3.429-8.946zM25.821 9.25q-0.036 0-0.071 0.036 0.036-0.036 0.071-0.036zM46.893 14.429q-6.607-5.857-15.464-5.857-2.714 0-5.536 0.679 4.679 6.071 8.786 13.643 2.464-0.929 4.643-2.161t3.446-2.196 2.339-2.036 1.339-1.446zM54.857 31.75q-0.107-8.286-5.321-14.643l-0.036 0.036q-0.321 0.429-0.679 0.875t-1.554 1.589-2.536 2.161-3.571 2.321-4.696 2.304q0.893 1.893 1.571 3.393 0.071 0.214 0.232 0.625t0.268 0.589q1.286-0.179 2.661-0.25t2.625-0.071 2.464 0.054 2.286 0.143 2.018 0.196 1.714 0.232 1.304 0.214 0.893 0.161zM58.857 32q0 7.464-3.679 13.768t-9.982 9.982-13.768 3.679-13.768-3.679-9.982-9.982-3.679-13.768 3.679-13.768 9.982-9.982 13.768-3.679 13.768 3.679 9.982 9.982 3.679 13.768z"></path>
</svg>
