<?xml version="1.0" encoding="utf-8"?>
<!-- Generated by IcoMoon.io -->
<!DOCTYPE svg PUBLIC "-//W3C//DTD SVG 1.1//EN" "http://www.w3.org/Graphics/SVG/1.1/DTD/svg11.dtd">
<svg version="1.1" xmlns="http://www.w3.org/2000/svg" xmlns:xlink="http://www.w3.org/1999/xlink" width="64" height="64" viewBox="0 0 64 64">
<path fill="rgb(0, 0, 0)" d="M14.357 25.25l17.643 10.893-12.214 10.179-17.5-11.393zM49.571 45.071v3.857l-17.5 10.464v0.036l-0.036-0.036-0.036 0.036v-0.036l-17.464-10.464v-3.857l5.25 3.429 12.214-10.143v-0.071l0.036 0.036 0.036-0.036v0.071l12.25 10.143zM19.786 4.214l12.214 10.179-17.643 10.857-12.071-9.643zM49.643 25.25l12.071 9.679-17.464 11.393-12.25-10.179zM44.25 4.214l17.464 11.393-12.071 9.643-17.643-10.857z"></path>
</svg>
