<?xml version="1.0" encoding="utf-8"?>
<!-- Generated by IcoMoon.io -->
<!DOCTYPE svg PUBLIC "-//W3C//DTD SVG 1.1//EN" "http://www.w3.org/Graphics/SVG/1.1/DTD/svg11.dtd">
<svg version="1.1" xmlns="http://www.w3.org/2000/svg" xmlns:xlink="http://www.w3.org/1999/xlink" width="32" height="32" viewBox="0 0 32 32">
<path d="M22.839 28.321q-0.089-0.339-0.429-0.089-0.536 0.393-1.554 0.696t-2.339 0.304q-2.304 0-3.446-0.875-0.089-0.071-0.232-0.071-0.196 0-0.464 0.214-0.125 0.107-0.134 0.286t0.134 0.357q0.607 0.571 1.563 0.821t1.83 0.223 1.768-0.080q0.732-0.071 1.509-0.366t1.161-0.536 0.509-0.366q0.214-0.214 0.125-0.518zM22.143 26.268q-0.339-0.839-0.696-1.089-0.411-0.268-1.357-0.268-0.839 0-1.268 0.179-0.518 0.214-1.393 1-0.464 0.429-0.214 0.786 0.161 0.143 0.313 0.080t0.563-0.42q0.054-0.036 0.188-0.152t0.188-0.152 0.179-0.125 0.205-0.125 0.223-0.089 0.268-0.080 0.295-0.045 0.366-0.018q0.482 0 0.795 0.134t0.411 0.259 0.241 0.393q0.179 0.304 0.223 0.357t0.223-0.018q0.411-0.214 0.25-0.607zM28.482 21.25q0-0.393-0.089-0.795t-0.295-0.804-0.607-0.652-0.938-0.25q-0.589 0-1.732 0.741t-2.304 1.491-1.804 0.75q-0.482 0.018-1.134-0.339t-1.357-0.875-1.491-1.036-1.786-0.875-1.982-0.339q-2.054 0.018-3.518 1.402t-1.5 3.188q-0.036 2 1.321 2.929 0.518 0.357 1.116 0.509t1.848 0.152q1.018 0 2.357-0.58t2.393-1.268 2.143-1.259 1.661-0.554q0.464 0.018 1.161 0.563t1.277 1.196 1.214 1.205 0.991 0.571q0.625 0.054 1.045-0.25t0.991-1.125q0.5-0.732 0.759-1.804t0.259-1.893zM29.429 18.393q0 2.929-1.107 5.438t-2.964 4.214-4.33 2.67-5.188 0.964-5.232-1.027-4.42-2.804-3.045-4.313-1.143-5.393q0-1.589 0.348-3.080t0.875-2.598 1.259-2.116 1.402-1.679 1.402-1.241 1.152-0.83 0.759-0.438q0.25-0.143 0.911-0.473t0.973-0.509 0.857-0.536 1.080-0.786q0.643-0.5 1.036-1.295t0.536-2.241q2.304 2.768 3.321 3.446 0.786 0.518 2.321 1.214t2.304 1.179q0.375 0.232 0.696 0.446t1.080 0.83 1.357 1.259 1.339 1.696 1.232 2.179 0.839 2.652 0.348 3.17z"></path>
</svg>
