<?xml version="1.0" encoding="utf-8"?>
<!-- Generated by IcoMoon.io -->
<!DOCTYPE svg PUBLIC "-//W3C//DTD SVG 1.1//EN" "http://www.w3.org/Graphics/SVG/1.1/DTD/svg11.dtd">
<svg version="1.1" xmlns="http://www.w3.org/2000/svg" xmlns:xlink="http://www.w3.org/1999/xlink" width="64" height="64" viewBox="0 0 64 64">
<path fill="rgb(0, 0, 0)" d="M45.679 56.643q-0.179-0.679-0.857-0.179-1.071 0.786-3.107 1.393t-4.679 0.607q-4.607 0-6.893-1.75-0.179-0.143-0.464-0.143-0.393 0-0.929 0.429-0.25 0.214-0.268 0.571t0.268 0.714q1.214 1.143 3.125 1.643t3.661 0.446 3.536-0.161q1.464-0.143 3.018-0.732t2.321-1.071 1.018-0.732q0.429-0.429 0.25-1.036zM44.286 52.536q-0.679-1.679-1.393-2.179-0.821-0.536-2.714-0.536-1.679 0-2.536 0.357-1.036 0.429-2.786 2-0.929 0.857-0.429 1.571 0.321 0.286 0.625 0.161t1.125-0.839q0.107-0.071 0.375-0.304t0.375-0.304 0.357-0.25 0.411-0.25 0.446-0.179 0.536-0.161 0.589-0.089 0.732-0.036q0.964 0 1.589 0.268t0.821 0.518 0.482 0.786q0.357 0.607 0.446 0.714t0.446-0.036q0.821-0.429 0.5-1.214zM56.964 42.5q0-0.786-0.179-1.589t-0.589-1.607-1.214-1.304-1.875-0.5q-1.179 0-3.464 1.482t-4.607 2.982-3.607 1.5q-0.964 0.036-2.268-0.679t-2.714-1.75-2.982-2.071-3.571-1.75-3.964-0.679q-4.107 0.036-7.036 2.804t-3 6.375q-0.071 4 2.643 5.857 1.036 0.714 2.232 1.018t3.696 0.304q2.036 0 4.714-1.161t4.786-2.536 4.286-2.518 3.321-1.107q0.929 0.036 2.321 1.125t2.554 2.393 2.429 2.411 1.982 1.143q1.25 0.107 2.089-0.5t1.982-2.25q1-1.464 1.518-3.607t0.518-3.786zM58.857 36.786q0 5.857-2.214 10.875t-5.929 8.429-8.661 5.339-10.375 1.929-10.464-2.054-8.839-5.607-6.089-8.625-2.286-10.786q0-3.179 0.696-6.161t1.75-5.196 2.518-4.232 2.804-3.357 2.804-2.482 2.304-1.661 1.518-0.875q0.5-0.286 1.821-0.946t1.946-1.018 1.714-1.071 2.161-1.571q1.286-1 2.071-2.589t1.071-4.482q4.607 5.536 6.643 6.893 1.571 1.036 4.643 2.429t4.607 2.357q0.75 0.464 1.393 0.893t2.161 1.661 2.714 2.518 2.679 3.393 2.464 4.357 1.679 5.304 0.696 6.339z"></path>
</svg>
