<!-- Generated by IcoMoon.io -->
<svg version="1.1" xmlns="http://www.w3.org/2000/svg" width="32" height="32" viewBox="0 0 32 32">
<title>edge</title>
<path d="M10.244 18.906c0 0.742 0.112 1.427 0.339 2.044 0.242 0.595 0.56 1.12 0.953 1.604 0.409 0.454 0.878 0.875 1.424 1.211 0.54 0.333 1.119 0.606 1.739 0.833 0.617 0.227 1.257 0.379 1.905 0.499 0.665 0.091 1.323 0.152 1.961 0.152 0.825 0 1.604-0.061 2.331-0.182 0.726-0.152 1.423-0.333 2.119-0.545 0.696-0.242 1.364-0.515 2.056-0.817 0.669-0.302 1.364-0.639 2.060-1.030v6.57c-0.787 0.393-1.568 0.723-2.331 0.999-0.787 0.272-1.547 0.515-2.342 0.696s-1.591 0.332-2.409 0.423-1.664 0.136-2.528 0.136c-1.157 0-2.287-0.136-3.368-0.409-1.075-0.265-2.089-0.636-3.042-1.15-0.95-0.499-1.817-1.12-2.604-1.817-0.795-0.726-1.468-1.544-2.032-2.422-0.571-0.908-1.011-1.883-1.319-2.936-0.311-1.060-0.463-2.18-0.463-3.39 0-1.271 0.182-2.482 0.53-3.633 0.348-1.158 0.848-2.218 1.508-3.186 0.657-0.969 1.453-1.831 2.397-2.584 0.939-0.745 2.001-1.366 3.185-1.836-0.643 0.638-1.143 1.406-1.506 2.285-0.363 0.881-0.59 1.771-0.688 2.658h11.033c0-1.115-0.106-2.084-0.348-2.916-0.211-0.833-0.576-1.529-1.089-2.074-0.515-0.554-1.15-0.969-1.953-1.241-0.807-0.272-1.763-0.416-2.893-0.416-1.333 0-2.664 0.189-3.996 0.598-1.332 0.384-2.594 0.939-3.793 1.651-1.207 0.712-2.312 1.544-3.311 2.501-1.014 0.968-1.862 2.009-2.543 3.144 0.136-1.315 0.432-2.573 0.833-3.769 0.407-1.196 0.939-2.308 1.574-3.346 0.635-1.014 1.393-1.938 2.25-2.77 0.854-0.834 1.807-1.559 2.852-2.135 1.060-0.585 2.166-1.056 3.377-1.363 1.21-0.285 2.502-0.445 3.857-0.445 0.798 0 1.591 0.069 2.384 0.216 0.787 0.139 1.544 0.337 2.301 0.592 1.484 0.51 2.815 1.227 3.996 2.136 1.18 0.923 2.149 1.967 2.965 3.163 0.789 1.196 1.395 2.515 1.819 3.956 0.413 1.44 0.629 2.933 0.629 4.487v3.855l-19.82 0.001z"></path>
</svg>
