<?xml version="1.0" encoding="utf-8"?>
<!-- Generated by IcoMoon.io -->
<!DOCTYPE svg PUBLIC "-//W3C//DTD SVG 1.1//EN" "http://www.w3.org/Graphics/SVG/1.1/DTD/svg11.dtd">
<svg version="1.1" xmlns="http://www.w3.org/2000/svg" xmlns:xlink="http://www.w3.org/1999/xlink" width="64" height="64" viewBox="0 0 64 64">
<path fill="rgb(0, 0, 0)" d="M22.912 6.52c0-0.868 0.088-1.388 1.568-1.388h19.912c3.48 0 5.392 2.96 6.78 8.52l1.132 4.44h3.392c0.608-12.612 1.132-18.092 1.132-18.092s-8.52 0.96-13.568 0.96h-25.48l-13.644-0.44v3.652l4.608 0.872c3.216 0.612 4 1.308 4.26 4.264 0 0 0.26 8.696 0.26 23.040 0 14.352-0.26 22.96-0.26 22.96 0 2.608-1.040 3.56-4.26 4.176l-4.608 0.868v3.648l13.652-0.44h22.78c5.136 0 17.048 0.44 17.048 0.44 0.26-3.132 2-17.304 2.26-18.868h-3.216l-3.392 7.736c-2.696 6.088-6.608 6.52-10.96 6.52h-12.956c-4.348 0-6.44-1.736-6.44-5.48v-19.816s9.656 0 12.788 0.26c2.44 0.172 3.912 0.868 4.696 4.26l1.040 4.52h3.74l-0.26-11.388 0.52-11.48h-3.736l-1.216 5.040c-0.784 3.308-1.308 3.92-4.696 4.264-4.44 0.44-12.872 0.352-12.872 0.352v-23.4z"></path>
</svg>
