<!-- Generated by IcoMoon.io -->
<svg version="1.1" xmlns="http://www.w3.org/2000/svg" width="32" height="32" viewBox="0 0 32 32">
<title>etsy</title>
<path d="M11.456 3.26c0-0.434 0.044-0.694 0.784-0.694h9.956c1.74 0 2.696 1.48 3.39 4.26l0.566 2.22h1.696c0.304-6.306 0.566-9.046 0.566-9.046s-4.26 0.48-6.784 0.48h-12.74l-6.822-0.22v1.826l2.304 0.436c1.608 0.306 2 0.654 2.13 2.132 0 0 0.13 4.348 0.13 11.52 0 7.176-0.13 11.48-0.13 11.48 0 1.304-0.52 1.78-2.13 2.088l-2.304 0.434v1.824l6.826-0.22h11.39c2.568 0 8.524 0.22 8.524 0.22 0.13-1.566 1-8.652 1.13-9.434h-1.608l-1.696 3.868c-1.348 3.044-3.304 3.26-5.48 3.26h-6.478c-2.174 0-3.22-0.868-3.22-2.74v-9.908s4.828 0 6.394 0.13c1.22 0.086 1.956 0.434 2.348 2.13l0.52 2.26h1.87l-0.13-5.694 0.26-5.74h-1.868l-0.608 2.52c-0.392 1.654-0.654 1.96-2.348 2.132-2.22 0.22-6.436 0.176-6.436 0.176v-11.7z"></path>
</svg>
