<?xml version="1.0" encoding="utf-8"?>
<!-- Generated by IcoMoon.io -->
<!DOCTYPE svg PUBLIC "-//W3C//DTD SVG 1.1//EN" "http://www.w3.org/Graphics/SVG/1.1/DTD/svg11.dtd">
<svg version="1.1" xmlns="http://www.w3.org/2000/svg" xmlns:xlink="http://www.w3.org/1999/xlink" width="32" height="32" viewBox="0 0 32 32">
<path d="M10.15 8.191c-0.008-0.030 0-1.955 0-1.955v-5.861l-7.799 7.816h5.85c0 0 1.959 0.027 1.949 0zM27.894 4.296c-0.587-0.975-3.656-1.632-5.248-1.632s-4.105 0-4.105 0-1.371-1.921-4.458-2.223c-2.49-0.245-1.981 0.749-1.981 1.888v7.816h-7.801c0 0-1.973-0.524-1.973 0.836 0 2.523 0.336 10.738 5.783 11.554 6.444 0.965 7.414-0.625 7.414-0.977 0-1.463 0.25-3.174 0.25-3.174s2.499 2.939 5.345 2.832c2.793-0.107 3.381 1.732 3.381 3.356 0 1.625 0 3.016 0 3.016s-0.011 1.107-1.688 1.107c-1.675 0-3.099 0-3.099 0s-1.173-0.123-1.173-1.344c0-1.219 0.739-1.545 1.41-1.545 0.669 0 1.173 0.082 1.173 0.082v-2.197c0 0-5.265-0.735-5.265 3.256 0 3.984 2.094 4.68 4.357 4.68s3.687 0 3.687 0 5.77-0.059 5.77-12.752c0-12.695-1.193-13.6-1.778-14.578zM21.18 15.294c0 0 0.418-1.629 1.675-1.629s2.464 2.559 2.464 2.559-2.633-0.93-4.139-0.93z"></path>
</svg>
