<?xml version="1.0" encoding="utf-8"?>
<!-- Generated by IcoMoon.io -->
<!DOCTYPE svg PUBLIC "-//W3C//DTD SVG 1.1//EN" "http://www.w3.org/Graphics/SVG/1.1/DTD/svg11.dtd">
<svg version="1.1" xmlns="http://www.w3.org/2000/svg" xmlns:xlink="http://www.w3.org/1999/xlink" width="64" height="64" viewBox="0 0 64 64">
<path fill="rgb(0, 0, 0)" d="M20.3 16.382c-0.016-0.061 0-3.909 0-3.909v-11.723l-15.598 15.632h11.7c0 0 3.919 0.053 3.899 0zM55.787 8.592c-1.175-1.949-7.313-3.265-10.496-3.265s-8.21 0-8.21 0-2.741-3.841-8.915-4.447c-4.981-0.49-3.963 1.499-3.963 3.776v15.632h-15.602c0 0-3.945-1.049-3.945 1.672 0 5.047 0.671 21.477 11.566 23.107 12.887 1.93 14.827-1.25 14.827-1.955 0-2.926 0.5-6.348 0.5-6.348s4.997 5.878 10.69 5.665c5.587-0.214 6.761 3.465 6.761 6.711 0 3.251 0 6.032 0 6.032s-0.021 2.215-3.375 2.215c-3.351 0-6.199 0-6.199 0s-2.346-0.246-2.346-2.688c0-2.439 1.478-3.090 2.82-3.090 1.339 0 2.346 0.164 2.346 0.164v-4.393c0 0-10.53-1.471-10.53 6.512 0 7.968 4.189 9.36 8.714 9.36s7.374 0 7.374 0 11.539-0.117 11.539-25.503c0-25.39-2.386-27.2-3.557-29.155zM42.361 30.588c0 0 0.837-3.258 3.351-3.258s4.928 5.118 4.928 5.118-5.266-1.86-8.278-1.86z"></path>
</svg>
