<?xml version="1.0" encoding="utf-8"?>
<!-- Generated by IcoMoon.io -->
<!DOCTYPE svg PUBLIC "-//W3C//DTD SVG 1.1//EN" "http://www.w3.org/Graphics/SVG/1.1/DTD/svg11.dtd">
<svg version="1.1" xmlns="http://www.w3.org/2000/svg" xmlns:xlink="http://www.w3.org/1999/xlink" width="46" height="64" viewBox="0 0 46 64">
<path fill="rgb(0, 0, 0)" d="M35.714 17.5l1.321-6.929q0.179-0.821-0.321-1.429t-1.25-0.607h-25.429q-0.821 0-1.375 0.607t-0.554 1.321v39.321q0 0.25 0.214 0.036l10.393-12.571q0.821-0.929 1.357-1.196t1.714-0.268h8.536q0.786 0 1.321-0.518t0.643-1.054q0.857-4.643 1.321-6.821 0.143-0.75-0.411-1.429t-1.304-0.679h-10.5q-1.036 0-1.714-0.679t-0.679-1.714v-1.5q0-1.036 0.679-1.696t1.714-0.661h12.357q0.643 0 1.25-0.482t0.714-1.054zM43.821 9.571q-0.536 2.607-1.911 9.518t-2.482 12.5-1.25 6.196q-0.214 0.786-0.321 1.161t-0.5 1.161-0.875 1.179-1.375 0.75-2.071 0.357h-9.679q-0.464 0-0.786 0.357-0.286 0.321-15.214 17.643-0.786 0.893-2.089 1.018t-1.732-0.196q-1.964-0.786-1.964-3.5v-50.357q0-1.964 1.357-3.661t4.286-1.696h31.714q3.393 0 4.536 1.893t0.357 5.679zM43.821 9.571l-5.643 28.214q0.143-0.607 1.25-6.196t2.482-12.5 1.911-9.518z"></path>
</svg>
