<?xml version="1.0" encoding="utf-8"?>
<!-- Generated by IcoMoon.io -->
<!DOCTYPE svg PUBLIC "-//W3C//DTD SVG 1.1//EN" "http://www.w3.org/Graphics/SVG/1.1/DTD/svg11.dtd">
<svg version="1.1" xmlns="http://www.w3.org/2000/svg" xmlns:xlink="http://www.w3.org/1999/xlink" width="64" height="64" viewBox="0 0 64 64">
<path fill="rgb(0, 0, 0)" d="M51.75 3.182c-6.156 3.354-12.505 0.523-17.083 0-20.21-2.318-26.633 18.218-11.908 26.45-3.79 1.714-3.541 10.418 0.516 11.656-9.565 0.956-11.341 12.7-6.211 17.489 6.24 5.823 25.435 5.434 31.064 0 3.929-3.801 4.478-11.63 1.036-15.24-3.138-3.299-18.88-3.797-18.639-8.968 0.169-3.618 5.863-3.047 9.32-4.486 6.5-2.706 10.323-10.806 7.767-17.039 1.45-0.234 2.688-0.656 4.138-0.893-0-2.988-0-5.976-0-8.968zM26.901 22.015c-7.576-14.377 17.423-13.348 9.839 0-2.486 1.604-7.382 1.765-9.839 0zM40.882 50.259c0.67 6.445-14.318 6.73-16.054 2.241-1.457-3.783 0.359-4.856 4.662-5.83 4.874-1.106 10.942-0.725 11.392 3.589z"></path>
</svg>
