<!-- Generated by IcoMoon.io -->
<svg version="1.1" xmlns="http://www.w3.org/2000/svg" width="32" height="32" viewBox="0 0 32 32">
<title>github</title>
<path d="M16.016 0c-8.84 0-16 7.164-16 16 0 7.070 4.584 13.066 10.94 15.18 0.8 0.15 1.094-0.344 1.094-0.77 0-0.38-0.014-1.386-0.020-2.72-4.452 0.966-5.39-2.146-5.39-2.146-0.728-1.848-1.78-2.34-1.78-2.34-1.45-0.992 0.112-0.972 0.112-0.972 1.606 0.112 2.45 1.648 2.45 1.648 1.428 2.446 3.746 1.74 4.66 1.33 0.144-1.034 0.556-1.74 1.014-2.14-3.554-0.4-7.288-1.776-7.288-7.906 0-1.746 0.62-3.174 1.646-4.294-0.166-0.404-0.716-2.030 0.154-4.234 0 0 1.344-0.43 4.4 1.64 1.276-0.356 2.646-0.532 4.006-0.54 1.36 0.008 2.728 0.184 4.006 0.54 3.054-2.070 4.396-1.64 4.396-1.64 0.874 2.204 0.326 3.83 0.16 4.234 1.026 1.12 1.646 2.548 1.646 4.294 0 6.146-3.74 7.5-7.306 7.894 0.574 0.492 1.086 1.47 1.086 2.96 0 2.14-0.020 3.866-0.020 4.39 0 0.43 0.288 0.926 1.1 0.77 6.354-2.118 10.934-8.11 10.934-15.178 0-8.836-7.164-16-16-16"></path>
</svg>
