<!-- Generated by IcoMoon.io -->
<svg version="1.1" xmlns="http://www.w3.org/2000/svg" width="32" height="32" viewBox="0 0 32 32">
<title>gitlab</title>
<path d="M15.994 30.015v0l5.605-17.247h-11.21l5.605 17.247z"></path>
<path d="M2.535 12.768v0l-1.706 5.24c-0.154 0.476 0.012 1.001 0.42 1.298l14.738 10.709-13.453-17.247z"></path>
<path d="M2.535 12.768h7.854l-3.374-10.388c-0.173-0.531-0.927-0.531-1.106 0l-3.374 10.388z"></path>
<path d="M29.447 12.768v0l1.706 5.24c0.154 0.476-0.012 1.001-0.42 1.298l-14.738 10.709 13.453-17.247z"></path>
<path d="M29.447 12.768h-7.854l3.374-10.388c0.173-0.531 0.927-0.531 1.106 0l3.374 10.388z"></path>
</svg>
