<?xml version="1.0" encoding="utf-8"?>
<!-- Generated by IcoMoon.io -->
<!DOCTYPE svg PUBLIC "-//W3C//DTD SVG 1.1//EN" "http://www.w3.org/Graphics/SVG/1.1/DTD/svg11.dtd">
<svg version="1.1" xmlns="http://www.w3.org/2000/svg" xmlns:xlink="http://www.w3.org/1999/xlink" width="64" height="64" viewBox="0 0 64 64">
<path fill="rgb(0, 0, 0)" d="M20.36 29.092v6.98h11.56c-0.464 3-3.492 8.788-11.548 8.788-6.948 0-12.62-5.76-12.62-12.86s5.66-12.86 12.608-12.86c3.96 0 6.608 1.688 8.12 3.144l5.528-5.32c-3.548-3.32-8.148-5.32-13.64-5.32-11.268-0.004-20.368 9.092-20.368 20.356s9.104 20.36 20.36 20.36c11.76 0 19.552-8.26 19.552-19.896 0-1.336-0.144-2.36-0.32-3.372h-19.232zM64 29.092h-5.82v-5.82h-5.82v5.82h-5.816v5.816h5.82v5.82h5.82v-5.82h5.816z"></path>
</svg>
