<?xml version="1.0" encoding="utf-8"?>
<!-- Generated by IcoMoon.io -->
<!DOCTYPE svg PUBLIC "-//W3C//DTD SVG 1.1//EN" "http://www.w3.org/Graphics/SVG/1.1/DTD/svg11.dtd">
<svg version="1.1" xmlns="http://www.w3.org/2000/svg" xmlns:xlink="http://www.w3.org/1999/xlink" width="32" height="32" viewBox="0 0 32 32">
<path d="M10.18 14.546v3.49h5.78c-0.232 1.5-1.746 4.394-5.774 4.394-3.474 0-6.31-2.88-6.31-6.43s2.83-6.43 6.304-6.43c1.98 0 3.304 0.844 4.060 1.572l2.764-2.66c-1.774-1.66-4.074-2.66-6.82-2.66-5.634-0.002-10.184 4.546-10.184 10.178s4.552 10.18 10.18 10.18c5.88 0 9.776-4.13 9.776-9.948 0-0.668-0.072-1.18-0.16-1.686h-9.616zM32 14.546h-2.91v-2.91h-2.91v2.91h-2.908v2.908h2.91v2.91h2.91v-2.91h2.908z"></path>
</svg>
