<?xml version="1.0" encoding="utf-8"?>
<!-- Generated by IcoMoon.io -->
<!DOCTYPE svg PUBLIC "-//W3C//DTD SVG 1.1//EN" "http://www.w3.org/Graphics/SVG/1.1/DTD/svg11.dtd">
<svg version="1.1" xmlns="http://www.w3.org/2000/svg" xmlns:xlink="http://www.w3.org/1999/xlink" width="64" height="64" viewBox="0 0 64 64">
<path fill="rgb(0, 0, 0)" d="M28.674 5c-7.748 0.824-13.487 4.636-17.347 9.109-3.825 4.423-7.151 10.846-7.009 18.871 0.141 7.956 3.353 13.985 7.442 18.435 4.975 5.423 12.798 9.448 22.77 8.677 14.244-1.1 25.468-12.911 25.153-28.413-0.15-7.373-4.062-14.382-7.587-18.223-5.296-5.77-13.195-9.553-23.422-8.456zM43.203 33.63c-5.868-7.484-10.32-14.325-21.034-17.354 0.243 6.219 0.94 13.154-2.818 17.573-1.689 1.979-5.063 4.176-7.592 3.035-2.562-1.157-1.839-6.201-1.082-9.542 2.062-9.149 9.647-16.233 19.733-16.921 8.989-0.615 16.734 4.57 20.168 10.194 1.761 2.893 3.368 7.842 3.254 11.933-0.255 8.875-6.942 5.79-10.629 1.082z"></path>
</svg>
