<!-- Generated by IcoMoon.io -->
<svg version="1.1" xmlns="http://www.w3.org/2000/svg" width="32" height="32" viewBox="0 0 32 32">
<title>grooveshark</title>
<path d="M14.337 2.5c-3.874 0.412-6.743 2.318-8.674 4.555-1.913 2.212-3.576 5.423-3.505 9.435 0.071 3.978 1.676 6.992 3.721 9.218 2.488 2.712 6.399 4.724 11.385 4.339 7.122-0.55 12.734-6.456 12.577-14.207-0.075-3.686-2.031-7.191-3.793-9.111-2.648-2.885-6.598-4.776-11.711-4.228zM21.602 16.815c-2.934-3.742-5.16-7.163-10.517-8.677 0.122 3.11 0.47 6.577-1.409 8.786-0.844 0.99-2.531 2.088-3.796 1.517-1.281-0.579-0.919-3.101-0.541-4.771 1.031-4.574 4.823-8.117 9.866-8.46 4.495-0.308 8.367 2.285 10.084 5.097 0.881 1.447 1.684 3.921 1.627 5.966-0.128 4.438-3.471 2.895-5.315 0.541z"></path>
</svg>
