<?xml version="1.0" encoding="utf-8"?>
<!-- Generated by IcoMoon.io -->
<!DOCTYPE svg PUBLIC "-//W3C//DTD SVG 1.1//EN" "http://www.w3.org/Graphics/SVG/1.1/DTD/svg11.dtd">
<svg version="1.1" xmlns="http://www.w3.org/2000/svg" xmlns:xlink="http://www.w3.org/1999/xlink" width="64" height="64" viewBox="0 0 64 64">
<path fill="rgb(0, 0, 0)" d="M53.406 29.463l-0.947-0.237v-0.947c0-8.522-6.865-15.387-15.151-15.387-6.155 0-11.837 3.788-14.204 9.469l-0.71 1.657-1.184-1.184c-1.184-1.183-2.841-1.894-4.499-1.894-3.551 0-6.392 2.841-6.392 6.392l0.237 1.421-0.947 0.236c-4.498 1.421-7.576 5.445-7.576 9.943 0 5.681 4.735 10.416 10.416 10.416h39.298c5.445 0 10.179-4.499 10.179-10.18-0.236-4.735-3.55-8.759-8.522-9.706z"></path>
</svg>
