<!-- Generated by IcoMoon.io -->
<svg version="1.1" xmlns="http://www.w3.org/2000/svg" width="32" height="32" viewBox="0 0 32 32">
<title>icloud</title>
<path d="M26.703 14.732l-0.474-0.118v-0.474c0-4.261-3.433-7.694-7.575-7.694-3.078 0-5.918 1.894-7.102 4.735l-0.355 0.829-0.592-0.592c-0.592-0.592-1.421-0.947-2.249-0.947-1.775 0-3.196 1.42-3.196 3.196l0.118 0.71-0.473 0.118c-2.249 0.71-3.788 2.722-3.788 4.971 0 2.841 2.367 5.208 5.208 5.208h19.649c2.722 0 5.090-2.249 5.090-5.090-0.118-2.367-1.775-4.38-4.261-4.853z"></path>
</svg>
