<!-- Generated by IcoMoon.io -->
<svg version="1.1" xmlns="http://www.w3.org/2000/svg" width="32" height="32" viewBox="0 0 32 32">
<title>instagram</title>
<path d="M16 4.108c3.869 0 4.33 0.015 5.857 0.085 1.413 0.065 2.183 0.299 2.692 0.498 0.633 0.234 1.2 0.604 1.668 1.088 0.48 0.468 0.852 1.036 1.086 1.667 0.2 0.511 0.435 1.281 0.497 2.692 0.073 1.528 0.086 1.987 0.086 5.859 0 3.87-0.013 4.33-0.086 5.857-0.061 1.413-0.297 2.183-0.497 2.692-0.488 1.265-1.489 2.265-2.754 2.754-0.509 0.2-1.281 0.435-2.692 0.497-1.526 0.073-1.987 0.086-5.857 0.086-3.872 0-4.329-0.013-5.859-0.086-1.413-0.061-2.181-0.297-2.692-0.497-0.631-0.233-1.198-0.604-1.668-1.086-0.481-0.465-0.851-1.036-1.087-1.668-0.198-0.509-0.433-1.281-0.497-2.692-0.071-1.526-0.085-1.987-0.085-5.857 0-3.872 0.014-4.329 0.085-5.859 0.065-1.412 0.298-2.181 0.497-2.692 0.234-0.63 0.604-1.198 1.088-1.667 0.468-0.482 1.036-0.853 1.667-1.088 0.511-0.198 1.28-0.433 2.692-0.498 1.53-0.069 1.986-0.085 5.859-0.085zM16 1.496c-3.939 0-4.431 0.018-5.979 0.088-1.543 0.071-2.595 0.315-3.517 0.673-0.97 0.365-1.845 0.935-2.57 1.673-0.74 0.725-1.308 1.6-1.675 2.569-0.356 0.922-0.602 1.976-0.673 3.519-0.069 1.545-0.087 2.039-0.087 5.977 0 3.936 0.018 4.432 0.088 5.977 0.071 1.543 0.316 2.595 0.673 3.521 0.365 0.968 0.935 1.845 1.673 2.568 0.725 0.739 1.6 1.308 2.569 1.673 0.922 0.356 1.976 0.604 3.517 0.671 1.55 0.076 2.040 0.090 5.98 0.090s4.432-0.015 5.98-0.090c1.541-0.066 2.593-0.314 3.52-0.671 1.947-0.754 3.486-2.294 4.24-4.241 0.356-0.926 0.604-1.978 0.671-3.52 0.076-1.546 0.090-2.041 0.090-5.977 0-3.938-0.015-4.431-0.090-5.977-0.066-1.544-0.314-2.596-0.671-3.519-0.364-0.97-0.935-1.845-1.673-2.57-0.724-0.738-1.601-1.307-2.568-1.673-0.926-0.357-1.978-0.602-3.52-0.673-1.546-0.071-2.041-0.088-5.977-0.088v0 0z"></path>
<path d="M15.896 8.419c-4.083 0-7.394 3.309-7.394 7.395 0 4.083 3.311 7.39 7.394 7.39s7.397-3.308 7.397-7.39v0c0-4.087-3.314-7.395-7.397-7.395zM15.896 20.613c-2.649 0-4.8-2.149-4.8-4.8 0-2.652 2.151-4.8 4.8-4.8 2.652 0 4.801 2.149 4.801 4.8 0 2.652-2.149 4.8-4.801 4.8z"></path>
<path d="M23.583 6.401c0.956 0 1.725 0.771 1.725 1.726s-0.769 1.727-1.725 1.727c-0.952 0-1.73-0.774-1.73-1.727 0-0.956 0.777-1.726 1.73-1.726z"></path>
</svg>
