<!-- Generated by IcoMoon.io -->
<svg version="1.1" xmlns="http://www.w3.org/2000/svg" width="32" height="32" viewBox="0 0 32 32">
<title>instagram</title>
<path d="M20.614 4.3h-9.217c-3.912 0-7.098 3.171-7.098 7.071v9.257c0 3.9 3.185 7.072 7.098 7.072h9.204c3.927 0 7.098-3.171 7.098-7.071v-9.257c0.012-3.9-3.171-7.071-7.086-7.071zM25.75 21.2c0 2.509-2.041 4.55-4.55 4.55h-10.4c-2.51 0-4.55-2.041-4.55-4.55v-10.4c0-2.509 2.040-4.55 4.55-4.55h10.4c2.509 0 4.55 2.041 4.55 4.55v10.4z"></path>
<path d="M22.331 8.421c0.784 0 1.417 0.634 1.417 1.417s-0.633 1.417-1.417 1.417c-0.783 0-1.418-0.635-1.418-1.417s0.635-1.417 1.418-1.417z"></path>
<path d="M16.038 10.085c-3.314 0-6.018 2.678-6.018 5.979 0 3.315 2.692 5.994 6.018 5.994 3.329 0 6.020-2.679 6.020-5.994-0.013-3.302-2.704-5.979-6.020-5.979v0 0zM16.104 19.9c-2.159 0-3.9-1.742-3.9-3.888s1.742-3.886 3.9-3.886c2.158 0 3.9 1.742 3.9 3.886 0 2.146-1.742 3.888-3.9 3.888v0 0z"></path>
</svg>
