<?xml version="1.0" encoding="utf-8"?>
<!-- Generated by IcoMoon.io -->
<!DOCTYPE svg PUBLIC "-//W3C//DTD SVG 1.1//EN" "http://www.w3.org/Graphics/SVG/1.1/DTD/svg11.dtd">
<svg version="1.1" xmlns="http://www.w3.org/2000/svg" xmlns:xlink="http://www.w3.org/1999/xlink" width="64" height="64" viewBox="0 0 64 64">
<path fill="rgb(0, 0, 0)" d="M53.643 50.929v-23.143h-4.821q0.714 2.25 0.714 4.679 0 4.5-2.286 8.304t-6.214 6.018-8.571 2.214q-7.036 0-12.036-4.839t-5-11.696q0-2.429 0.714-4.679h-5.036v23.143q0 0.929 0.625 1.554t1.554 0.625h38.179q0.893 0 1.536-0.625t0.643-1.554zM43.5 31.893q0-4.429-3.232-7.554t-7.804-3.125q-4.536 0-7.768 3.125t-3.232 7.554 3.232 7.554 7.768 3.125q4.571 0 7.804-3.125t3.232-7.554zM53.643 19.036v-5.893q0-1-0.714-1.732t-1.75-0.732h-6.214q-1.036 0-1.75 0.732t-0.714 1.732v5.893q0 1.036 0.714 1.75t1.75 0.714h6.214q1.036 0 1.75-0.714t0.714-1.75zM59.857 11.607v40.786q0 2.893-2.071 4.964t-4.964 2.071h-40.786q-2.893 0-4.964-2.071t-2.071-4.964v-40.786q0-2.893 2.071-4.964t4.964-2.071h40.786q2.893 0 4.964 2.071t2.071 4.964z"></path>
</svg>
