<!-- Generated by IcoMoon.io -->
<svg version="1.1" xmlns="http://www.w3.org/2000/svg" width="32" height="32" viewBox="0 0 32 32">
<title>joomla</title>
<path d="M21.607 19.161l-2.857 2.857-2.696 2.714-0.536 0.536q-1.161 1.143-2.705 1.554t-3.063 0.036q-0.286 1.25-1.286 2.054t-2.304 0.804q-1.518 0-2.589-1.080t-1.071-2.598q0-1.286 0.795-2.286t2.027-1.286q-0.393-1.536 0.018-3.089t1.571-2.714l0.214-0.214 2.696 2.714-0.196 0.196q-0.661 0.661-0.661 1.589t0.661 1.607q0.661 0.661 1.589 0.661t1.589-0.661l0.536-0.536 2.696-2.714 2.875-2.857zM15.518 6.982l0.214 0.214-2.714 2.714-0.214-0.214q-0.661-0.661-1.589-0.661t-1.589 0.661-0.661 1.598 0.661 1.598l6.089 6.089-2.696 2.714-2.875-2.857-2.696-2.714-0.536-0.536q-1.214-1.196-1.607-2.848t0.089-3.205q-1.25-0.268-2.054-1.268t-0.804-2.304q0-1.518 1.071-2.598t2.589-1.080q1.357 0 2.384 0.875t1.241 2.196q1.5-0.357 3.027 0.063t2.67 1.563zM29.929 26.036q0 1.518-1.071 2.598t-2.589 1.080q-1.321 0-2.339-0.839t-1.268-2.107q-1.536 0.5-3.205 0.107t-2.884-1.607l-0.196-0.214 2.696-2.714 0.214 0.214q0.661 0.661 1.589 0.661t1.589-0.661 0.661-1.589-0.661-1.589l-6.107-6.107 2.714-2.714 5.571 5.571 0.518 0.536q1.143 1.143 1.563 2.688t0.045 3.063q1.357 0.196 2.259 1.223t0.902 2.402zM29.893 5.964q0 1.375-0.911 2.411t-2.268 1.232q0.464 1.518 0.054 3.152t-1.607 2.83l-0.214 0.214-2.696-2.714 0.214-0.214q0.661-0.661 0.661-1.589t-0.661-1.589-1.589-0.661-1.589 0.661l-6.107 6.107-2.714-2.714 2.875-2.857 2.714-2.714 0.518-0.536q1.196-1.196 2.839-1.598t3.179 0.063q0.196-1.339 1.223-2.25t2.42-0.911q1.518 0 2.589 1.080t1.071 2.598z"></path>
</svg>
