<?xml version="1.0" encoding="utf-8"?>
<!-- Generated by IcoMoon.io -->
<!DOCTYPE svg PUBLIC "-//W3C//DTD SVG 1.1//EN" "http://www.w3.org/Graphics/SVG/1.1/DTD/svg11.dtd">
<svg version="1.1" xmlns="http://www.w3.org/2000/svg" xmlns:xlink="http://www.w3.org/1999/xlink" width="64" height="64" viewBox="0 0 64 64">
<path fill="rgb(0, 0, 0)" d="M43.214 38.321l-5.714 5.714-5.393 5.429-1.071 1.071q-2.321 2.286-5.411 3.107t-6.125 0.071q-0.571 2.5-2.571 4.107t-4.607 1.607q-3.036 0-5.179-2.161t-2.143-5.196q0-2.571 1.589-4.571t4.054-2.571q-0.786-3.071 0.036-6.179t3.143-5.429l0.429-0.429 5.393 5.429-0.393 0.393q-1.321 1.321-1.321 3.179t1.321 3.214q1.321 1.321 3.179 1.321t3.179-1.321l1.071-1.071 5.393-5.429 5.75-5.714zM31.036 13.964l0.429 0.429-5.429 5.429-0.429-0.429q-1.321-1.321-3.179-1.321t-3.179 1.321-1.321 3.196 1.321 3.196l12.179 12.179-5.393 5.429-5.75-5.714-5.393-5.429-1.071-1.071q-2.429-2.393-3.214-5.696t0.179-6.411q-2.5-0.536-4.107-2.536t-1.607-4.607q0-3.036 2.143-5.196t5.179-2.161q2.714 0 4.768 1.75t2.482 4.393q3-0.714 6.054 0.125t5.339 3.125zM59.857 52.071q0 3.036-2.143 5.196t-5.179 2.161q-2.643 0-4.679-1.679t-2.536-4.214q-3.071 1-6.411 0.214t-5.768-3.214l-0.393-0.429 5.393-5.429 0.429 0.429q1.321 1.321 3.179 1.321t3.179-1.321 1.321-3.179-1.321-3.179l-12.214-12.214 5.429-5.429 11.143 11.143 1.036 1.071q2.286 2.286 3.125 5.375t0.089 6.125q2.714 0.393 4.518 2.446t1.804 4.804zM59.786 11.929q0 2.75-1.821 4.821t-4.536 2.464q0.929 3.036 0.107 6.304t-3.214 5.661l-0.429 0.429-5.393-5.429 0.429-0.429q1.321-1.321 1.321-3.179t-1.321-3.179-3.179-1.321-3.179 1.321l-12.214 12.214-5.429-5.429 5.75-5.714 5.429-5.429 1.036-1.071q2.393-2.393 5.679-3.196t6.357 0.125q0.393-2.679 2.446-4.5t4.839-1.821q3.036 0 5.179 2.161t2.143 5.196z"></path>
</svg>
