<?xml version="1.0" encoding="utf-8"?>
<!-- Generated by IcoMoon.io -->
<!DOCTYPE svg PUBLIC "-//W3C//DTD SVG 1.1//EN" "http://www.w3.org/Graphics/SVG/1.1/DTD/svg11.dtd">
<svg version="1.1" xmlns="http://www.w3.org/2000/svg" xmlns:xlink="http://www.w3.org/1999/xlink" width="32" height="32" viewBox="0 0 32 32">
<path d="M23.071 12.571q0 0.107 0.179 0.732 0.179 0.518 0.446 0.884t0.732 0.607 0.786 0.357 0.982 0.295q5.804 1.625 5.804 5.929 0 2.607-1.884 4.33t-4.545 1.723q-1.054 0-1.991-0.33t-1.634-0.813-1.375-1.33-1.125-1.563-0.955-1.848-0.777-1.839-0.705-1.902-0.634-1.696q-0.571-1.446-1.098-2.384t-1.313-1.723-1.857-1.143-2.536-0.357q-1.714 0-3.268 0.991t-2.464 2.58-0.911 3.304q0 2.857 1.902 4.991t4.705 2.134q3.161 0 4.607-1.696 1-1.125 1.482-2.071l1.5 2.714q-0.268 0.607-0.786 1.25l0.018 0.018q-2.339 2.714-6.929 2.714-2.625 0-4.813-1.411t-3.402-3.705-1.214-4.902q0-1.875 0.777-3.679t2.071-3.152 3.071-2.17 3.652-0.821q1.554 0 2.839 0.339t2.205 0.893 1.696 1.429 1.295 1.768 1.045 2.089 0.902 2.223 0.893 2.33 0.982 2.268q1.714 3.571 4.161 3.571 1.446 0 2.473-0.866t1.027-2.295q0-0.75-0.339-1.286t-0.902-0.821-1.295-0.563-1.509-0.482-1.563-0.607-1.446-0.929-1.161-1.464-0.696-2.188q-0.054-0.286-0.054-0.589 0-1.964 1.563-3.429t3.545-1.393q1.393 0.054 2.152 0.259t1.616 0.955h-0.018q0.214 0.196 0.411 0.438t0.464 0.643 0.339 0.491l-2.304 1.768q-0.464-0.875-0.964-1.25v-0.018q-0.411-0.375-1.732-0.375-0.875 0-1.5 0.589t-0.625 1.482z"></path>
</svg>
