<?xml version="1.0" encoding="utf-8"?>
<!-- Generated by IcoMoon.io -->
<!DOCTYPE svg PUBLIC "-//W3C//DTD SVG 1.1//EN" "http://www.w3.org/Graphics/SVG/1.1/DTD/svg11.dtd">
<svg version="1.1" xmlns="http://www.w3.org/2000/svg" xmlns:xlink="http://www.w3.org/1999/xlink" width="64" height="64" viewBox="0 0 64 64">
<path fill="rgb(0, 0, 0)" d="M46.143 25.143q0 0.214 0.357 1.464 0.357 1.036 0.893 1.768t1.464 1.214 1.571 0.714 1.964 0.589q11.607 3.25 11.607 11.857 0 5.214-3.768 8.661t-9.089 3.446q-2.107 0-3.982-0.661t-3.268-1.625-2.75-2.661-2.25-3.125-1.911-3.696-1.554-3.679-1.411-3.804-1.268-3.393q-1.143-2.893-2.196-4.768t-2.625-3.446-3.714-2.286-5.071-0.714q-3.429 0-6.536 1.982t-4.929 5.161-1.821 6.607q0 5.714 3.804 9.982t9.411 4.268q6.321 0 9.214-3.393 2-2.25 2.964-4.143l3 5.429q-0.536 1.214-1.571 2.5l0.036 0.036q-4.679 5.429-13.857 5.429-5.25 0-9.625-2.821t-6.804-7.411-2.429-9.804q0-3.75 1.554-7.357t4.143-6.304 6.143-4.339 7.304-1.643q3.107 0 5.679 0.679t4.411 1.786 3.393 2.857 2.589 3.536 2.089 4.179 1.804 4.446 1.786 4.661 1.964 4.536q3.429 7.143 8.321 7.143 2.893 0 4.946-1.732t2.054-4.589q0-1.5-0.679-2.571t-1.804-1.643-2.589-1.125-3.018-0.964-3.125-1.214-2.893-1.857-2.321-2.929-1.393-4.375q-0.107-0.571-0.107-1.179 0-3.929 3.125-6.857t7.089-2.786q2.786 0.107 4.304 0.518t3.232 1.911h-0.036q0.429 0.393 0.821 0.875t0.929 1.286 0.679 0.982l-4.607 3.536q-0.929-1.75-1.929-2.5v-0.036q-0.821-0.75-3.464-0.75-1.75 0-3 1.179t-1.25 2.964z"></path>
</svg>
