<?xml version="1.0" encoding="utf-8"?>
<!-- Generated by IcoMoon.io -->
<!DOCTYPE svg PUBLIC "-//W3C//DTD SVG 1.1//EN" "http://www.w3.org/Graphics/SVG/1.1/DTD/svg11.dtd">
<svg version="1.1" xmlns="http://www.w3.org/2000/svg" xmlns:xlink="http://www.w3.org/1999/xlink" width="64" height="64" viewBox="0 0 64 64">
<path fill="rgb(0, 0, 0)" d="M17.464 22.321v35.393h-11.786v-35.393h11.786zM18.214 11.393q0.036 2.607-1.804 4.357t-4.839 1.75h-0.071q-2.929 0-4.714-1.75t-1.786-4.357q0-2.643 1.839-4.375t4.804-1.732 4.75 1.732 1.821 4.375zM59.857 37.429v20.286h-11.75v-18.929q0-3.75-1.446-5.875t-4.518-2.125q-2.25 0-3.768 1.232t-2.268 3.054q-0.393 1.071-0.393 2.893v19.75h-11.75q0.071-14.25 0.071-23.107t-0.036-10.571l-0.036-1.714h11.75v5.143h-0.071q0.714-1.143 1.464-2t2.018-1.857 3.107-1.554 4.089-0.554q6.107 0 9.821 4.054t3.714 11.875z"></path>
</svg>
