<!-- Generated by IcoMoon.io -->
<svg version="1.1" xmlns="http://www.w3.org/2000/svg" width="32" height="32" viewBox="0 0 32 32">
<title>mailchimp</title>
<path d="M26.349 27.44c-0.127 0 0.059 0.313-0.127 0.251 0-0.127 0-0.251 0-0.38 0.056 0 0.111 0 0.167 0 0.021 0.076 0.021 0.176 0.085 0.215 0.088-0.072 0.036-0.281 0.255-0.215 0 0.128 0 0.252 0 0.38-0.153 0.044-0.060-0.162-0.086-0.251-0.101 0.024-0.093 0.157-0.127 0.251-0.153 0.017-0.095-0.184-0.166-0.251zM26.012 27.69c-0.151-0.052-0.064-0.333-0.216-0.38 0.125 0 0.252 0 0.381 0-0.113 0.067-0.116 0.249-0.165 0.38zM23.471 15.114c0.003 0.315-0.014 0.612-0.34 0.591-0.534-0.15 0.010-1.161 0.34-0.591zM23.213 14.265c-0.249-0.108-0.528-0.177-0.887-0.172-0.1-0.413-0.226-1.039 0.084-1.311 0.596 0.168 0.7 0.828 0.803 1.484zM22.282 16.042c-0.335 0.212-0.9 0.020-0.804-0.462 0.292-0.283 0.862-0.046 0.847 0.38-0.043 0-0.038 0.051-0.044 0.082zM22.154 7.697h0.001c0 0-0.001 0-0.001 0zM19.785 15.284c-0.535 0.064-0.928-0.376-1.654-0.257-0.491 0.050-0.78 0.296-1.27 0.34 0.367-1.037 2.484-1.094 2.924-0.083zM19.658 15.96c-0.722-0.071-1.183 0.124-1.7 0.256 0.145-0.594 1.365-0.813 1.7-0.256zM20.883 6.852c-0.363-0.302-0.853-0.478-1.4-0.594-0.084 0.118 0.379 0.271 0.258 0.425-0.415-0.178-1.265-0.334-1.782-0.128 0.207 0.052 0.571 0.163 0.555 0.297-0.925-0.101-1.967-0.001-2.499 0.424 0.342-0.006 0.685-0.009 0.89 0.125-0.78 0.143-1.448 0.389-1.952 0.804 0.26 0.050 0.571-0.075 0.717 0-1.613 0.915-2.864 2.19-3.811 3.773 2.068-2.299 4.44-4.292 8.393-4.702 0.778-0.006 1.412 0.131 1.901 0.42 0 0 0.001 0 0.001 0h-0.001c-0.236-0.638-0.784-0.963-1.437-1.183-0.093 0.065 0.27 0.26 0.167 0.338zM14.359 5.961c-1.885 1.728-3.547 3.681-4.828 6.017 3.259-3.687 6.133-7.763 11.305-9.534-1.516 0.142-2.548 0.778-3.637 1.355-0.54-0.394-1.022-0.842-1.528-1.269-0.207 0.061-0.382 0.153-0.59 0.212-0.179-0.047-0.402-0.049-0.635-0.042-3.043 0.726-4.839 2.7-6.651 4.659-1.717 2.068-3.33 4.237-3.938 7.415 0 0.238 0 0.475 0 0.718 0.064 0.205 0.097 0.439 0.169 0.639 0.031 0.007 0.048 0.031 0.040 0.084 0.351 0.413 0.817 0.706 1.231 1.060 0.45-0.431 0.805-0.948 1.396-1.234 1.396-4.492 4.254-7.746 7.667-10.081zM17.791 11.302c-2.123 0.092-3.082 1.763-2.67 4.104-0.153-0.045-0.478-0.494-0.465-0.292 0.169 0.947 0.727 1.499 1.31 2.034-0.128 0.026-0.364-0.053-0.419 0.036 0.377 0.257 0.729 0.541 1.228 0.675-0.924 0.934-1.67 2.037-1.526 4.029 0.115 0.135 0.336-0.505 0.298-0.252-0.012 0.744-0.009 1.471 0.291 1.902 0.104-0.276 0.232-0.527 0.385-0.759 0.027 0.819 0.168 1.529 0.552 1.989 0-0.244 0.012-0.461 0.085-0.635 0.255 0.577 0.574 1.089 0.976 1.526 0.738 0.601 1.796 0.885 3.092 0.934 3.957-0.306 6.253-2.275 7.282-5.509 0.217-0.222 0.377-0.501 0.338-0.974-0.13-0.3-0.589-0.419-1.015-0.295-0.043-0.647-0.196-1.186-0.425-1.653-1.856 1.687-4.334 2.754-7.789 2.835-0.227 0.149-0.364 0.38-0.383 0.721 1.994 0.488 4.076-0.18 5.631-0.677-1.3 0.892-3.395 1.379-5.586 1.099 0.028 0.2 0.161 0.287 0.209 0.468 0.334 0.304 0.816 0.456 1.398 0.511 0.348 0 0.705 0 1.056 0 1.336-0.151 2.434-0.534 3.434-1.015 0.978-0.464 1.88-1.221 2.667-1.739-1.626 1.919-3.793 3.296-7.376 3.261-1.107-0.172-1.926-0.639-1.985-1.861 0.076-0.692 0.379-1.144 0.968-1.316 0.434 0.021 0.748-0.076 1.189-0.046 1.622-0.159 3.012-0.549 4.151-1.18 0.604-0.285 1.088-0.696 1.609-1.060 0.389-0.497 1.036-0.747 1.189-1.48-0.1-0.303-0.311-0.484-0.723-0.467-0.595-0.834-1.725-1.127-2.585-1.696-0.008-0.062-0.066-0.074-0.084-0.129-0.49-1.502 0.078-4.061-1.564-4.404-1.35 0.060-1.527 1.294-2.879 1.356-0.638-0.004-1.297 0.024-1.867-0.041zM25.966 26.548c-1.641 1.646-3.812 2.767-7.029 2.838-5.226-0.215-8.088-2.788-10.252-6.058-0.388 0.022-0.713-0.023-1.018-0.083-2.053-0.493-3.448-2.566-2.754-5.129-0.521-0.549-1.266-0.877-1.692-1.527-0.188-0.4-0.299-0.88-0.34-1.435 0.42-3.775 2.373-6.016 4.194-8.388 2.061-2.117 3.88-4.478 7.5-5.041 0.351 0.032 0.667 0.091 0.974 0.172 0.59 0.325 1.058 0.768 1.567 1.184 1.229-0.701 2.514-1.357 4.316-1.481 1.7 0.041 2.668 0.81 2.844 2.372 0.001 1.907-0.716 3.1-1.444 4.28 0.433 0.679 0.886 1.34 1.398 1.948 0.518 0.936 0.46 2.452 0.677 3.684 1.172 0.533 2.118 1.3 3.18 1.947 0.149 0.267 0.326 0.52 0.34 0.934-0.040 0.487-0.269 0.778-0.513 1.060 0.201 0.264 0.291 0.639 0.384 1.015 0.432 0.214 0.859 0.438 1.060 0.885 0.034 0.123 0.008 0.304 0.082 0.386-0.276 1.375-0.851 2.459-1.353 3.602-0.607 1.043-1.258 2.049-2.12 2.836zM6.227 21.427c1.484 2.008 5.199 0.808 5.043-1.951-0.030-0.154-0.061-0.306-0.044-0.508-0.219 0.086-0.186 0.438-0.382 0.548 0.071-0.604-0.047-1.39-0.297-1.819-0.082 0.21-0.069 0.522-0.253 0.632-0.058-0.687-0.306-1.194-0.679-1.564-0.426-0.18-0.914-0.303-1.566-0.256-1.4 0.3-2.215 1.171-2.458 2.622 0 0.229 0 0.458 0 0.685 0.082 0.663 0.354 1.147 0.636 1.611zM16.649 4.099c-0.014 0.188-0.251 0.148-0.299 0.296-0.149-0.162-0.123-0.5-0.254-0.679 0.151-0.006 0.329 0.32 0.553 0.383zM16.014 4.564c-0.098 0.134-0.219 0.233-0.386 0.298-0.296-0.16-0.493-0.409-0.761-0.595 0.309 0 0.747 0.244 1.147 0.296zM15.38 3.8c-0.045 0.080-0.217-0.064-0.344-0.041-0.12-0.271-0.085-0.653 0.044-0.889 0.133 0.276 0.17 0.649 0.299 0.929zM15.080 5.285c-0.1 0.156-0.299 0.208-0.384 0.381-0.504-0.414-0.952-0.88-1.482-1.271 0-0.251-0.070-0.436-0.080-0.679 0.676 0.494 1.272 1.071 1.946 1.569zM10.039 19.937c0.043 0.895-0.337 1.364-1.228 1.316-0.096-0.104-0.279-0.111-0.34-0.255 0.604 0.043 1.218-0.162 1.144-0.932-0.152-0.524-0.904-0.446-0.889-1.143 0.049-0.233 0.169-0.394 0.467-0.376 0.12 0.159-0.235 0.139-0.169 0.376 0.233 0.443 0.9 0.459 1.016 1.015zM9.32 17.742c0.238 0.189 0.758 0.861 0.252 1.143-0.291-1.476-2.793-0.9-2.498 0.713 0.012 0.305 0.136 0.486 0.169 0.767-0.524-0.052-0.543-0.616-0.636-1.105 0.013-0.441 0.164-0.737 0.298-1.056 0.402-0.405 0.818-0.793 1.694-0.717 0.282 0.038 0.489 0.158 0.721 0.255z"></path>
</svg>
