<!-- Generated by IcoMoon.io -->
<svg version="1.1" xmlns="http://www.w3.org/2000/svg" width="32" height="32" viewBox="0 0 32 32">
<title>medium</title>
<path d="M10.682 28.472c0 0.908-0.664 1.32-1.476 0.914l-8.304-4.152c-0.486-0.244-0.886-0.89-0.886-1.434v-20.356c0-0.726 0.532-1.054 1.18-0.73l9.45 4.726c0.026 0.010 0.046 0.030 0.060 0.054l3.672 5.96 6.454-10.486c0.252-0.41 0.774-0.6 1.226-0.47 0.048 0.010 0.094 0.028 0.144 0.050l0.036 0.016 9.662 4.836c0.010 0.004 0.020 0.010 0.026 0.020 0.056 0.040 0.090 0.108 0.090 0.18v20.872c0 0.912-0.794 1.254-1.772 0.766l-19.562-9.784v9.018z"></path>
</svg>
