<?xml version="1.0" encoding="utf-8"?>
<!-- Generated by IcoMoon.io -->
<!DOCTYPE svg PUBLIC "-//W3C//DTD SVG 1.1//EN" "http://www.w3.org/Graphics/SVG/1.1/DTD/svg11.dtd">
<svg version="1.1" xmlns="http://www.w3.org/2000/svg" xmlns:xlink="http://www.w3.org/1999/xlink" width="64" height="64" viewBox="0 0 64 64">
<path fill="rgb(0, 0, 0)" d="M20.341 7.189c4.205-1.263 8.702-1.987 13.045-1.047 2.942 0.631 5.637 2.156 7.885 4.112 2.726 2.295 5.329 4.744 7.824 7.27 0.585 0.555 1.139 1.14 1.787 1.602 1.278 0.909 2.541 1.879 4.004 2.449 0.909 0.401 1.895 0.447 2.819 0.755 1.941 0.585 3.974 1.432 5.129 3.188 0.893 1.263 0.662 2.911 0.508 4.343-0.308 2.418-1.355 4.898-3.434 6.284-1.879 1.401-3.82 2.726-5.93 3.743-2.449 1.201-5.082 2.018-7.778 2.449-3.388 0.554-6.87 0.323-10.242 0.986-0.616 0.093-1.186 0.508-1.371 1.109-1.232 3.835-0.986 7.932-0.739 11.89h-4.127c-0.185-3.065-0.355-6.161 0.077-9.21 0.292-1.864 0.616-3.804 1.632-5.421 0.909-1.479 2.634-2.156 4.266-2.495 3.881-0.739 7.916-0.308 11.767-1.278 0.139-0.046 0.339 0 0.401-0.185-2.141-0.693-4.189-1.648-6.099-2.818-0.724-0.385-0.662-1.571 0.108-1.848 0.539-0.262 1.047 0.108 1.463 0.401 2.48 1.402 5.16 2.495 7.947 3.080 2.279-0.878 4.297-2.356 6.268-3.789-1.402-2.172-2.788-4.482-3.419-7.039-2.418-0.893-4.605-2.387-6.607-4.004-1.602-1.463-3.096-3.050-4.697-4.528-1.494-1.432-3.050-2.803-4.636-4.143-1.756-1.479-3.881-2.557-6.145-3.019-2.572-0.539-5.237-0.277-7.793 0.293-2.896 0.662-5.683 1.71-8.41 2.865-1.894 0.832-3.789 1.663-5.529 2.788-1.571 1.001-3.019 2.279-3.958 3.912-1.017 1.74-1.325 3.789-1.325 5.791 0.154 3.851 1.34 7.562 1.864 11.382 1.001 6.361 1.155 12.83 1.047 19.268h-4.128c-0.046-1.894 0.185-3.789 0-5.683 0.015-6.176-0.693-12.321-2.002-18.344-0.478-2.387-0.909-4.805-0.863-7.239-0.031-2.464 0.616-4.929 1.864-7.054 1.463-2.511 3.696-4.482 6.145-6.007 2.172-1.325 4.528-2.295 6.884-3.25 1.479-0.57 2.973-1.124 4.498-1.555z"></path>
<path fill="rgb(0, 0, 0)" d="M17.322 17.785c1.971-0.216 3.958 0.477 5.56 1.617 1.525 1.124 2.788 2.649 3.511 4.405 0.17 0.631 0.601 1.432 0.093 2.018-0.385 0.462-1.202 0.308-1.433-0.247-0.369-1.217-1.278-2.187-2.187-3.065-1.279-1.14-2.942-2.018-4.698-1.956-1.617 0.031-3.065 0.909-4.251 1.941-1.201 1.078-2.064 2.603-2.064 4.236-0.061 2.665 1.633 5.067 3.727 6.546 0.709 0.554 0.093 1.786-0.785 1.54-3.573-1.494-6.084-5.421-5.606-9.318 0.385-2.988 2.557-5.514 5.19-6.854 0.924-0.447 1.925-0.755 2.942-0.862z"></path>
<path fill="rgb(0, 0, 0)" d="M38.407 20.48c1.217-0.986 3.065-1.016 4.343-0.139 1.14 0.709 1.725 2.187 1.355 3.481-0.493 1.925-2.834 3.003-4.651 2.295-0.339-0.093-0.616-0.324-0.924-0.431-0.754 0.062-1.509-0.015-2.264-0.108-0.447-0.077-0.524-0.77-0.077-0.924 0.446-0.031 0.893 0.015 1.34 0.031 0.077-0.231-0.17-0.416-0.2-0.647-0.477-1.247 0.016-2.757 1.078-3.558z"></path>
</svg>
