<?xml version="1.0" encoding="utf-8"?>
<!-- Generated by IcoMoon.io -->
<!DOCTYPE svg PUBLIC "-//W3C//DTD SVG 1.1//EN" "http://www.w3.org/Graphics/SVG/1.1/DTD/svg11.dtd">
<svg version="1.1" xmlns="http://www.w3.org/2000/svg" xmlns:xlink="http://www.w3.org/1999/xlink" width="32" height="32" viewBox="0 0 32 32">
<path d="M10.17 3.594c2.102-0.631 4.351-0.993 6.523-0.524 1.471 0.316 2.818 1.078 3.943 2.056 1.363 1.147 2.665 2.372 3.912 3.635 0.293 0.277 0.57 0.57 0.893 0.801 0.639 0.454 1.271 0.94 2.002 1.224 0.454 0.2 0.947 0.223 1.409 0.377 0.97 0.293 1.987 0.716 2.564 1.594 0.447 0.631 0.331 1.456 0.254 2.172-0.154 1.209-0.678 2.449-1.717 3.142-0.94 0.701-1.91 1.363-2.965 1.871-1.224 0.601-2.541 1.009-3.889 1.224-1.694 0.277-3.435 0.162-5.121 0.493-0.308 0.046-0.593 0.254-0.685 0.554-0.616 1.918-0.493 3.966-0.37 5.945h-2.064c-0.093-1.532-0.177-3.080 0.039-4.605 0.146-0.932 0.308-1.902 0.816-2.711 0.454-0.739 1.317-1.078 2.133-1.248 1.941-0.37 3.958-0.154 5.883-0.639 0.069-0.023 0.169 0 0.2-0.092-1.070-0.346-2.095-0.824-3.050-1.409-0.362-0.192-0.331-0.785 0.054-0.924 0.27-0.131 0.524 0.054 0.732 0.2 1.24 0.701 2.58 1.247 3.974 1.54 1.14-0.439 2.148-1.178 3.134-1.894-0.701-1.086-1.394-2.241-1.709-3.519-1.209-0.447-2.302-1.194-3.304-2.002-0.801-0.732-1.548-1.525-2.349-2.264-0.747-0.716-1.525-1.402-2.318-2.072-0.878-0.739-1.941-1.278-3.073-1.509-1.286-0.27-2.618-0.139-3.897 0.146-1.448 0.331-2.842 0.855-4.205 1.432-0.947 0.416-1.894 0.832-2.764 1.394-0.785 0.501-1.509 1.14-1.979 1.956-0.508 0.87-0.662 1.894-0.662 2.896 0.077 1.925 0.67 3.781 0.932 5.691 0.501 3.181 0.578 6.415 0.524 9.634h-2.064c-0.023-0.947 0.092-1.895 0-2.842 0.008-3.088-0.347-6.161-1.001-9.172-0.239-1.194-0.454-2.403-0.431-3.619-0.015-1.232 0.308-2.464 0.932-3.527 0.732-1.255 1.848-2.241 3.073-3.003 1.086-0.662 2.264-1.147 3.442-1.625 0.74-0.285 1.486-0.562 2.249-0.778zM8.661 8.892c0.986-0.108 1.979 0.239 2.78 0.809 0.762 0.562 1.394 1.325 1.756 2.202 0.085 0.316 0.3 0.716 0.046 1.009-0.193 0.231-0.601 0.154-0.716-0.123-0.185-0.608-0.639-1.093-1.093-1.532-0.639-0.57-1.471-1.009-2.349-0.978-0.809 0.015-1.532 0.454-2.126 0.97-0.601 0.539-1.032 1.301-1.032 2.118-0.031 1.332 0.816 2.533 1.864 3.273 0.354 0.277 0.046 0.893-0.393 0.77-1.787-0.747-3.042-2.711-2.803-4.659 0.192-1.494 1.278-2.757 2.595-3.427 0.462-0.223 0.963-0.377 1.471-0.431zM19.203 10.24c0.608-0.493 1.533-0.508 2.172-0.069 0.57 0.354 0.863 1.094 0.678 1.74-0.246 0.963-1.417 1.502-2.326 1.147-0.169-0.046-0.308-0.162-0.462-0.216-0.377 0.031-0.755-0.008-1.132-0.054-0.223-0.038-0.262-0.385-0.038-0.462 0.223-0.015 0.447 0.008 0.67 0.015 0.038-0.116-0.085-0.208-0.1-0.323-0.239-0.624 0.008-1.378 0.539-1.779z"></path>
</svg>
