<!-- Generated by IcoMoon.io -->
<svg version="1.1" xmlns="http://www.w3.org/2000/svg" width="32" height="32" viewBox="0 0 32 32">
<title>mix</title>
<path d="M2.285 17.573v9.619c0 1.481 1.23 2.683 2.746 2.683 1.515 0 2.745-1.203 2.745-2.683v-14.711c-0.159 2.832-2.556 5.092-5.491 5.092zM29.552 2.875c-5.991 0-10.845 4.741-10.845 10.59v3.291c0-1.48 1.233-2.685 2.755-2.685s2.753 1.205 2.753 2.685v1.368c0 1.488 1.233 2.693 2.746 2.693 1.521 0 2.755-1.205 2.755-2.694v-15.246c-0.055-0.001-0.109-0.002-0.164-0.002zM2.285 17.654c2.932 0 5.327-2.262 5.481-5.096v-2.522c0-0.073 0.007-0.14 0.011-0.208 0.107-1.392 1.288-2.484 2.732-2.484 1.514 0 2.743 1.205 2.743 2.691v10.523c0 1.493 1.224 2.696 2.738 2.696 1.515 0 2.742-1.203 2.743-2.695v-7.079c0-5.855 4.841-10.605 10.799-10.605h-27.247v14.779z"></path>
</svg>
