<?xml version="1.0" encoding="utf-8"?>
<!-- Generated by IcoMoon.io -->
<!DOCTYPE svg PUBLIC "-//W3C//DTD SVG 1.1//EN" "http://www.w3.org/Graphics/SVG/1.1/DTD/svg11.dtd">
<svg version="1.1" xmlns="http://www.w3.org/2000/svg" xmlns:xlink="http://www.w3.org/1999/xlink" width="32" height="32" viewBox="0 0 32 32">
<path fill="#444" d="M27.354 4.639c-3.098-3.093-6.888-4.639-11.375-4.639-4.431 0-8.183 1.546-11.252 4.639-3.151 3.2-4.726 6.987-4.726 11.361s1.575 8.134 4.726 11.28c3.149 3.146 6.901 4.72 11.252 4.72 4.406 0 8.224-1.587 11.454-4.76 3.044-3.013 4.567-6.761 4.567-11.24s-1.549-8.267-4.646-11.361zM25.351 25.16c-2.643 2.613-5.754 3.919-9.331 3.919-3.578 0-6.662-1.294-9.252-3.881-2.59-2.585-3.885-5.652-3.885-9.199 0-1.364 0.196-2.659 0.582-3.889l8.191 3.647h-1.803v2.491h3.748l0.367 0.761v1.207h-4.114v2.49h4.114v3.617h3.981v-3.617h4.14v-2.302l5.224 2.326c-0.535 0.87-1.189 1.68-1.965 2.429zM21.669 20.217h-3.716v-1.207l0.188-0.364 3.529 1.571zM22.092 16.904v-1.146h-2.489l4.063-7.484h-4.246l-2.797 6.194-1.485-0.661-2.556-5.533h-4.245l1.762 3.289-5.283-2.353c0.549-0.87 1.212-1.702 1.994-2.492 2.51-2.56 5.58-3.84 9.212-3.84 3.63 0 6.715 1.28 9.251 3.84 2.563 2.534 3.844 5.627 3.844 9.28 0 1.353-0.171 2.621-0.511 3.804l-6.512-2.899z"></path>
</svg>
