<?xml version="1.0" encoding="utf-8"?>
<!-- Generated by IcoMoon.io -->
<!DOCTYPE svg PUBLIC "-//W3C//DTD SVG 1.1//EN" "http://www.w3.org/Graphics/SVG/1.1/DTD/svg11.dtd">
<svg version="1.1" xmlns="http://www.w3.org/2000/svg" xmlns:xlink="http://www.w3.org/1999/xlink" width="64" height="64" viewBox="0 0 64 64">
<path fill="rgb(0, 0, 0)" d="M21.468 13.968c-3.54 4.176-5.828 10.352-5.988 17.28v1.504c0.16 6.928 2.448 13.104 5.988 17.28 4.588 5.96 11.412 9.74 19.040 9.74 4.68 0 9.068-1.428 12.816-3.92-5.656 5.068-13.124 8.148-21.324 8.148-0.512 0-1.020-0.012-1.52-0.040-16.972-0.788-30.48-14.8-30.48-31.96 0-17.68 14.328-32 32-32h0.12c8.148 0.032 15.576 3.108 21.208 8.144-3.752-2.48-8.136-3.92-12.824-3.92-7.624 0-14.448 3.784-19.040 9.744zM64 32c0 9.48-4.12 17.992-10.672 23.852-8.208 4-15.856 1.2-18.388-0.548 8.060-1.768 14.152-11.52 14.152-23.304 0-11.792-6.092-21.536-14.152-23.308 2.528-1.744 10.18-4.544 18.388-0.548 6.552 5.856 10.672 14.376 10.672 23.856z"></path>
</svg>
