<?xml version="1.0" encoding="utf-8"?>
<!-- Generated by IcoMoon.io -->
<!DOCTYPE svg PUBLIC "-//W3C//DTD SVG 1.1//EN" "http://www.w3.org/Graphics/SVG/1.1/DTD/svg11.dtd">
<svg version="1.1" xmlns="http://www.w3.org/2000/svg" xmlns:xlink="http://www.w3.org/1999/xlink" width="32" height="32" viewBox="0 0 32 32">
<path fill="#444" d="M10.734 6.984c-1.77 2.088-2.914 5.176-2.994 8.64v0.752c0.080 3.464 1.224 6.552 2.994 8.64 2.294 2.98 5.706 4.87 9.52 4.87 2.34 0 4.534-0.714 6.408-1.96-2.828 2.534-6.562 4.074-10.662 4.074-0.256 0-0.51-0.006-0.76-0.020-8.486-0.394-15.24-7.4-15.24-15.98 0-8.84 7.164-16 16-16h0.060c4.074 0.016 7.788 1.554 10.604 4.072-1.876-1.24-4.068-1.96-6.412-1.96-3.812 0-7.224 1.892-9.52 4.872zM32 16c0 4.74-2.060 8.996-5.336 11.926-4.104 2-7.928 0.6-9.194-0.274 4.030-0.884 7.076-5.76 7.076-11.652 0-5.896-3.046-10.768-7.076-11.654 1.264-0.872 5.090-2.272 9.194-0.274 3.276 2.928 5.336 7.188 5.336 11.928z"></path>
</svg>
