<?xml version="1.0" encoding="utf-8"?>
<!-- Generated by IcoMoon.io -->
<!DOCTYPE svg PUBLIC "-//W3C//DTD SVG 1.1//EN" "http://www.w3.org/Graphics/SVG/1.1/DTD/svg11.dtd">
<svg version="1.1" xmlns="http://www.w3.org/2000/svg" xmlns:xlink="http://www.w3.org/1999/xlink" width="32" height="32" viewBox="0 0 32 32">
<path fill="#444" d="M0.016 15.56c0-7.454 6.054-14.44 14.036-15.44 5.72-0.666 10.046 1.53 13.040 4.392 2.792 2.66 4.456 6.056 4.856 10.050 0.332 3.994-0.532 7.456-2.86 10.72-2.328 3.192-6.92 6.72-12.64 6.72h-7.784v-15.376c0.068-3.394 1.2-6.324 5.32-7.72 3.594-1.066 7.786 0.93 9.050 4.724 1.328 4.060-0.6 6.79-2.86 8.454-2.264 1.664-5.79 1.664-8.12 0.066v5.26c1.532 0.73 3.46 0.93 4.86 0.86 5.052-0.73 8.98-3.592 10.64-7.92 1.732-4.59 0.534-9.914-3.060-13.24-4.32-3.53-9.046-4.394-14.1-1.932-3.526 1.796-5.988 5.456-6.588 9.448v17.374h-3.724l-0.066-16.44z"></path>
</svg>
