<?xml version="1.0" encoding="utf-8"?>
<!-- Generated by IcoMoon.io -->
<!DOCTYPE svg PUBLIC "-//W3C//DTD SVG 1.1//EN" "http://www.w3.org/Graphics/SVG/1.1/DTD/svg11.dtd">
<svg version="1.1" xmlns="http://www.w3.org/2000/svg" xmlns:xlink="http://www.w3.org/1999/xlink" width="64" height="64" viewBox="0 0 64 64">
<path fill="rgb(0, 0, 0)" d="M39.714 17.929q0-5.679-8.464-5.679h-2.5q-1.143 0-2.125 0.768t-1.232 1.875l-2.25 9.857q-0.071 0.179-0.071 0.571 0 0.857 0.607 1.411t1.464 0.554h1.893q2.464 0 4.589-0.464t4.018-1.464 2.982-2.911 1.089-4.518zM61.286 23.357q0 9.464-7.857 15.286-7.821 5.75-21.857 5.75h-2.179q-1.143 0-2.107 0.768t-1.214 1.875l-2.607 11.286q-0.286 1.286-1.446 2.196t-2.482 0.911h-7.607q-1.107 0-1.893-0.714t-0.786-1.821q0-0.357 0.464-2.321h5.393q1.214 0 2.286-0.839t1.357-2.018l2.607-11.286q0.286-1.179 1.339-2.036t2.268-0.857h2.179q13.929 0 21.679-5.714t7.75-15.036q0-4.607-1.821-7.393 6.536 3.286 6.536 11.964zM54.75 16.75q0 9.429-7.893 15.286-7.786 5.75-21.857 5.75h-2.143q-1.143 0-2.125 0.786t-1.232 1.893l-2.607 11.25q-0.286 1.286-1.429 2.196t-2.464 0.911h-7.643q-1.107 0-1.875-0.696t-0.768-1.839q0-0.286 0.071-0.714l10.714-46.464q0.286-1.286 1.446-2.196t2.482-0.911h15.857q2.429 0 4.464 0.143t4.304 0.536 4.054 1.071 3.446 1.804 2.768 2.643 1.768 3.696 0.661 4.857z"></path>
</svg>
