<?xml version="1.0" encoding="utf-8"?>
<!-- Generated by IcoMoon.io -->
<!DOCTYPE svg PUBLIC "-//W3C//DTD SVG 1.1//EN" "http://www.w3.org/Graphics/SVG/1.1/DTD/svg11.dtd">
<svg version="1.1" xmlns="http://www.w3.org/2000/svg" xmlns:xlink="http://www.w3.org/1999/xlink" width="32" height="32" viewBox="0 0 32 32">
<path d="M19.857 8.964q0-2.839-4.232-2.839h-1.25q-0.571 0-1.063 0.384t-0.616 0.938l-1.125 4.929q-0.036 0.089-0.036 0.286 0 0.429 0.304 0.705t0.732 0.277h0.946q1.232 0 2.295-0.232t2.009-0.732 1.491-1.455 0.545-2.259zM30.643 11.679q0 4.732-3.929 7.643-3.911 2.875-10.929 2.875h-1.089q-0.571 0-1.054 0.384t-0.607 0.938l-1.304 5.643q-0.143 0.643-0.723 1.098t-1.241 0.455h-3.804q-0.554 0-0.946-0.357t-0.393-0.911q0-0.179 0.232-1.161h2.696q0.607 0 1.143-0.42t0.679-1.009l1.304-5.643q0.143-0.589 0.67-1.018t1.134-0.429h1.089q6.964 0 10.839-2.857t3.875-7.518q0-2.304-0.911-3.696 3.268 1.643 3.268 5.982zM27.375 8.375q0 4.714-3.946 7.643-3.893 2.875-10.929 2.875h-1.071q-0.571 0-1.063 0.393t-0.616 0.946l-1.304 5.625q-0.143 0.643-0.714 1.098t-1.232 0.455h-3.821q-0.554 0-0.938-0.348t-0.384-0.92q0-0.143 0.036-0.357l5.357-23.232q0.143-0.643 0.723-1.098t1.241-0.455h7.929q1.214 0 2.232 0.071t2.152 0.268 2.027 0.536 1.723 0.902 1.384 1.321 0.884 1.848 0.33 2.429z"></path>
</svg>
