<!-- Generated by IcoMoon.io -->
<svg version="1.1" xmlns="http://www.w3.org/2000/svg" width="32" height="32" viewBox="0 0 32 32">
<title>pd</title>
<path d="M15.972 0c4.494 0 8.29 1.548 11.385 4.643s4.643 6.88 4.643 11.357c0 4.477-1.524 8.219-4.572 11.228-3.218 3.181-7.038 4.772-11.456 4.772-4.344 0-8.091-1.573-11.243-4.715s-4.729-6.904-4.729-11.285c0-4.38 1.572-8.171 4.715-11.371 3.086-3.087 6.838-4.629 11.257-4.629zM16.015 2.886c-3.628 0-6.7 1.276-9.214 3.829-2.61 2.648-3.914 5.743-3.914 9.286s1.295 6.61 3.885 9.198c2.591 2.591 5.676 3.886 9.257 3.886s6.686-1.303 9.315-3.914c2.514-2.439 3.771-5.495 3.771-9.171 0-3.657-1.276-6.752-3.828-9.286-2.553-2.551-5.645-3.828-9.273-3.828zM8.486 20.343v-8.857h4.4c2.171 0 3.257 0.999 3.257 3 0 0.343-0.052 0.671-0.157 0.986s-0.286 0.628-0.543 0.943c-0.257 0.314-0.643 0.572-1.157 0.771s-1.123 0.3-1.828 0.3h-1.743v2.857l-2.229-0.001zM10.685 13.143v2.686h1.886c0.457 0 0.8-0.129 1.029-0.386s0.344-0.576 0.344-0.957c0-0.895-0.476-1.343-1.429-1.343l-1.829 0.001zM16.742 20.343v-8.857h3.429c1.409 0 2.514 0.362 3.315 1.085 0.799 0.724 1.198 1.838 1.198 3.343s-0.401 2.619-1.198 3.343c-0.802 0.723-1.906 1.085-3.315 1.085h-3.429zM18.944 13.343v5.143h1.285c0.781 0 1.348-0.233 1.7-0.7s0.529-1.090 0.529-1.871c0-0.781-0.176-1.405-0.529-1.871s-0.928-0.7-1.729-0.7l-1.256-0.001z"></path>
</svg>
