<?xml version="1.0" encoding="utf-8"?>
<!-- Generated by IcoMoon.io -->
<!DOCTYPE svg PUBLIC "-//W3C//DTD SVG 1.1//EN" "http://www.w3.org/Graphics/SVG/1.1/DTD/svg11.dtd">
<svg version="1.1" xmlns="http://www.w3.org/2000/svg" xmlns:xlink="http://www.w3.org/1999/xlink" width="64" height="64" viewBox="0 0 64 64">
<path fill="rgb(0, 0, 0)" d="M32.36 64c5 0 24.84-22.504 24.84-37.588 0-14.44-11.28-26.412-24.84-26.412-14.28 0-25.56 11.968-25.56 26.412 0 15.080 19.84 37.588 25.56 37.588zM28.372 10.256c1.292-0.32 2.652-0.492 4.064-0.492 8.032 0 14.9 6.8 14.9 15.624 0 7.952-6.868 14.752-14.9 14.752-8.912 0-15.78-6.8-15.78-14.752 0-3.712 1.216-7.064 3.288-9.704v0.048c0 3.296 2.696 5.968 6.024 5.968s6.032-2.676 6.032-5.972c0-2.448-1.492-4.552-3.624-5.472z"></path>
</svg>
