<?xml version="1.0" encoding="utf-8"?>
<!-- Generated by IcoMoon.io -->
<!DOCTYPE svg PUBLIC "-//W3C//DTD SVG 1.1//EN" "http://www.w3.org/Graphics/SVG/1.1/DTD/svg11.dtd">
<svg version="1.1" xmlns="http://www.w3.org/2000/svg" xmlns:xlink="http://www.w3.org/1999/xlink" width="32" height="32" viewBox="0 0 32 32">
<path d="M16.18 32c2.5 0 12.42-11.252 12.42-18.794 0-7.22-5.64-13.206-12.42-13.206-7.14 0-12.78 5.984-12.78 13.206 0 7.54 9.92 18.794 12.78 18.794zM14.186 5.128c0.646-0.16 1.326-0.246 2.032-0.246 4.016 0 7.45 3.4 7.45 7.812 0 3.976-3.434 7.376-7.45 7.376-4.456 0-7.89-3.4-7.89-7.376 0-1.856 0.608-3.532 1.644-4.852v0.024c0 1.648 1.348 2.984 3.012 2.984s3.016-1.338 3.016-2.986c0-1.224-0.746-2.276-1.812-2.736z"></path>
</svg>
