<?xml version="1.0" encoding="utf-8"?>
<!-- Generated by IcoMoon.io -->
<!DOCTYPE svg PUBLIC "-//W3C//DTD SVG 1.1//EN" "http://www.w3.org/Graphics/SVG/1.1/DTD/svg11.dtd">
<svg version="1.1" xmlns="http://www.w3.org/2000/svg" xmlns:xlink="http://www.w3.org/1999/xlink" width="64" height="64" viewBox="0 0 64 64">
<path fill="rgb(0, 0, 0)" d="M28.571 42.33c-1.68 8.81-3.731 17.258-9.811 21.67-1.875-13.318 2.755-23.318 4.906-33.936-3.667-6.176 0.442-18.598 8.179-15.536 9.52 3.766-8.243 22.954 3.68 25.35 12.451 2.502 17.533-21.6 9.814-29.437-11.155-11.322-32.474-0.262-29.85 15.939 0.637 3.962 4.73 5.165 1.635 10.63-7.139-1.581-9.27-7.213-8.995-14.72 0.442-12.285 11.040-20.886 21.67-22.077 13.446-1.507 26.064 4.934 27.802 17.581 1.962 14.272-6.064 29.731-20.445 28.618-3.894-0.298-5.53-2.227-8.586-4.083z"></path>
</svg>
