<?xml version="1.0" encoding="utf-8"?>
<!-- Generated by IcoMoon.io -->
<!DOCTYPE svg PUBLIC "-//W3C//DTD SVG 1.1//EN" "http://www.w3.org/Graphics/SVG/1.1/DTD/svg11.dtd">
<svg version="1.1" xmlns="http://www.w3.org/2000/svg" xmlns:xlink="http://www.w3.org/1999/xlink" width="64" height="64" viewBox="0 0 64 64">
<path fill="rgb(0, 0, 0)" d="M50.132 28.36l-15.052 14.44c-0.852 0.816-1.944 1.224-3.040 1.224-1.092 0-2.188-0.408-3.040-1.224l-15.048-14.44c-1.748-1.672-1.8-4.452-0.128-6.2 1.68-1.752 4.456-1.808 6.2-0.132l12.020 11.52 12.020-11.52c1.744-1.68 4.52-1.62 6.2 0.128s1.62 4.52-0.128 6.2zM63.684 8.248c-0.828-2.288-3.020-3.824-5.452-3.824h-52.432c-2.4 0-4.576 1.504-5.428 3.744-0.252 0.664-0.38 1.36-0.38 2.060v19.312l0.22 3.84c0.928 8.736 5.46 16.368 12.48 21.692 0.12 0.096 0.252 0.188 0.38 0.28l0.080 0.060c3.76 2.748 7.968 4.608 12.512 5.528 2.096 0.42 4.24 0.64 6.368 0.64 1.968 0 3.944-0.184 5.888-0.544 0.232-0.052 0.464-0.092 0.7-0.148 0.064-0.008 0.132-0.040 0.2-0.072 4.352-0.948 8.392-2.76 12.016-5.408l0.080-0.056 0.384-0.288c7.016-5.32 11.548-12.96 12.48-21.692l0.216-3.84v-19.304c0-0.668-0.080-1.332-0.32-1.98z"></path>
</svg>
