<?xml version="1.0" encoding="utf-8"?>
<!-- Generated by IcoMoon.io -->
<!DOCTYPE svg PUBLIC "-//W3C//DTD SVG 1.1//EN" "http://www.w3.org/Graphics/SVG/1.1/DTD/svg11.dtd">
<svg version="1.1" xmlns="http://www.w3.org/2000/svg" xmlns:xlink="http://www.w3.org/1999/xlink" width="32" height="32" viewBox="0 0 32 32">
<path fill="#444" d="M25.066 14.18l-7.526 7.22c-0.426 0.408-0.972 0.612-1.52 0.612-0.546 0-1.094-0.204-1.52-0.612l-7.524-7.22c-0.874-0.836-0.9-2.226-0.064-3.1 0.84-0.876 2.228-0.904 3.1-0.066l6.010 5.76 6.010-5.76c0.872-0.84 2.26-0.81 3.1 0.064s0.81 2.26-0.064 3.1zM31.842 4.124c-0.414-1.144-1.51-1.912-2.726-1.912h-26.216c-1.2 0-2.288 0.752-2.714 1.872-0.126 0.332-0.19 0.68-0.19 1.030v9.656l0.11 1.92c0.464 4.368 2.73 8.184 6.24 10.846 0.060 0.048 0.126 0.094 0.19 0.14l0.040 0.030c1.88 1.374 3.984 2.304 6.256 2.764 1.048 0.21 2.12 0.32 3.184 0.32 0.984 0 1.972-0.092 2.944-0.272 0.116-0.026 0.232-0.046 0.35-0.074 0.032-0.004 0.066-0.020 0.1-0.036 2.176-0.474 4.196-1.38 6.008-2.704l0.040-0.028 0.192-0.144c3.508-2.66 5.774-6.48 6.24-10.846l0.108-1.92v-9.652c0-0.334-0.040-0.666-0.16-0.99z"></path>
</svg>
