<!-- Generated by IcoMoon.io -->
<svg version="1.1" xmlns="http://www.w3.org/2000/svg" width="32" height="32" viewBox="0 0 32 32">
<title>quora</title>
<path d="M16.996 24.952c-1.108-2.18-2.408-4.386-4.946-4.386-0.484 0-0.97 0.080-1.414 0.28l-0.86-1.72c1.048-0.904 2.746-1.62 4.928-1.62 3.394 0 5.136 1.64 6.52 3.724 0.82-1.78 1.208-4.188 1.208-7.17 0-7.448-2.328-11.272-7.768-11.272-5.36 0-7.68 3.824-7.68 11.272 0 7.408 2.32 11.192 7.68 11.192 0.852 0 1.624-0.092 2.332-0.3v0zM18.326 27.552c-1.176 0.314-2.424 0.488-3.66 0.488-7.14 0-14.13-5.696-14.13-13.98 0-8.36 6.988-14.060 14.128-14.060 7.26 0 14.18 5.656 14.18 14.060 0 4.674-2.18 8.472-5.35 10.928 1.020 1.534 2.076 2.554 3.544 2.554 1.6 0 2.248-1.236 2.356-2.208h2.088c0.12 1.294-0.526 6.668-6.36 6.668-3.53 0-5.4-2.048-6.8-4.448l0.004-0.002z"></path>
</svg>
