<?xml version="1.0" encoding="utf-8"?>
<!-- Generated by IcoMoon.io -->
<!DOCTYPE svg PUBLIC "-//W3C//DTD SVG 1.1//EN" "http://www.w3.org/Graphics/SVG/1.1/DTD/svg11.dtd">
<svg version="1.1" xmlns="http://www.w3.org/2000/svg" xmlns:xlink="http://www.w3.org/1999/xlink" width="71" height="64" viewBox="0 0 71 64">
<path fill="rgb(0, 0, 0)" d="M29.679 34.429q0 2-1.446 3.429t-3.446 1.429q-2.036 0-3.5-1.429t-1.464-3.429q0-2.036 1.482-3.5t3.482-1.464 3.446 1.464 1.446 3.5zM46.143 29.464q2 0 3.446 1.464t1.446 3.5q0 2-1.446 3.429t-3.446 1.429q-2.036 0-3.5-1.429t-1.464-3.429q0-2.036 1.482-3.5t3.482-1.464zM70.857 29.071q0 2.214-1.107 4.071t-2.964 2.929q0.179 1.179 0.179 2.179 0 4.321-2.446 8.232t-7.054 6.911q-4.464 2.929-10.196 4.482t-11.982 1.554q-6.286 0-12.018-1.554t-10.161-4.482q-4.607-3-7.054-6.893t-2.446-8.25q0-1.036 0.179-2.357-1.714-1.107-2.75-2.911t-1.036-3.911q0-3.357 2.357-5.714t5.714-2.357q2.964 0 5.286 1.964 8.857-5.643 21.143-5.857l4.786-15.107q0.143-0.5 0.625-0.768t1.018-0.161l12.393 2.929q0.786-1.786 2.446-2.893t3.661-1.107q2.75 0 4.696 1.946t1.946 4.696-1.946 4.714-4.696 1.964q-2.714 0-4.661-1.929t-1.982-4.679l-11.25-2.643-4.143 13.071q11.679 0.5 20 5.929 2.286-2.071 5.393-2.071 3.357 0 5.714 2.357t2.357 5.714zM59.429 2.75q-1.607 0-2.75 1.143t-1.143 2.75 1.143 2.75 2.75 1.143 2.75-1.143 1.143-2.75-1.143-2.75-2.75-1.143zM2.75 29.071q0 2.393 1.821 3.964 1.75-4.679 6.429-8.393-1.286-0.893-2.929-0.893-2.214 0-3.768 1.554t-1.554 3.768zM55.964 51.107q4-2.607 6.125-5.929t2.125-6.929-2.125-6.911-6.125-5.911q-4.143-2.679-9.482-4.125t-11.196-1.446-11.196 1.446-9.482 4.125q-4 2.607-6.125 5.911t-2.125 6.911 2.125 6.929 6.125 5.929q4.143 2.679 9.482 4.125t11.196 1.446 11.196-1.446 9.482-4.125zM66.071 33.25q2.036-1.643 2.036-4.179 0-2.214-1.554-3.768t-3.768-1.554q-1.75 0-3.071 1 4.679 3.75 6.357 8.5zM44.929 46.393q0.393-0.393 0.964-0.393t0.964 0.393 0.393 0.982-0.393 0.982q-3.536 3.536-11.393 3.536h-0.071q-7.857 0-11.393-3.536-0.393-0.393-0.393-0.982t0.393-0.982 0.964-0.393 0.964 0.393q2.75 2.75 9.464 2.75h0.071q6.714 0 9.464-2.75z"></path>
</svg>
