<?xml version="1.0" encoding="utf-8"?>
<!-- Generated by IcoMoon.io -->
<!DOCTYPE svg PUBLIC "-//W3C//DTD SVG 1.1//EN" "http://www.w3.org/Graphics/SVG/1.1/DTD/svg11.dtd">
<svg version="1.1" xmlns="http://www.w3.org/2000/svg" xmlns:xlink="http://www.w3.org/1999/xlink" width="35" height="32" viewBox="0 0 35 32">
<path fill="#444" d="M14.839 17.214q0 1-0.723 1.714t-1.723 0.714q-1.018 0-1.75-0.714t-0.732-1.714q0-1.018 0.741-1.75t1.741-0.732 1.723 0.732 0.723 1.75zM23.071 14.732q1 0 1.723 0.732t0.723 1.75q0 1-0.723 1.714t-1.723 0.714q-1.018 0-1.75-0.714t-0.732-1.714q0-1.018 0.741-1.75t1.741-0.732zM35.429 14.536q0 1.107-0.554 2.036t-1.482 1.464q0.089 0.589 0.089 1.089 0 2.161-1.223 4.116t-3.527 3.455q-2.232 1.464-5.098 2.241t-5.991 0.777q-3.143 0-6.009-0.777t-5.080-2.241q-2.304-1.5-3.527-3.446t-1.223-4.125q0-0.518 0.089-1.179-0.857-0.554-1.375-1.455t-0.518-1.955q0-1.679 1.179-2.857t2.857-1.179q1.482 0 2.643 0.982 4.429-2.821 10.571-2.929l2.393-7.554q0.071-0.25 0.313-0.384t0.509-0.080l6.196 1.464q0.393-0.893 1.223-1.446t1.83-0.554q1.375 0 2.348 0.973t0.973 2.348-0.973 2.357-2.348 0.982q-1.357 0-2.33-0.964t-0.991-2.339l-5.625-1.321-2.071 6.536q5.839 0.25 10 2.964 1.143-1.036 2.696-1.036 1.679 0 2.857 1.179t1.179 2.857zM29.714 1.375q-0.804 0-1.375 0.571t-0.571 1.375 0.571 1.375 1.375 0.571 1.375-0.571 0.571-1.375-0.571-1.375-1.375-0.571zM1.375 14.536q0 1.196 0.911 1.982 0.875-2.339 3.214-4.196-0.643-0.446-1.464-0.446-1.107 0-1.884 0.777t-0.777 1.884zM27.982 25.554q2-1.304 3.063-2.964t1.063-3.464-1.063-3.455-3.063-2.955q-2.071-1.339-4.741-2.063t-5.598-0.723-5.598 0.723-4.741 2.063q-2 1.304-3.063 2.955t-1.063 3.455 1.063 3.464 3.063 2.964q2.071 1.339 4.741 2.063t5.598 0.723 5.598-0.723 4.741-2.063zM33.036 16.625q1.018-0.821 1.018-2.089 0-1.107-0.777-1.884t-1.884-0.777q-0.875 0-1.536 0.5 2.339 1.875 3.179 4.25zM22.464 23.196q0.196-0.196 0.482-0.196t0.482 0.196 0.196 0.491-0.196 0.491q-1.768 1.768-5.696 1.768h-0.036q-3.929 0-5.696-1.768-0.196-0.196-0.196-0.491t0.196-0.491 0.482-0.196 0.482 0.196q1.375 1.375 4.732 1.375h0.036q3.357 0 4.732-1.375z"></path>
</svg>
