<!-- Generated by IcoMoon.io -->
<svg version="1.1" xmlns="http://www.w3.org/2000/svg" width="32" height="32" viewBox="0 0 32 32">
<title>sampling-plus</title>
<path d="M15.98 0c-4.432 0-8.184 1.546-11.255 4.64-3.151 3.2-4.726 6.987-4.726 11.36s1.575 8.135 4.726 11.28c3.151 3.147 6.902 4.72 11.255 4.72 4.406 0 8.223-1.587 11.454-4.76 3.043-3.014 4.566-6.761 4.566-11.24s-1.549-8.267-4.645-11.36c-3.098-3.094-6.889-4.64-11.374-4.64zM16.020 2.88c3.631 0 6.715 1.28 9.252 3.841 2.563 2.533 3.843 5.626 3.843 9.28 0 3.68-1.254 6.734-3.764 9.16-2.643 2.614-5.755 3.921-9.332 3.921-3.578 0-6.662-1.296-9.251-3.881-2.591-2.587-3.885-5.654-3.885-9.2 0-3.547 1.308-6.64 3.925-9.28 2.51-2.561 5.58-3.841 9.211-3.841zM22.93 16.145c-0.303 0-0.577 0.183-0.692 0.462l-0.256 0.614-0.712-5.989c-0.047-0.382-0.373-0.668-0.761-0.662-0.384 0.008-0.701 0.305-0.733 0.689l-0.275 3.319-0.335-4.441c-0.030-0.389-0.355-0.693-0.746-0.693-0.392-0.001-0.718 0.301-0.749 0.691l-0.226 2.898-0.383-6.081c-0.025-0.396-0.352-0.704-0.749-0.704-0.396 0.001-0.723 0.309-0.747 0.705l-0.33 5.4-0.278-4.276c-0.025-0.396-0.351-0.702-0.747-0.702s-0.723 0.305-0.749 0.701l-0.339 5.173-0.267-3.675c-0.030-0.39-0.351-0.693-0.742-0.696s-0.72 0.296-0.753 0.686l-0.499 5.795-0.115-0.788c-0.049-0.326-0.303-0.583-0.63-0.633s-0.647 0.12-0.789 0.419l-0.849 1.786h-2.833v1.499h3.308c0.282 0 0.541-0.159 0.668-0.41l0.693 4.718c0.056 0.375 0.385 0.651 0.764 0.64 0.38-0.011 0.691-0.306 0.726-0.683l0.242-2.811 0.366 5.053c0.030 0.393 0.357 0.698 0.751 0.696s0.72-0.308 0.745-0.7l0.3-4.544 0.308 4.732c0.025 0.395 0.354 0.701 0.749 0.7 0.396 0 0.723-0.309 0.747-0.703l0.317-5.192 0.291 4.631c0.024 0.392 0.349 0.699 0.742 0.702s0.722-0.302 0.753-0.692l0.294-3.782 0.316 4.156c0.029 0.391 0.352 0.692 0.742 0.694 0.392 0.003 0.719-0.298 0.75-0.688l0.442-5.352 0.172 1.44c0.040 0.34 0.302 0.607 0.642 0.655 0.339 0.046 0.665-0.14 0.794-0.456l1.162-2.801h3.258v-1.5l-3.759-0.002zM17.898 16.483h-1.416v1.416c0 0.267-0.216 0.483-0.482 0.483-0.267 0-0.484-0.216-0.484-0.483v-1.416h-1.415c-0.267 0-0.483-0.216-0.483-0.482 0-0.267 0.217-0.483 0.483-0.483h1.415v-1.416c0-0.267 0.217-0.483 0.484-0.483s0.482 0.216 0.482 0.483v1.416h1.416c0.267 0 0.483 0.216 0.483 0.483 0 0.266-0.216 0.482-0.483 0.482z"></path>
</svg>
