<?xml version="1.0" encoding="utf-8"?>
<!-- Generated by IcoMoon.io -->
<!DOCTYPE svg PUBLIC "-//W3C//DTD SVG 1.1//EN" "http://www.w3.org/Graphics/SVG/1.1/DTD/svg11.dtd">
<svg version="1.1" xmlns="http://www.w3.org/2000/svg" xmlns:xlink="http://www.w3.org/1999/xlink" width="64" height="64" viewBox="0 0 64 64">
<path fill="rgb(0, 0, 0)" d="M56.331 32.065c0-13.846-11.227-25.073-25.076-25.073-1.294 0-2.558 0.127-3.797 0.316-2.503-2.136-5.74-3.433-9.284-3.433-7.893 0-14.299 6.403-14.299 14.299 0 3.224 1.078 6.19 2.88 8.58-0.367 1.713-0.573 3.488-0.573 5.311 0 13.853 11.223 25.080 25.073 25.080 1.779 0 3.516-0.192 5.188-0.546 2.513 2.19 5.789 3.526 9.383 3.526 7.896 0 14.3-6.403 14.3-14.3 0-3.904-1.566-7.436-4.106-10.015 0.185-1.229 0.313-2.472 0.313-3.746zM42.956 42.986c-0.985 1.404-2.434 2.503-4.336 3.296-1.902 0.8-4.158 1.195-6.763 1.195-3.131 0-5.713-0.542-7.745-1.631-1.439-0.779-2.609-1.823-3.512-3.131-0.899-1.301-1.353-2.572-1.353-3.804 0-0.718 0.271-1.329 0.81-1.837 0.542-0.511 1.232-0.766 2.067-0.766 0.676 0 1.253 0.196 1.72 0.597 0.467 0.395 0.869 0.985 1.198 1.765 0.405 0.93 0.841 1.703 1.308 2.324 0.467 0.625 1.13 1.14 1.977 1.541 0.852 0.405 1.971 0.608 3.351 0.608 1.905 0 3.45-0.405 4.638-1.222 1.188-0.814 1.785-1.83 1.785-3.052 0-0.965-0.319-1.751-0.961-2.352-0.642-0.604-1.469-1.064-2.489-1.383-1.016-0.316-2.369-0.655-4.075-1.013-2.276-0.491-4.182-1.065-5.716-1.717-1.535-0.659-2.757-1.552-3.653-2.685-0.903-1.136-1.352-2.544-1.352-4.223 0-1.607 0.474-3.028 1.428-4.274 0.947-1.243 2.324-2.204 4.13-2.87 1.802-0.669 3.917-1.003 6.355-1.003 1.943 0 3.629 0.22 5.047 0.663 1.421 0.443 2.599 1.033 3.536 1.768 0.934 0.738 1.62 1.511 2.053 2.317s0.649 1.596 0.649 2.362c0 0.704-0.271 1.339-0.807 1.902-0.542 0.56-1.219 0.845-2.026 0.845-0.735 0-1.295-0.172-1.675-0.508s-0.796-0.889-1.243-1.658c-0.577-1.099-1.267-1.96-2.077-2.575-0.807-0.615-2.105-0.924-3.893-0.924-1.655 0-2.99 0.333-4.006 1.002-1.020 0.666-1.524 1.473-1.524 2.413 0 0.584 0.172 1.088 0.518 1.511 0.343 0.426 0.82 0.786 1.428 1.092 0.601 0.306 1.215 0.543 1.837 0.721 0.618 0.168 1.641 0.422 3.069 0.752 1.785 0.384 3.402 0.81 4.851 1.274s2.681 1.027 3.698 1.686c1.020 0.666 1.813 1.504 2.379 2.516 0.57 1.013 0.855 2.256 0.855 3.728 0 1.757-0.494 3.343-1.48 4.747z"></path>
</svg>
