<!-- Generated by IcoMoon.io -->
<svg version="1.1" xmlns="http://www.w3.org/2000/svg" width="32" height="32" viewBox="0 0 32 32">
<title>skype</title>
<path d="M28.166 16.033c0-6.923-5.613-12.536-12.538-12.536-0.647 0-1.279 0.063-1.899 0.158-1.251-1.068-2.87-1.717-4.642-1.717-3.947 0-7.15 3.202-7.15 7.15 0 1.612 0.539 3.095 1.44 4.29-0.184 0.857-0.287 1.744-0.287 2.656 0 6.927 5.612 12.54 12.536 12.54 0.889 0 1.758-0.096 2.594-0.273 1.257 1.095 2.894 1.763 4.692 1.763 3.948 0 7.15-3.201 7.15-7.15 0-1.952-0.783-3.718-2.053-5.007 0.093-0.615 0.156-1.236 0.156-1.873zM21.478 21.493c-0.493 0.702-1.217 1.251-2.168 1.648-0.951 0.4-2.079 0.597-3.382 0.597-1.566 0-2.856-0.271-3.873-0.815-0.719-0.39-1.305-0.912-1.756-1.566-0.45-0.651-0.676-1.286-0.676-1.902 0-0.359 0.136-0.664 0.405-0.918 0.271-0.256 0.616-0.383 1.033-0.383 0.338 0 0.627 0.098 0.86 0.299 0.233 0.197 0.434 0.493 0.599 0.882 0.203 0.465 0.421 0.851 0.654 1.162 0.233 0.312 0.565 0.57 0.989 0.771 0.426 0.203 0.985 0.304 1.675 0.304 0.953 0 1.725-0.203 2.319-0.611 0.594-0.407 0.893-0.915 0.893-1.526 0-0.482-0.16-0.875-0.481-1.176-0.321-0.302-0.735-0.532-1.245-0.692-0.508-0.158-1.184-0.328-2.038-0.506-1.138-0.245-2.091-0.532-2.858-0.858-0.767-0.33-1.378-0.776-1.826-1.342-0.451-0.568-0.676-1.272-0.676-2.111 0-0.803 0.237-1.514 0.714-2.137 0.474-0.621 1.162-1.102 2.065-1.435 0.901-0.335 1.959-0.501 3.177-0.501 0.972 0 1.815 0.11 2.523 0.331 0.711 0.221 1.299 0.517 1.768 0.884 0.467 0.369 0.81 0.755 1.027 1.159s0.324 0.798 0.324 1.181c0 0.352-0.136 0.669-0.403 0.951-0.271 0.28-0.609 0.422-1.013 0.422-0.368 0-0.647-0.086-0.838-0.254s-0.398-0.445-0.621-0.829c-0.288-0.549-0.634-0.98-1.038-1.287-0.403-0.307-1.052-0.462-1.947-0.462-0.827 0-1.495 0.167-2.003 0.501-0.51 0.333-0.762 0.736-0.762 1.207 0 0.292 0.086 0.544 0.259 0.755 0.172 0.213 0.41 0.393 0.714 0.546 0.3 0.153 0.608 0.271 0.918 0.361 0.309 0.084 0.821 0.211 1.535 0.376 0.893 0.192 1.701 0.405 2.426 0.637s1.341 0.513 1.849 0.843c0.51 0.333 0.906 0.752 1.19 1.258 0.285 0.506 0.427 1.128 0.427 1.864 0 0.878-0.247 1.672-0.74 2.374z"></path>
</svg>
