<!-- Generated by IcoMoon.io -->
<svg version="1.1" xmlns="http://www.w3.org/2000/svg" width="32" height="32" viewBox="0 0 32 32">
<title>slack</title>
<path d="M30.944 17.088c-0.354-1.124-1.323-1.905-2.656-1.888-0.505 0.006-0.961 0.124-1.401 0.277-0.709 0.248-2.119 0.715-2.119 0.715s-0.972-3.072-1.476-4.589c-0.116-0.348-0.348-1.043-0.348-1.043s0.775-0.294 1.19-0.408c0.742-0.204 1.512-0.384 2.138-0.776 0.886-0.555 1.56-1.744 1.152-3.104-0.337-1.121-1.305-1.916-2.592-1.92-0.7-0.003-1.308 0.212-1.9 0.448-0.534 0.212-1.62 0.544-1.62 0.544s-0.318-0.736-0.435-1.143c-0.213-0.741-0.383-1.529-0.781-2.153-0.568-0.89-1.717-1.569-3.104-1.152-1.124 0.338-1.92 1.3-1.92 2.592 0 0.627 0.174 1.179 0.381 1.713 0.231 0.598 0.611 1.807 0.611 1.807l-5.6 1.856c0 0-0.441-1.199-0.62-1.844-0.146-0.527-0.312-1.045-0.596-1.484-0.56-0.864-1.776-1.553-3.136-1.12-1.088 0.346-1.899 1.348-1.888 2.624 0.005 0.645 0.258 1.248 0.448 1.824 0.188 0.567 0.383 1.123 0.576 1.664-1.776 0.773-4.26 0.839-4.576 3.072v0.864c0.345 1.408 1.416 2.598 3.2 2.272 1.013-0.185 3.040-0.992 3.040-0.992l1.856 5.632c0 0-2.357 0.594-3.328 1.216-0.887 0.568-1.566 1.73-1.12 3.136 0.353 1.113 1.315 1.933 2.656 1.888 1.236-0.041 2.333-0.813 3.488-1.024 0.454 1.064 0.544 2.389 1.184 3.36 0.565 0.857 1.781 1.561 3.168 1.088 1.062-0.362 1.9-1.357 1.856-2.656-0.041-1.218-0.848-2.33-1.024-3.488 1.901-0.595 3.761-1.231 5.664-1.824 0.624 1.753 0.757 3.771 2.496 4.416 1.984 0.737 3.916-0.8 3.68-2.912-0.061-0.545-0.341-1.083-0.512-1.6-0.175-0.528-0.293-1.059-0.512-1.568 1.011-0.518 2.369-0.551 3.36-1.184 0.86-0.549 1.54-1.801 1.12-3.136zM13.952 19.712l-1.824-5.664 5.632-1.792 1.856 5.6-5.664 1.856z"></path>
</svg>
