<?xml version="1.0" encoding="utf-8"?>
<!-- Generated by IcoMoon.io -->
<!DOCTYPE svg PUBLIC "-//W3C//DTD SVG 1.1//EN" "http://www.w3.org/Graphics/SVG/1.1/DTD/svg11.dtd">
<svg version="1.1" xmlns="http://www.w3.org/2000/svg" xmlns:xlink="http://www.w3.org/1999/xlink" width="64" height="64" viewBox="0 0 64 64">
<path fill="rgb(0, 0, 0)" d="M61.888 34.176c-0.707-2.248-2.645-3.809-5.312-3.776-1.010 0.013-1.923 0.247-2.801 0.555-1.418 0.496-4.239 1.429-4.239 1.429s-1.944-6.143-2.953-9.178c-0.231-0.696-0.695-2.086-0.695-2.086s1.549-0.588 2.38-0.817c1.484-0.409 3.023-0.767 4.276-1.551 1.773-1.11 3.121-3.489 2.304-6.208-0.673-2.241-2.611-3.831-5.184-3.84-1.401-0.005-2.616 0.424-3.8 0.895-1.067 0.425-3.24 1.089-3.24 1.089s-0.636-1.472-0.87-2.286c-0.426-1.482-0.766-3.058-1.562-4.306-1.135-1.78-3.434-3.139-6.208-2.304-2.247 0.676-3.84 2.6-3.84 5.184 0 1.253 0.349 2.357 0.761 3.426 0.461 1.195 1.223 3.614 1.223 3.614l-11.2 3.712c0 0-0.883-2.398-1.239-3.688-0.291-1.054-0.624-2.090-1.193-2.968-1.119-1.729-3.553-3.105-6.272-2.24-2.177 0.693-3.797 2.695-3.776 5.248 0.011 1.29 0.515 2.497 0.896 3.648 0.375 1.133 0.765 2.245 1.152 3.328-3.552 1.547-8.52 1.678-9.152 6.144v1.728c0.691 2.815 2.833 5.196 6.4 4.544 2.026-0.37 6.080-1.984 6.080-1.984l3.712 11.264c0 0-4.714 1.188-6.656 2.432-1.773 1.136-3.133 3.46-2.24 6.272 0.707 2.225 2.63 3.866 5.312 3.776 2.471-0.083 4.667-1.626 6.976-2.048 0.907 2.129 1.088 4.779 2.368 6.72 1.13 1.715 3.562 3.123 6.336 2.176 2.125-0.724 3.8-2.714 3.712-5.312-0.082-2.437-1.697-4.66-2.048-6.976 3.802-1.19 7.523-2.461 11.328-3.648 1.247 3.507 1.514 7.541 4.992 8.832 3.969 1.473 7.832-1.601 7.36-5.824-0.122-1.091-0.682-2.165-1.024-3.2-0.349-1.057-0.586-2.117-1.024-3.136 2.021-1.037 4.739-1.103 6.72-2.368 1.72-1.098 3.080-3.601 2.24-6.272zM27.904 39.424l-3.648-11.328 11.264-3.584 3.712 11.2-11.328 3.712z"></path>
</svg>
