<?xml version="1.0" encoding="utf-8"?>
<!-- Generated by IcoMoon.io -->
<!DOCTYPE svg PUBLIC "-//W3C//DTD SVG 1.1//EN" "http://www.w3.org/Graphics/SVG/1.1/DTD/svg11.dtd">
<svg version="1.1" xmlns="http://www.w3.org/2000/svg" xmlns:xlink="http://www.w3.org/1999/xlink" width="64" height="64" viewBox="0 0 64 64">
<path fill="rgb(0, 0, 0)" d="M32.301 53.998c-0.133 0-0.259-0.005-0.356-0.009-0.076 0.007-0.155 0.009-0.235 0.009-2.79 0-4.656-1.319-6.302-2.484-1.18-0.833-2.293-1.62-3.597-1.837-0.64-0.106-1.277-0.16-1.893-0.16-1.109 0-1.985 0.172-2.625 0.297-0.394 0.077-0.733 0.143-0.996 0.143-0.275 0-0.609-0.061-0.748-0.536-0.11-0.375-0.189-0.738-0.266-1.088-0.191-0.874-0.329-1.407-0.657-1.458-3.499-0.54-5.567-1.335-5.979-2.299-0.043-0.101-0.067-0.203-0.073-0.304-0.016-0.287 0.187-0.539 0.47-0.586 2.779-0.458 5.25-1.927 7.345-4.367 1.623-1.89 2.42-3.695 2.505-3.895 0.004-0.009 0.008-0.018 0.013-0.027 0.404-0.819 0.484-1.527 0.239-2.104-0.451-1.063-1.944-1.537-2.932-1.851-0.246-0.078-0.478-0.151-0.663-0.225-0.876-0.346-2.316-1.077-2.124-2.086 0.14-0.736 1.113-1.248 1.899-1.248 0.219 0 0.412 0.038 0.575 0.115 0.889 0.416 1.688 0.627 2.376 0.627 0.855 0 1.268-0.326 1.368-0.418-0.024-0.456-0.055-0.938-0.084-1.394 0-0-0.001-0.006-0.001-0.006-0.201-3.193-0.451-7.166 0.565-9.445 3.042-6.821 9.494-7.351 11.398-7.351 0.051 0 0.83-0.008 0.83-0.008 0.035-0.001 0.073-0.001 0.113-0.001 1.91 0 8.374 0.531 11.418 7.356 1.017 2.28 0.766 6.257 0.565 9.453l-0.009 0.153c-0.028 0.434-0.053 0.845-0.075 1.243 0.094 0.087 0.472 0.385 1.241 0.415 0.655-0.025 1.409-0.235 2.238-0.624 0.256-0.12 0.54-0.145 0.733-0.145 0.291 0 0.588 0.057 0.835 0.16l0.013 0.005c0.704 0.25 1.165 0.749 1.175 1.274 0.009 0.489-0.355 1.22-2.142 1.926-0.183 0.073-0.417 0.147-0.663 0.225-0.989 0.314-2.481 0.787-2.932 1.85-0.245 0.576-0.164 1.284 0.239 2.103 0.005 0.009 0.008 0.018 0.013 0.028 0.124 0.291 3.135 7.155 9.851 8.262 0.283 0.047 0.486 0.299 0.47 0.586-0.006 0.103-0.031 0.206-0.074 0.307-0.409 0.958-2.477 1.752-5.977 2.293-0.329 0.051-0.467 0.582-0.656 1.451-0.078 0.359-0.158 0.711-0.267 1.081-0.102 0.348-0.328 0.518-0.692 0.518h-0.055c-0.237 0-0.573-0.043-0.996-0.126-0.74-0.144-1.57-0.278-2.625-0.278-0.615 0-1.252 0.054-1.893 0.16-1.302 0.217-2.415 1.003-3.593 1.835-1.65 1.166-3.516 2.486-6.306 2.486z"></path>
</svg>
