<!-- Generated by IcoMoon.io -->
<svg version="1.1" xmlns="http://www.w3.org/2000/svg" width="32" height="32" viewBox="0 0 32 32">
<title>snapchat</title>
<path d="M16.161 27.749c-0.071 0-0.138-0.003-0.19-0.005-0.041 0.003-0.083 0.005-0.125 0.005-1.49 0-2.487-0.705-3.366-1.327-0.63-0.445-1.225-0.865-1.921-0.981-0.342-0.057-0.682-0.085-1.011-0.085-0.592 0-1.060 0.092-1.402 0.159-0.21 0.041-0.392 0.076-0.532 0.076-0.147 0-0.325-0.033-0.399-0.286-0.059-0.2-0.101-0.394-0.142-0.581-0.102-0.467-0.176-0.752-0.351-0.779-1.869-0.288-2.973-0.713-3.193-1.228-0.023-0.054-0.036-0.108-0.039-0.162-0.009-0.154 0.1-0.288 0.251-0.313 1.484-0.245 2.804-1.029 3.923-2.333 0.867-1.009 1.292-1.974 1.338-2.080 0.002-0.005 0.004-0.010 0.007-0.014 0.216-0.438 0.259-0.816 0.128-1.124-0.241-0.568-1.038-0.821-1.566-0.988-0.131-0.041-0.255-0.081-0.354-0.12-0.468-0.185-1.237-0.575-1.135-1.114 0.075-0.393 0.594-0.667 1.014-0.667 0.117 0 0.22 0.021 0.307 0.061 0.475 0.222 0.902 0.335 1.269 0.335 0.457 0 0.677-0.174 0.731-0.223-0.013-0.244-0.029-0.501-0.045-0.745 0-0-0-0.003-0-0.003-0.107-1.705-0.241-3.828 0.302-5.045 1.625-3.643 5.070-3.926 6.087-3.926 0.027 0 0.443-0.004 0.443-0.004 0.019-0 0.039-0.001 0.060-0.001 1.020 0 4.473 0.284 6.098 3.929 0.543 1.218 0.409 3.342 0.301 5.049l-0.005 0.082c-0.015 0.232-0.028 0.451-0.040 0.664 0.050 0.046 0.252 0.206 0.663 0.222 0.35-0.013 0.752-0.126 1.195-0.333 0.137-0.064 0.288-0.078 0.392-0.078 0.156 0 0.314 0.030 0.446 0.085l0.007 0.003c0.376 0.133 0.622 0.4 0.627 0.68 0.005 0.261-0.189 0.652-1.144 1.028-0.098 0.039-0.223 0.078-0.354 0.12-0.528 0.168-1.325 0.421-1.566 0.988-0.131 0.308-0.088 0.686 0.128 1.123 0.003 0.005 0.004 0.010 0.007 0.015 0.066 0.156 1.674 3.822 5.261 4.412 0.151 0.025 0.26 0.16 0.251 0.313-0.003 0.055-0.016 0.11-0.040 0.164-0.218 0.512-1.323 0.936-3.192 1.225-0.176 0.027-0.25 0.311-0.351 0.775-0.042 0.192-0.084 0.38-0.143 0.577-0.054 0.186-0.175 0.277-0.37 0.277h-0.029c-0.126 0-0.306-0.023-0.532-0.067-0.395-0.077-0.838-0.148-1.402-0.148-0.329 0-0.669 0.029-1.011 0.085-0.696 0.116-1.29 0.536-1.919 0.98-0.881 0.623-1.878 1.328-3.368 1.328z"></path>
</svg>
