<?xml version="1.0" encoding="utf-8"?>
<!-- Generated by IcoMoon.io -->
<!DOCTYPE svg PUBLIC "-//W3C//DTD SVG 1.1//EN" "http://www.w3.org/Graphics/SVG/1.1/DTD/svg11.dtd">
<svg version="1.1" xmlns="http://www.w3.org/2000/svg" xmlns:xlink="http://www.w3.org/1999/xlink" width="32" height="32" viewBox="0 0 32 32">
<path d="M16.151 26.999c-0.066 0-0.13-0.002-0.178-0.005-0.038 0.003-0.078 0.005-0.117 0.005-1.395 0-2.328-0.66-3.151-1.242-0.59-0.417-1.146-0.81-1.798-0.919-0.32-0.053-0.639-0.080-0.946-0.080-0.554 0-0.993 0.086-1.313 0.149-0.197 0.038-0.367 0.071-0.498 0.071-0.137 0-0.304-0.030-0.374-0.268-0.055-0.187-0.095-0.369-0.133-0.544-0.095-0.437-0.165-0.703-0.328-0.729-1.75-0.27-2.784-0.668-2.99-1.149-0.022-0.050-0.034-0.102-0.036-0.152-0.008-0.144 0.093-0.27 0.235-0.293 1.39-0.229 2.625-0.963 3.673-2.184 0.811-0.945 1.21-1.848 1.253-1.947 0.002-0.004 0.004-0.009 0.006-0.014 0.202-0.41 0.242-0.764 0.12-1.052-0.225-0.532-0.972-0.769-1.466-0.925-0.123-0.039-0.239-0.076-0.332-0.113-0.438-0.173-1.158-0.538-1.062-1.043 0.070-0.368 0.556-0.624 0.95-0.624 0.109 0 0.206 0.019 0.287 0.057 0.444 0.208 0.844 0.314 1.188 0.314 0.428 0 0.634-0.163 0.684-0.209-0.012-0.228-0.027-0.469-0.042-0.697 0-0-0-0.003-0-0.003-0.1-1.596-0.226-3.583 0.283-4.723 1.521-3.411 4.747-3.676 5.699-3.676 0.025 0 0.415-0.004 0.415-0.004 0.018-0 0.037-0.001 0.056-0.001 0.955 0 4.187 0.266 5.709 3.678 0.508 1.14 0.383 3.129 0.282 4.727l-0.005 0.076c-0.014 0.217-0.026 0.422-0.037 0.621 0.047 0.043 0.236 0.193 0.62 0.208 0.328-0.013 0.704-0.118 1.119-0.312 0.128-0.060 0.27-0.073 0.367-0.073 0.146 0 0.294 0.028 0.417 0.080l0.007 0.003c0.352 0.125 0.582 0.374 0.587 0.637 0.004 0.245-0.177 0.61-1.071 0.963-0.091 0.036-0.208 0.073-0.332 0.113-0.494 0.157-1.24 0.394-1.466 0.925-0.123 0.288-0.082 0.642 0.12 1.052 0.002 0.004 0.004 0.009 0.006 0.014 0.062 0.146 1.567 3.578 4.925 4.131 0.141 0.024 0.243 0.15 0.235 0.293-0.003 0.052-0.015 0.103-0.037 0.153-0.204 0.479-1.238 0.876-2.989 1.146-0.164 0.025-0.234 0.291-0.328 0.726-0.039 0.18-0.079 0.356-0.133 0.54-0.051 0.174-0.164 0.259-0.346 0.259h-0.027c-0.118 0-0.286-0.021-0.498-0.063-0.37-0.072-0.785-0.139-1.313-0.139-0.308 0-0.626 0.027-0.947 0.080-0.651 0.108-1.208 0.501-1.797 0.918-0.825 0.583-1.758 1.243-3.153 1.243z"></path>
</svg>
