<!-- Generated by IcoMoon.io -->
<svg version="1.1" xmlns="http://www.w3.org/2000/svg" width="32" height="32" viewBox="0 0 32 32">
<title>spotify</title>
<path d="M16 0.64c-8.483 0-15.36 6.877-15.36 15.36 0 3.878 1.437 7.421 3.808 10.122 2.403-2.403 5.694-3.752 9.472-3.63 4.819 0.157 8.624 2.438 10.805 6.15 4.008-2.771 6.635-7.398 6.635-12.642 0-8.483-6.877-15.36-15.36-15.36zM23.509 21.475c-0.27 0.448-0.85 0.586-1.296 0.315-3.558-2.173-8.032-2.664-13.302-1.461-0.506 0.117-1.014-0.2-1.128-0.71-0.117-0.504 0.198-1.013 0.707-1.128 5.768-1.318 10.715-0.749 14.706 1.686 0.445 0.272 0.587 0.853 0.314 1.298zM25.363 17.118c-0.341 0.557-1.069 0.73-1.622 0.387-4.070-2.501-10.275-3.226-15.090-1.765-0.626 0.189-1.285-0.165-1.472-0.786-0.189-0.626 0.163-1.285 0.786-1.472 5.499-1.672 12.336-0.862 17.011 2.010 0.555 0.346 0.73 1.069 0.387 1.626zM25.522 12.605c-4.88-2.901-12.93-3.165-17.589-1.752-0.749 0.229-1.539-0.194-1.766-0.942-0.226-0.749 0.197-1.542 0.942-1.766 5.35-1.624 14.24-1.31 19.858 2.026 0.674 0.4 0.896 1.269 0.498 1.942-0.402 0.67-1.269 0.891-1.942 0.493zM13.822 27.085c-2.162-0.069-3.96 0.773-5.274 2.349 2.206 1.227 4.747 1.926 7.451 1.926 1.304 0 2.57-0.163 3.779-0.469-1.158-2.379-3.179-3.717-5.957-3.806z"></path>
</svg>
