<?xml version="1.0" encoding="utf-8"?>
<!-- Generated by IcoMoon.io -->
<!DOCTYPE svg PUBLIC "-//W3C//DTD SVG 1.1//EN" "http://www.w3.org/Graphics/SVG/1.1/DTD/svg11.dtd">
<svg version="1.1" xmlns="http://www.w3.org/2000/svg" xmlns:xlink="http://www.w3.org/1999/xlink" width="64" height="64" viewBox="0 0 64 64">
<path fill="rgb(0, 0, 0)" d="M32 1.28c-16.966 0-30.72 13.754-30.72 30.72 0 7.757 2.874 14.842 7.616 20.243 4.806-4.806 11.389-7.504 18.944-7.261 9.638 0.314 17.248 4.877 21.61 12.301 8.016-5.542 13.27-14.797 13.27-25.283 0-16.966-13.754-30.72-30.72-30.72zM47.018 42.95c-0.541 0.896-1.699 1.171-2.592 0.63-7.117-4.346-16.064-5.328-26.605-2.922-1.011 0.234-2.029-0.4-2.256-1.421-0.234-1.008 0.397-2.026 1.414-2.256 11.536-2.637 21.43-1.498 29.411 3.373 0.89 0.544 1.174 1.706 0.627 2.595zM50.726 34.237c-0.682 1.114-2.138 1.459-3.245 0.774-8.141-5.002-20.55-6.451-30.179-3.53-1.251 0.378-2.57-0.33-2.944-1.571-0.378-1.251 0.326-2.57 1.571-2.944 10.998-3.344 24.672-1.725 34.022 4.019 1.11 0.691 1.459 2.138 0.774 3.251zM51.043 25.21c-9.76-5.802-25.859-6.33-35.178-3.504-1.498 0.458-3.078-0.387-3.533-1.885-0.451-1.498 0.394-3.085 1.885-3.533 10.701-3.248 28.48-2.621 39.715 4.051 1.347 0.8 1.792 2.538 0.995 3.885-0.803 1.341-2.538 1.782-3.885 0.986zM27.645 54.17c-4.323-0.138-7.92 1.546-10.547 4.698 4.413 2.454 9.494 3.853 14.902 3.853 2.608 0 5.139-0.326 7.558-0.938-2.317-4.758-6.358-7.434-11.914-7.613z"></path>
</svg>
