<?xml version="1.0" encoding="utf-8"?>
<!-- Generated by IcoMoon.io -->
<!DOCTYPE svg PUBLIC "-//W3C//DTD SVG 1.1//EN" "http://www.w3.org/Graphics/SVG/1.1/DTD/svg11.dtd">
<svg version="1.1" xmlns="http://www.w3.org/2000/svg" xmlns:xlink="http://www.w3.org/1999/xlink" width="50" height="64" viewBox="0 0 50 64">
<path fill="rgb(0, 0, 0)" d="M33.143 50.036v5.393l-25.25 0.036v-5.393zM41.75 37.679v25.036l-0.036 1.25v0.036l-41.714-0.036v-26.286h4.321v22.071h33.143v-22.071h4.286zM8.607 40.821l25.143 2.321-0.464 5.357-25.179-2.321zM11.036 29.536l24.393 6.536-1.393 5.214-24.393-6.536zM16.857 17.071l21.75 12.857-2.75 4.643-21.75-12.857zM29.714 5.25l14.214 20.893-4.429 3.036-14.25-20.857zM45.893 0l4.321 24.893-5.321 0.929-4.321-24.893z"></path>
</svg>
