<?xml version="1.0" encoding="utf-8"?>
<!-- Generated by IcoMoon.io -->
<!DOCTYPE svg PUBLIC "-//W3C//DTD SVG 1.1//EN" "http://www.w3.org/Graphics/SVG/1.1/DTD/svg11.dtd">
<svg version="1.1" xmlns="http://www.w3.org/2000/svg" xmlns:xlink="http://www.w3.org/1999/xlink" width="25" height="32" viewBox="0 0 25 32">
<path fill="#444" d="M16.571 25.018v2.696l-12.625 0.018v-2.696zM20.875 18.839v12.518l-0.018 0.625v0.018l-20.857-0.018v-13.143h2.161v11.036h16.571v-11.036h2.143zM4.304 20.411l12.571 1.161-0.232 2.679-12.589-1.161zM5.518 14.768l12.196 3.268-0.696 2.607-12.196-3.268zM8.429 8.536l10.875 6.429-1.375 2.321-10.875-6.429zM14.857 2.625l7.107 10.446-2.214 1.518-7.125-10.429zM22.946 0l2.161 12.446-2.661 0.464-2.161-12.446z"></path>
</svg>
