<?xml version="1.0" encoding="utf-8"?>
<!-- Generated by IcoMoon.io -->
<!DOCTYPE svg PUBLIC "-//W3C//DTD SVG 1.1//EN" "http://www.w3.org/Graphics/SVG/1.1/DTD/svg11.dtd">
<svg version="1.1" xmlns="http://www.w3.org/2000/svg" xmlns:xlink="http://www.w3.org/1999/xlink" width="69" height="64" viewBox="0 0 69 64">
<path fill="rgb(0, 0, 0)" d="M37.929 25.429v-4.214q0-1.5-1.071-2.571t-2.571-1.071-2.571 1.071-1.071 2.571v21.857q0 6.25-4.5 10.679t-10.821 4.429q-6.357 0-10.839-4.482t-4.482-10.839v-9.5h11.714v9.357q0 1.536 1.071 2.589t2.571 1.054 2.571-1.054 1.071-2.589v-22.143q0-6.107 4.518-10.429t10.768-4.321q6.286 0 10.786 4.357t4.5 10.5v4.857l-6.964 2.071zM56.857 33.357h11.714v9.5q0 6.357-4.482 10.839t-10.839 4.482q-6.321 0-10.821-4.446t-4.5-10.732v-9.571l4.679 2.179 6.964-2.071v9.643q0 1.5 1.071 2.554t2.571 1.054 2.571-1.054 1.071-2.554v-9.821z"></path>
</svg>
