<!-- Generated by IcoMoon.io -->
<svg version="1.1" xmlns="http://www.w3.org/2000/svg" width="32" height="32" viewBox="0 0 32 32">
<title>tiktok</title>
<path d="M22.429 6.846c-0.977-1.121-1.565-2.582-1.565-4.179h-1.225c0.315 1.746 1.355 3.244 2.79 4.179z"></path>
<path d="M11.096 15.873c-2.122 0-3.848 1.727-3.848 3.851 0 1.48 0.841 2.768 2.066 3.411-0.458-0.631-0.73-1.405-0.73-2.247 0-2.124 1.726-3.851 3.848-3.851 0.396 0 0.779 0.068 1.138 0.179v-4.681c-0.371-0.050-0.749-0.081-1.138-0.081-0.068 0-0.13 0.006-0.198 0.006v3.591c-0.365-0.111-0.742-0.179-1.138-0.179z"></path>
<path d="M25.899 8.901v3.56c-2.375 0-4.578-0.761-6.372-2.049v9.318c0 4.65-3.78 8.439-8.432 8.439-1.794 0-3.464-0.57-4.831-1.529 1.54 1.653 3.737 2.693 6.168 2.693 4.646 0 8.432-3.783 8.432-8.439v-9.318c1.794 1.288 3.996 2.049 6.372 2.049v-4.582c-0.464 0-0.909-0.050-1.336-0.142z"></path>
<path d="M19.527 19.73v-9.318c1.794 1.288 3.996 2.049 6.372 2.049v-3.56c-1.373-0.291-2.579-1.034-3.47-2.056-1.435-0.935-2.469-2.433-2.796-4.179h-3.353l-0.006 18.37c-0.074 2.056-1.769 3.709-3.842 3.709-1.287 0-2.419-0.638-3.124-1.604-1.225-0.65-2.066-1.932-2.066-3.412 0-2.124 1.726-3.851 3.848-3.851 0.396 0 0.779 0.068 1.138 0.18v-3.591c-4.553 0.099-8.228 3.839-8.228 8.427 0 2.217 0.86 4.235 2.264 5.746 1.367 0.96 3.037 1.529 4.831 1.529 4.646 0 8.432-3.789 8.432-8.439z"></path>
</svg>
