<?xml version="1.0" encoding="utf-8"?>
<!-- Generated by IcoMoon.io -->
<!DOCTYPE svg PUBLIC "-//W3C//DTD SVG 1.1//EN" "http://www.w3.org/Graphics/SVG/1.1/DTD/svg11.dtd">
<svg version="1.1" xmlns="http://www.w3.org/2000/svg" xmlns:xlink="http://www.w3.org/1999/xlink" width="64" height="64" viewBox="0 0 64 64">
<path fill="rgb(0, 0, 0)" d="M59.857 48v4.571q0 0.929-0.679 1.607t-1.607 0.679h-50.286q-0.929 0-1.607-0.679t-0.679-1.607v-4.571q0-0.929 0.679-1.607t1.607-0.679h50.286q0.929 0 1.607 0.679t0.679 1.607zM59.857 29.714v4.571q0 0.929-0.679 1.607t-1.607 0.679h-50.286q-0.929 0-1.607-0.679t-0.679-1.607v-4.571q0-0.929 0.679-1.607t1.607-0.679h50.286q0.929 0 1.607 0.679t0.679 1.607zM59.857 11.429v4.571q0 0.929-0.679 1.607t-1.607 0.679h-50.286q-0.929 0-1.607-0.679t-0.679-1.607v-4.571q0-0.929 0.679-1.607t1.607-0.679h50.286q0.929 0 1.607 0.679t0.679 1.607z"></path>
</svg>
