<?xml version="1.0" encoding="utf-8"?>
<!-- Generated by IcoMoon.io -->
<!DOCTYPE svg PUBLIC "-//W3C//DTD SVG 1.1//EN" "http://www.w3.org/Graphics/SVG/1.1/DTD/svg11.dtd">
<svg version="1.1" xmlns="http://www.w3.org/2000/svg" xmlns:xlink="http://www.w3.org/1999/xlink" width="64" height="64" viewBox="0 0 64 64">
<path fill="rgb(0, 0, 0)" d="M35.758 49.352c-1.056-0.614-1.779-1.432-2.169-2.464-0.389-1.024-1.225-3.348-1.225-6.966v-10.145h15.181v-10.907h-15.181v-15.462h-6.373c-0.407 3.221-0.502 4.281-1.572 6.369-1.074 2.085-2.499 4.825-4.274 6.313-1.769 1.488-4.222 2.945-6.71 3.741v9.945h7.32v16.030c0 2.857 0.302 5.032 0.909 6.534 0.607 1.505 1.695 2.923 3.267 4.257 1.569 1.33 5.047 3.081 5.047 3.081s2.794 1.081 5.685 1.081c2.548 0 4.924-0.253 7.117-0.758s5.45-1.706 8.155-2.965v-9.84c-3.172 2.053-7.173 3.397-10.37 3.397-1.807 0-3.407-0.414-4.808-1.242z"></path>
</svg>
