<!-- Generated by IcoMoon.io -->
<svg version="1.1" xmlns="http://www.w3.org/2000/svg" width="32" height="32" viewBox="0 0 32 32">
<title>tumblr</title>
<path d="M17.879 24.676c-0.528-0.307-0.89-0.716-1.084-1.232-0.195-0.512-0.612-1.674-0.612-3.483v-5.073h7.59v-5.453h-7.59v-7.731h-3.186c-0.204 1.611-0.251 2.141-0.786 3.185-0.537 1.042-1.249 2.413-2.137 3.156-0.884 0.744-2.111 1.472-3.355 1.871v4.973h3.66v8.015c0 1.428 0.151 2.516 0.454 3.267 0.303 0.753 0.848 1.462 1.634 2.128 0.784 0.665 2.523 1.541 2.523 1.541s1.397 0.54 2.842 0.54c1.274 0 2.462-0.126 3.559-0.379s2.725-0.853 4.078-1.483v-4.92c-1.586 1.026-3.587 1.698-5.185 1.698-0.904 0-1.704-0.207-2.404-0.621z"></path>
</svg>
