<?xml version="1.0" encoding="utf-8"?>
<!-- Generated by IcoMoon.io -->
<!DOCTYPE svg PUBLIC "-//W3C//DTD SVG 1.1//EN" "http://www.w3.org/Graphics/SVG/1.1/DTD/svg11.dtd">
<svg version="1.1" xmlns="http://www.w3.org/2000/svg" xmlns:xlink="http://www.w3.org/1999/xlink" width="59" height="64" viewBox="0 0 59 64">
<path fill="rgb(0, 0, 0)" d="M57.857 15.571q-2.393 3.5-5.786 5.964 0.036 0.5 0.036 1.5 0 4.643-1.357 9.268t-4.125 8.875-6.589 7.518-9.214 5.214-11.536 1.946q-9.679 0-17.714-5.179 1.25 0.143 2.786 0.143 8.036 0 14.321-4.929-3.75-0.071-6.714-2.304t-4.071-5.696q1.179 0.179 2.179 0.179 1.536 0 3.036-0.393-4-0.821-6.625-3.982t-2.625-7.339v-0.143q2.429 1.357 5.214 1.464-2.357-1.571-3.75-4.107t-1.393-5.5q0-3.143 1.571-5.821 4.321 5.321 10.518 8.518t13.268 3.554q-0.286-1.357-0.286-2.643 0-4.786 3.375-8.161t8.161-3.375q5 0 8.429 3.643 3.893-0.75 7.321-2.786-1.321 4.107-5.071 6.357 3.321-0.357 6.643-1.786z"></path>
</svg>
