<!-- Generated by IcoMoon.io -->
<svg version="1.1" xmlns="http://www.w3.org/2000/svg" width="32" height="32" viewBox="0 0 32 32">
<title>ubuntu</title>
<path d="M8.104 15.999c0 1.268-1.030 2.3-2.301 2.3-1.268 0-2.298-1.032-2.298-2.3 0-1.269 1.029-2.297 2.298-2.297 1.271 0 2.301 1.028 2.301 2.297zM21.185 27.178c0.629 1.098 2.039 1.475 3.134 0.844 1.105-0.64 1.48-2.042 0.841-3.145-0.63-1.095-2.040-1.474-3.134-0.84-1.104 0.636-1.48 2.040-0.841 3.141zM25.16 7.122c0.639-1.1 0.264-2.505-0.841-3.14-1.094-0.635-2.505-0.257-3.134 0.842-0.64 1.098-0.264 2.505 0.84 3.141 1.094 0.633 2.505 0.256 3.134-0.842zM17.383 9.444c3.421 0 6.237 2.626 6.526 5.974l3.329-0.052c-0.157-2.488-1.235-4.728-2.898-6.377-0.883 0.339-1.902 0.294-2.787-0.216-0.878-0.507-1.429-1.371-1.574-2.303-0.831-0.227-1.704-0.346-2.597-0.346-1.571 0-3.062 0.369-4.381 1.022l1.619 2.907c0.838-0.39 1.776-0.609 2.763-0.609zM10.828 15.999c0-2.218 1.101-4.18 2.786-5.363l-1.707-2.855c-1.981 1.32-3.452 3.337-4.076 5.698 0.736 0.593 1.209 1.501 1.209 2.52 0 1.022-0.473 1.927-1.209 2.519 0.624 2.365 2.096 4.381 4.076 5.705l1.707-2.862c-1.685-1.183-2.786-3.14-2.786-5.362zM17.383 22.559c-0.987 0-1.925-0.222-2.763-0.611l-1.618 2.903c1.319 0.655 2.81 1.025 4.381 1.025 0.893 0 1.766-0.118 2.597-0.348 0.145-0.931 0.696-1.791 1.574-2.3 0.885-0.511 1.904-0.557 2.787-0.214 1.662-1.657 2.741-3.895 2.898-6.381l-3.329-0.052c-0.29 3.352-3.105 5.977-6.527 5.977z"></path>
</svg>
