<?xml version="1.0" encoding="utf-8"?>
<!-- Generated by IcoMoon.io -->
<!DOCTYPE svg PUBLIC "-//W3C//DTD SVG 1.1//EN" "http://www.w3.org/Graphics/SVG/1.1/DTD/svg11.dtd">
<svg version="1.1" xmlns="http://www.w3.org/2000/svg" xmlns:xlink="http://www.w3.org/1999/xlink" width="64" height="64" viewBox="0 0 64 64">
<path fill="rgb(0, 0, 0)" d="M60.512 19.691c-3.219 18.47-21.2 34.112-26.608 37.683-5.411 3.571-10.342-1.43-12.134-5.216-2.048-4.31-8.189-27.702-9.798-29.635-1.606-1.942-6.432 1.933-6.432 1.933l-2.339-3.123c0 0 9.798-11.92 17.254-13.408 7.904-1.578 7.891 12.365 9.792 20.106 1.84 7.491 3.075 11.779 4.678 11.779 1.61 0 4.678-4.179 8.042-10.582 3.37-6.41-0.144-12.067-6.726-8.045 2.63-16.090 27.491-19.958 24.272-1.491z"></path>
</svg>
