<?xml version="1.0" encoding="utf-8"?>
<!-- Generated by IcoMoon.io -->
<!DOCTYPE svg PUBLIC "-//W3C//DTD SVG 1.1//EN" "http://www.w3.org/Graphics/SVG/1.1/DTD/svg11.dtd">
<svg version="1.1" xmlns="http://www.w3.org/2000/svg" xmlns:xlink="http://www.w3.org/1999/xlink" width="32" height="32" viewBox="0 0 32 32">
<path fill="#444" d="M30.256 9.846c-1.61 9.235-10.6 17.056-13.304 18.842-2.706 1.786-5.171-0.715-6.067-2.608-1.024-2.155-4.094-13.851-4.899-14.818-0.803-0.971-3.216 0.966-3.216 0.966l-1.17-1.562c0 0 4.899-5.96 8.627-6.704 3.952-0.789 3.946 6.182 4.896 10.053 0.92 3.746 1.538 5.89 2.339 5.89 0.805 0 2.339-2.090 4.021-5.291 1.685-3.205-0.072-6.034-3.363-4.022 1.315-8.045 13.746-9.979 12.136-0.746z"></path>
</svg>
