<?xml version="1.0" encoding="utf-8"?>
<!-- Generated by IcoMoon.io -->
<!DOCTYPE svg PUBLIC "-//W3C//DTD SVG 1.1//EN" "http://www.w3.org/Graphics/SVG/1.1/DTD/svg11.dtd">
<svg version="1.1" xmlns="http://www.w3.org/2000/svg" xmlns:xlink="http://www.w3.org/1999/xlink" width="64" height="64" viewBox="0 0 64 64">
<path fill="rgb(0, 0, 0)" d="M57.464 31.536v7.071q-3.607 0.821-7.071 0.821-2.321 4.857-5.911 9.679t-6.482 7.696-4.571 3.804q-2.857 1.607-5.786-0.107-1-0.607-2.161-1.554t-3.036-2.982-3.661-4.589-3.839-6.571-3.768-8.714-3.268-11.232-2.518-13.929h10.107q0.929 7.786 2.5 14.232t3.732 11.321 4.339 8.411 5 6.964q6.036-6.036 10.25-14.5-5.071-2.571-7.964-7.857t-2.893-11.893q0-6.857 3.714-11.232t10.143-4.375q6.357 0 9.75 3.768t3.393 10.625q0 5.679-2.071 10.214-0.25 0.036-0.696 0.107t-1.643 0.071-2.25-0.214-2.214-0.911-1.804-1.839q1.107-3.679 1.107-6.571 0-3.107-1.036-4.714t-2.821-1.607q-1.893 0-3.036 1.768t-1.143 5.018q0 6.643 3.75 10.482t9.536 3.839q2.214 0 4.321-0.5z"></path>
</svg>
