<?xml version="1.0" encoding="utf-8"?>
<!-- Generated by IcoMoon.io -->
<!DOCTYPE svg PUBLIC "-//W3C//DTD SVG 1.1//EN" "http://www.w3.org/Graphics/SVG/1.1/DTD/svg11.dtd">
<svg version="1.1" xmlns="http://www.w3.org/2000/svg" xmlns:xlink="http://www.w3.org/1999/xlink" width="32" height="32" viewBox="0 0 32 32">
<path d="M15.656 25.052h1.914s0.576-0.064 0.872-0.38c0.274-0.294 0.266-0.84 0.266-0.84s-0.040-2.568 1.152-2.946c1.174-0.374 2.68 2.48 4.28 3.576 1.208 0.832 2.126 0.652 2.126 0.652l4.274-0.060s2.234-0.14 1.174-1.896c-0.086-0.144-0.616-1.3-3.176-3.676-2.68-2.488-2.324-2.086 0.904-6.388 1.966-2.62 2.752-4.22 2.506-4.904-0.234-0.652-1.68-0.48-1.68-0.48l-4.812 0.030s-0.36-0.050-0.62 0.108c-0.26 0.154-0.426 0.516-0.426 0.516s-0.76 2.026-1.78 3.752c-2.14 3.64-3 3.83-3.348 3.604-0.814-0.528-0.61-2.116-0.61-3.244 0-3.526 0.534-4.996-1.040-5.376-0.526-0.126-0.91-0.21-2.248-0.224-1.72-0.020-3.17 0.006-3.992 0.408-0.548 0.268-0.97 0.866-0.714 0.9 0.32 0.040 1.040 0.194 1.42 0.714 0.496 0.67 0.48 2.176 0.48 2.176s0.28 4.15-0.66 4.666c-0.652 0.354-1.54-0.368-3.452-3.668-0.98-1.69-1.716-3.56-1.716-3.56s-0.144-0.348-0.4-0.536c-0.306-0.226-0.736-0.3-0.736-0.3l-4.574 0.034s-0.684 0.020-0.936 0.32c-0.224 0.264-0.020 0.812-0.020 0.812s3.58 8.374 7.636 12.596c3.716 3.87 7.936 3.616 7.936 3.616z"></path>
</svg>
