<?xml version="1.0" encoding="utf-8"?>
<!-- Generated by IcoMoon.io -->
<!DOCTYPE svg PUBLIC "-//W3C//DTD SVG 1.1//EN" "http://www.w3.org/Graphics/SVG/1.1/DTD/svg11.dtd">
<svg version="1.1" xmlns="http://www.w3.org/2000/svg" xmlns:xlink="http://www.w3.org/1999/xlink" width="64" height="64" viewBox="0 0 64 64">
<path fill="rgb(0, 0, 0)" d="M31.312 50.104h3.828s1.152-0.128 1.744-0.76c0.548-0.588 0.532-1.68 0.532-1.68s-0.080-5.136 2.304-5.892c2.348-0.748 5.36 4.96 8.56 7.152 2.416 1.664 4.252 1.304 4.252 1.304l8.548-0.12s4.468-0.28 2.348-3.792c-0.172-0.288-1.232-2.6-6.352-7.352-5.36-4.976-4.648-4.172 1.808-12.776 3.932-5.24 5.504-8.44 5.012-9.808-0.468-1.304-3.36-0.96-3.36-0.96l-9.624 0.060s-0.72-0.1-1.24 0.216c-0.52 0.308-0.852 1.032-0.852 1.032s-1.52 4.052-3.56 7.504c-4.28 7.28-6 7.66-6.696 7.208-1.628-1.056-1.22-4.232-1.22-6.488 0-7.052 1.068-9.992-2.080-10.752-1.052-0.252-1.82-0.42-4.496-0.448-3.44-0.040-6.34 0.012-7.984 0.816-1.096 0.536-1.94 1.732-1.428 1.8 0.64 0.080 2.080 0.388 2.84 1.428 0.992 1.34 0.96 4.352 0.96 4.352s0.56 8.3-1.32 9.332c-1.304 0.708-3.080-0.736-6.904-7.336-1.96-3.38-3.432-7.12-3.432-7.12s-0.288-0.696-0.8-1.072c-0.612-0.452-1.472-0.6-1.472-0.6l-9.148 0.068s-1.368 0.040-1.872 0.64c-0.448 0.528-0.040 1.624-0.040 1.624s7.16 16.748 15.272 25.192c7.432 7.74 15.872 7.232 15.872 7.232z"></path>
</svg>
