<?xml version="1.0" encoding="utf-8"?>
<!-- Generated by IcoMoon.io -->
<!DOCTYPE svg PUBLIC "-//W3C//DTD SVG 1.1//EN" "http://www.w3.org/Graphics/SVG/1.1/DTD/svg11.dtd">
<svg version="1.1" xmlns="http://www.w3.org/2000/svg" xmlns:xlink="http://www.w3.org/1999/xlink" width="64" height="64" viewBox="0 0 64 64">
<path fill="rgb(0, 0, 0)" d="M46.66 38.352c-0.8-0.4-4.708-2.312-5.44-2.576-0.728-0.268-1.26-0.4-1.792 0.4-0.528 0.788-2.056 2.572-2.52 3.1s-0.928 0.592-1.72 0.2c-0.8-0.4-3.368-1.24-6.408-3.936-2.368-2.1-3.96-4.696-4.428-5.492-0.464-0.792-0.052-1.22 0.348-1.616 0.36-0.36 0.8-0.928 1.2-1.392 0.392-0.464 0.52-0.792 0.792-1.32 0.264-0.532 0.132-0.992-0.068-1.392s-1.792-4.296-2.456-5.88c-0.64-1.548-1.3-1.336-1.792-1.36-0.46-0.024-0.992-0.028-1.52-0.028-0.536 0-1.4 0.2-2.128 0.988-0.728 0.8-2.784 2.712-2.784 6.612s2.852 7.668 3.248 8.2c0.4 0.528 5.616 8.532 13.6 11.96 1.904 0.82 3.384 1.308 4.544 1.672 1.904 0.6 3.64 0.52 5.012 0.32 1.532-0.232 4.712-1.92 5.376-3.772 0.668-1.852 0.668-3.44 0.468-3.772s-0.728-0.532-1.528-0.928zM32.136 58.080h-0.016c-4.748 0-9.412-1.272-13.48-3.672l-0.96-0.572-10.028 2.616 2.68-9.72-0.64-1c-2.648-4.2-4.048-9.052-4.040-14.032 0-14.532 11.88-26.36 26.492-26.36 7.080 0.008 13.72 2.752 18.72 7.736 5.008 4.98 7.76 11.6 7.76 18.648-0.012 14.532-11.892 26.36-26.492 26.36zM54.676 9.284c-6.020-5.972-14.020-9.276-22.548-9.284-17.556 0-31.848 14.224-31.86 31.712 0 5.588 1.464 11.040 4.252 15.856l-4.52 16.432 16.892-4.408c4.656 2.52 9.896 3.856 15.228 3.86h0.016c17.56 0 31.856-14.228 31.864-31.72 0-8.468-3.308-16.44-9.32-22.432z"></path>
</svg>
