<!-- Generated by IcoMoon.io -->
<svg version="1.1" xmlns="http://www.w3.org/2000/svg" width="32" height="32" viewBox="0 0 32 32">
<title>whatsapp</title>
<path d="M23.33 19.176c-0.4-0.2-2.354-1.156-2.72-1.288-0.364-0.134-0.63-0.2-0.896 0.2-0.264 0.394-1.028 1.286-1.26 1.55s-0.464 0.296-0.86 0.1c-0.4-0.2-1.684-0.62-3.204-1.968-1.184-1.050-1.98-2.348-2.214-2.746-0.232-0.396-0.026-0.61 0.174-0.808 0.18-0.18 0.4-0.464 0.6-0.696 0.196-0.232 0.26-0.396 0.396-0.66 0.132-0.266 0.066-0.496-0.034-0.696s-0.896-2.148-1.228-2.94c-0.32-0.774-0.65-0.668-0.896-0.68-0.23-0.012-0.496-0.014-0.76-0.014-0.268 0-0.7 0.1-1.064 0.494-0.364 0.4-1.392 1.356-1.392 3.306s1.426 3.834 1.624 4.1c0.2 0.264 2.808 4.266 6.8 5.98 0.952 0.41 1.692 0.654 2.272 0.836 0.952 0.3 1.82 0.26 2.506 0.16 0.766-0.116 2.356-0.96 2.688-1.886 0.334-0.926 0.334-1.72 0.234-1.886s-0.364-0.266-0.764-0.464zM16.068 29.040h-0.008c-2.374 0-4.706-0.636-6.74-1.836l-0.48-0.286-5.014 1.308 1.34-4.86-0.32-0.5c-1.324-2.1-2.024-4.526-2.020-7.016 0-7.266 5.94-13.18 13.246-13.18 3.54 0.004 6.86 1.376 9.36 3.868 2.504 2.49 3.88 5.8 3.88 9.324-0.006 7.266-5.946 13.18-13.246 13.18zM27.338 4.642c-3.010-2.986-7.010-4.638-11.274-4.642-8.778 0-15.924 7.112-15.93 15.856 0 2.794 0.732 5.52 2.126 7.928l-2.26 8.216 8.446-2.204c2.328 1.26 4.948 1.928 7.614 1.93h0.008c8.78 0 15.928-7.114 15.932-15.86 0-4.234-1.654-8.22-4.66-11.216z"></path>
</svg>
