<?xml version="1.0" encoding="utf-8"?>
<!-- Generated by IcoMoon.io -->
<!DOCTYPE svg PUBLIC "-//W3C//DTD SVG 1.1//EN" "http://www.w3.org/Graphics/SVG/1.1/DTD/svg11.dtd">
<svg version="1.1" xmlns="http://www.w3.org/2000/svg" xmlns:xlink="http://www.w3.org/1999/xlink" width="32" height="32" viewBox="0 0 32 32">
<path d="M16.088 17.996c-1.246 2.57-2.95 6.052-3.796 7.62-0.82 1.43-1.5 1.24-2.040 0.040-1.87-4.42-5.712-12.168-7.52-16.512-0.334-0.8-0.586-1.314-0.824-1.516-0.24-0.2-0.736-0.32-1.492-0.36-0.28-0.034-0.416-0.102-0.416-0.212v-0.606l0.068-0.060c1.23-0.006 7.188 0 7.188 0l0.068 0.060v0.576c0 0.16-0.1 0.236-0.3 0.236l-0.75 0.030c-0.644 0.028-0.966 0.22-0.966 0.576 0 0.166 0.068 0.44 0.22 0.8 1.44 3.51 6.412 14 6.412 14l0.18 0.046 3.208-6.4c-0.392-0.864-0.64-1.42-0.64-1.42l-2.208-4.322s-0.424-0.866-0.57-1.154c-0.968-1.92-0.946-2.020-1.926-2.152-0.274-0.036-0.416-0.070-0.416-0.206v-0.61l0.080-0.060h5.712l0.15 0.048v0.604c0 0.14-0.1 0.208-0.3 0.208l-0.412 0.060c-1.046 0.080-0.876 0.508-0.18 1.892l2.114 4.326 2.34-4.666c0.39-0.852 0.31-1.066 0.148-1.264-0.092-0.11-0.404-0.29-1.080-0.316l-0.266-0.030c-0.068 0-0.13-0.020-0.192-0.068-0.060-0.040-0.092-0.1-0.092-0.17v-0.574l0.080-0.060c1.66-0.010 5.38 0 5.38 0l0.064 0.060v0.58c0 0.16-0.090 0.236-0.266 0.236-0.866 0.040-1.044 0.126-1.36 0.584-0.174 0.248-0.516 0.784-0.87 1.384l-3.040 5.686-0.086 0.18 3.716 7.6 0.226 0.064 5.852-13.89c0.204-0.56 0.172-0.96-0.088-1.19-0.26-0.228-0.448-0.364-1.126-0.392l-0.55-0.024c-0.066 0-0.13-0.024-0.192-0.070-0.060-0.044-0.092-0.1-0.092-0.17v-0.58l0.084-0.056h6.612l0.068 0.060v0.576c0 0.16-0.090 0.236-0.266 0.236-0.866 0.040-1.508 0.228-1.924 0.56-0.42 0.34-0.74 0.806-0.976 1.412 0 0-5.38 12.32-7.224 16.416-0.706 1.34-1.4 1.22-2.008-0.040-0.76-1.572-2.348-5.040-3.512-7.604z"></path>
</svg>
