<?xml version="1.0" encoding="utf-8"?>
<!-- Generated by IcoMoon.io -->
<!DOCTYPE svg PUBLIC "-//W3C//DTD SVG 1.1//EN" "http://www.w3.org/Graphics/SVG/1.1/DTD/svg11.dtd">
<svg version="1.1" xmlns="http://www.w3.org/2000/svg" xmlns:xlink="http://www.w3.org/1999/xlink" width="64" height="64" viewBox="0 0 64 64">
<path fill="rgb(0, 0, 0)" d="M32.176 35.992c-2.492 5.14-5.9 12.104-7.592 15.24-1.64 2.86-3 2.48-4.080 0.080-3.74-8.84-11.424-24.336-15.040-33.024-0.668-1.6-1.172-2.628-1.648-3.032-0.48-0.4-1.472-0.64-2.984-0.72-0.56-0.068-0.832-0.204-0.832-0.424v-1.212l0.136-0.12c2.46-0.012 14.376 0 14.376 0l0.136 0.12v1.152c0 0.32-0.2 0.472-0.6 0.472l-1.5 0.060c-1.288 0.056-1.932 0.44-1.932 1.152 0 0.332 0.136 0.88 0.44 1.6 2.88 7.020 12.824 28 12.824 28l0.36 0.092 6.416-12.8c-0.784-1.728-1.28-2.84-1.28-2.84l-4.416-8.644s-0.848-1.732-1.14-2.308c-1.936-3.84-1.892-4.040-3.852-4.304-0.548-0.072-0.832-0.14-0.832-0.412v-1.22l0.16-0.12h11.424l0.3 0.096v1.208c0 0.28-0.2 0.416-0.6 0.416l-0.824 0.12c-2.092 0.16-1.752 1.016-0.36 3.784l4.228 8.652 4.68-9.332c0.78-1.704 0.62-2.132 0.296-2.528-0.184-0.22-0.808-0.58-2.16-0.632l-0.532-0.060c-0.136 0-0.26-0.040-0.384-0.136-0.12-0.080-0.184-0.2-0.184-0.34v-1.148l0.16-0.12c3.32-0.020 10.76 0 10.76 0l0.128 0.12v1.16c0 0.32-0.18 0.472-0.532 0.472-1.732 0.080-2.088 0.252-2.72 1.168-0.348 0.496-1.032 1.568-1.74 2.768l-6.080 11.372-0.172 0.36 7.432 15.2 0.452 0.128 11.704-27.78c0.408-1.12 0.344-1.92-0.176-2.38-0.52-0.456-0.896-0.728-2.252-0.784l-1.1-0.048c-0.132 0-0.26-0.048-0.384-0.14-0.12-0.088-0.184-0.2-0.184-0.34v-1.16l0.168-0.112h13.224l0.136 0.12v1.152c0 0.32-0.18 0.472-0.532 0.472-1.732 0.080-3.016 0.456-3.848 1.12-0.84 0.68-1.48 1.612-1.952 2.824 0 0-10.76 24.64-14.448 32.832-1.412 2.68-2.8 2.44-4.016-0.080-1.52-3.144-4.696-10.080-7.024-15.208z"></path>
</svg>
