<?xml version="1.0" encoding="utf-8"?>
<!-- Generated by IcoMoon.io -->
<!DOCTYPE svg PUBLIC "-//W3C//DTD SVG 1.1//EN" "http://www.w3.org/Graphics/SVG/1.1/DTD/svg11.dtd">
<svg version="1.1" xmlns="http://www.w3.org/2000/svg" xmlns:xlink="http://www.w3.org/1999/xlink" width="64" height="64" viewBox="0 0 64 64">
<path fill="rgb(0, 0, 0)" d="M4.536 32q0-5.821 2.393-11.179l13.107 35.893q-7-3.393-11.25-10.036t-4.25-14.679zM50.536 30.607q0 0.679-0.089 1.375t-0.357 1.768-0.411 1.571-0.625 2.107-0.625 2.071l-2.714 9.143-9.929-29.5q1.643-0.107 3.143-0.286 0.679-0.071 0.929-0.661t-0.089-1.107-1.018-0.482l-7.321 0.357q-2.679-0.036-7.214-0.357-0.429-0.036-0.732 0.179t-0.411 0.536-0.054 0.661 0.321 0.589 0.696 0.286l2.857 0.286 4.286 11.714-6 18-10-29.714q1.643-0.107 3.143-0.286 0.679-0.071 0.929-0.661t-0.089-1.107-1.018-0.482l-7.321 0.357q-0.25 0-0.821-0.018t-0.929-0.018q3.75-5.714 9.804-9.054t13.125-3.339q5.25 0 10.018 1.893t8.518 5.321h-0.357q-1.964 0-3.286 1.446t-1.321 3.411q0 0.429 0.071 0.857t0.143 0.768 0.286 0.821 0.321 0.75 0.429 0.804 0.446 0.75 0.518 0.857 0.5 0.821q2.25 3.821 2.25 7.571zM32.464 34.393l8.464 23.107q0.036 0.214 0.179 0.393-4.5 1.571-9.107 1.571-4 0-7.75-1.143zM56.071 18.821q3.393 6.214 3.393 13.179 0 7.464-3.714 13.768t-9.964 9.946l8.393-24.214q2.107-6.036 2.107-9.857 0-1.5-0.214-2.821zM32 0q6.5 0 12.429 2.536t10.214 6.821 6.821 10.214 2.536 12.429-2.536 12.429-6.821 10.214-10.214 6.821-12.429 2.536-12.429-2.536-10.214-6.821-6.821-10.214-2.536-12.429 2.536-12.429 6.821-10.214 10.214-6.821 12.429-2.536zM32 62.536q6.179 0 11.839-2.429t9.75-6.518 6.518-9.75 2.429-11.839-2.429-11.839-6.518-9.75-9.75-6.518-11.839-2.429-11.839 2.429-9.75 6.518-6.518 9.75-2.429 11.839 2.429 11.839 6.518 9.75 9.75 6.518 11.839 2.429z"></path>
</svg>
