<?xml version="1.0" encoding="utf-8"?>
<!-- Generated by IcoMoon.io -->
<!DOCTYPE svg PUBLIC "-//W3C//DTD SVG 1.1//EN" "http://www.w3.org/Graphics/SVG/1.1/DTD/svg11.dtd">
<svg version="1.1" xmlns="http://www.w3.org/2000/svg" xmlns:xlink="http://www.w3.org/1999/xlink" width="64" height="64" viewBox="0 0 64 64">
<path fill="rgb(0, 0, 0)" d="M31.607 47.107v4.536q-0.036 10.429-0.214 10.893-0.429 1.143-1.821 1.429-1.929 0.321-6.482-1.357t-5.804-3.179q-0.464-0.536-0.607-1.286-0.036-0.429 0.143-0.929 0.143-0.357 1.214-1.679t6.464-7.714q0.036 0 2.143-2.5 0.536-0.679 1.411-0.875t1.768 0.125q0.857 0.357 1.339 1.036t0.446 1.5zM26.286 38.143q-0.107 1.964-1.857 2.5l-4.286 1.393q-9.821 3.143-10.429 3.143-1.25-0.071-1.929-1.286-0.429-0.893-0.607-2.679-0.286-2.714 0.036-5.946t1.071-4.446 2-1.143q0.464 0 7.214 2.75 2.5 1.036 4.107 1.679l3 1.214q0.821 0.321 1.268 1.089t0.411 1.732zM55.786 48.75q-0.25 1.929-3.268 5.75t-4.839 4.536q-1.321 0.5-2.25-0.25-0.5-0.357-6.571-10.25l-1.679-2.75q-0.5-0.75-0.411-1.643t0.696-1.643q1.25-1.536 2.964-0.929 0.036 0.036 4.25 1.429 7.25 2.357 8.643 2.839t1.679 0.732q1 0.786 0.786 2.179zM31.786 26.179q0.179 3.643-1.929 4.357-2.071 0.607-4.071-2.536l-13.5-21.357q-0.286-1.25 0.679-2.214 1.464-1.536 7.411-3.196t8.018-1.125q1.429 0.357 1.75 1.607 0.107 0.643 0.786 10.911t0.857 13.554zM55.429 30.036q0.107 1.393-0.929 2.107-0.536 0.357-11.75 3.071-2.393 0.536-3.25 0.821l0.036-0.071q-0.821 0.214-1.643-0.143t-1.321-1.143q-1.071-1.679 0-3.107 0.036-0.036 2.679-3.643 4.464-6.107 5.357-7.286t1.214-1.393q1-0.679 2.321-0.071 1.714 0.821 4.393 4.768t2.893 5.982v0.107z"></path>
</svg>
