<!-- Generated by IcoMoon.io -->
<svg version="1.1" xmlns="http://www.w3.org/2000/svg" width="32" height="32" viewBox="0 0 32 32">
<title>youtube</title>
<path d="M23.2 6.937c1.428 0.144 3.285 0 4.285 1.144 1.143 1.143 1.287 2.999 1.287 4.428 0.142 1.714 0.142 4.144 0.142 5.713-0.142 1.573 0 3.428-0.716 4.859-0.712 1.569-1.999 2.143-3.57 2.284-1.716 0.142-12.286 0.142-15.713 0-1.572-0.142-3.429-0.142-4.572-1.428-1-1.144-1-2.857-1.143-4.285 0-1.715 0-4.144 0-5.857 0-1.572 0-3.428 0.714-4.857 0.715-1.428 2.143-1.714 3.714-1.856 1.714-0.144 12.141-0.286 15.571-0.144zM13.2 11.794v8.57l7.857-4.285-7.857-4.285z"></path>
</svg>
