<?xml version="1.0" encoding="utf-8"?>
<!-- Generated by IcoMoon.io -->
<!DOCTYPE svg PUBLIC "-//W3C//DTD SVG 1.1//EN" "http://www.w3.org/Graphics/SVG/1.1/DTD/svg11.dtd">
<svg version="1.1" xmlns="http://www.w3.org/2000/svg" xmlns:xlink="http://www.w3.org/1999/xlink" width="64" height="64" viewBox="0 0 64 64">
<path fill="rgb(0, 0, 0)" d="M39.679 44.429v7.536q0 2.393-1.393 2.393-0.821 0-1.607-0.786v-10.75q0.786-0.786 1.607-0.786 1.393 0 1.393 2.393zM51.75 44.464v1.643h-3.214v-1.643q0-2.429 1.607-2.429t1.607 2.429zM17.25 36.679h3.821v-3.357h-11.143v3.357h3.75v20.321h3.571v-20.321zM27.536 57h3.179v-17.643h-3.179v13.5q-1.071 1.5-2.036 1.5-0.643 0-0.75-0.75-0.036-0.107-0.036-1.25v-13h-3.179v13.964q0 1.75 0.286 2.607 0.429 1.321 2.071 1.321 1.714 0 3.643-2.179v1.929zM42.857 51.714v-7.036q0-2.607-0.321-3.536-0.607-2-2.536-2-1.786 0-3.321 1.929v-7.75h-3.179v23.679h3.179v-1.714q1.607 1.964 3.321 1.964 1.929 0 2.536-1.964 0.321-0.964 0.321-3.571zM54.929 51.357v-0.464h-3.25q0 1.821-0.071 2.179-0.25 1.286-1.429 1.286-1.643 0-1.643-2.464v-3.107h6.393v-3.679q0-2.821-0.964-4.143-1.393-1.821-3.786-1.821-2.429 0-3.821 1.821-1 1.321-1 4.143v6.179q0 2.821 1.036 4.143 1.393 1.821 3.857 1.821 2.571 0 3.857-1.893 0.643-0.964 0.75-1.929 0.071-0.321 0.071-2.071zM33.214 18.75v-7.5q0-2.464-1.536-2.464t-1.536 2.464v7.5q0 2.5 1.536 2.5t1.536-2.5zM58.893 45.571q0 8.357-0.929 12.5-0.5 2.107-2.071 3.536t-3.643 1.643q-6.571 0.75-19.821 0.75t-19.821-0.75q-2.071-0.214-3.661-1.643t-2.054-3.536q-0.929-4-0.929-12.5 0-8.357 0.929-12.5 0.5-2.107 2.071-3.536t3.679-1.679q6.536-0.714 19.786-0.714t19.821 0.714q2.071 0.25 3.661 1.679t2.054 3.536q0.929 4 0.929 12.5zM23.25 0h3.643l-4.321 14.25v9.679h-3.571v-9.679q-0.5-2.643-2.179-7.571-1.321-3.679-2.321-6.679h3.786l2.536 9.393zM36.464 11.893v6.25q0 2.893-1 4.214-1.321 1.821-3.786 1.821-2.393 0-3.75-1.821-1-1.357-1-4.214v-6.25q0-2.857 1-4.179 1.357-1.821 3.75-1.821 2.464 0 3.786 1.821 1 1.321 1 4.179zM48.429 6.107v17.821h-3.25v-1.964q-1.893 2.214-3.679 2.214-1.643 0-2.107-1.321-0.286-0.857-0.286-2.679v-14.071h3.25v13.107q0 1.179 0.036 1.25 0.107 0.786 0.75 0.786 0.964 0 2.036-1.536v-13.607h3.25z"></path>
</svg>
