<?xml version="1.0" encoding="utf-8"?>
<!-- Generated by IcoMoon.io -->
<!DOCTYPE svg PUBLIC "-//W3C//DTD SVG 1.1//EN" "http://www.w3.org/Graphics/SVG/1.1/DTD/svg11.dtd">
<svg version="1.1" xmlns="http://www.w3.org/2000/svg" xmlns:xlink="http://www.w3.org/1999/xlink" width="32" height="32" viewBox="0 0 32 32">
<path d="M10.903 1.417c0.721 0.182 1.218 0.354 1.816 0.546 0.911 0.183 1.56 0.39 2.386 0.532 3.265 0.714 7.379-0.313 10.129-0.646 0.084 0.24 0.247 0.641 0.246 1.025 0 0.547-0.301 1.2-0.461 1.565-0.68 1.543-1.871 2.327-2.8 3.562-1.992 2.635-4.253 5.23-6.576 7.555-1.398 1.401-3.607 3.199-4.525 4.965 3.826 0.226 5.903 2.644 8.837 3.886 1.155 0.488 3.256 1.346 5.065 0.755 0.667-0.219 1.175-0.733 1.723-1.079 0.135 0.968 0.363 2.147 0 3.13-0.68 1.846-3.108 4.119-6.142 3.13-3.482-1.134-5.495-4.016-8.946-5.287-1.164-0.431-2.485-0.541-3.988-0.541-0.676 0-1.99 0.274-2.261 0.109-1.098-1.622 0.734-4.588 1.399-5.289 2.304-2.426 4.657-4.86 6.683-7.555 1.196-1.592 2.93-2.93 3.879-4.75-0.035 0-0.071 0-0.107 0-0.388 0.253-1.173-0.002-1.725 0.109-2.774 0.548-6.416 0.345-6.359-2.483 0.069-0.614 0.012-0.374 0.431-1.187 0.356-0.685 0.742-1.321 1.296-2.051z"></path>
</svg>
