<?xml version="1.0" encoding="utf-8"?>
<!-- Generated by IcoMoon.io -->
<!DOCTYPE svg PUBLIC "-//W3C//DTD SVG 1.1//EN" "http://www.w3.org/Graphics/SVG/1.1/DTD/svg11.dtd">
<svg version="1.1" xmlns="http://www.w3.org/2000/svg" xmlns:xlink="http://www.w3.org/1999/xlink" width="64" height="64" viewBox="0 0 64 64">
<path fill="rgb(0, 0, 0)" d="M21.806 2.833c1.442 0.363 2.435 0.708 3.632 1.093 1.823 0.367 3.119 0.78 4.771 1.065 6.53 1.428 14.758-0.627 20.259-1.292 0.167 0.481 0.495 1.282 0.491 2.051 0 1.093-0.602 2.4-0.922 3.13-1.36 3.087-3.742 4.654-5.601 7.125-3.984 5.269-8.506 10.461-13.152 15.11-2.795 2.802-7.213 6.398-9.051 9.93 7.651 0.452 11.806 5.287 17.674 7.773 2.311 0.975 6.512 2.692 10.13 1.51 1.335-0.438 2.35-1.467 3.446-2.158 0.271 1.937 0.726 4.294 0 6.259-1.36 3.692-6.216 8.239-12.284 6.259-6.964-2.268-10.991-8.032-17.891-10.575-2.329-0.861-4.97-1.082-7.975-1.082-1.353 0-3.98 0.548-4.522 0.217-2.197-3.243 1.467-9.175 2.798-10.578 4.607-4.853 9.314-9.72 13.366-15.11 2.393-3.183 5.861-5.861 7.758-9.499-0.071 0-0.142 0-0.214 0-0.776 0.506-2.346-0.004-3.45 0.217-5.547 1.097-12.832 0.691-12.718-4.967 0.139-1.228 0.025-0.748 0.862-2.375 0.713-1.37 1.485-2.642 2.593-4.101z"></path>
</svg>
